<svg width="202" height="31" viewBox="0 0 202 31" fill="none" xmlns="http://www.w3.org/2000/svg">
<g clip-path="url(#clip0_12_100)">
<rect width="202" height="31" rx="15.5" fill="#1D1D1F"/>
<g filter="url(#filter0_f_12_100)">
<ellipse cx="66" cy="1.5" rx="28" ry="20.5" fill="#D9D9D9"/>
</g>
<path d="M18.352 10.984V9.48H26.56V10.984H23.2V21H21.744V10.984H18.352ZM26.5321 16.856C26.5321 14.296 28.2281 12.536 30.7081 12.536C33.2041 12.536 34.9001 14.296 34.9001 16.84C34.9001 19.32 33.2041 21.176 30.7081 21.176C28.2441 21.176 26.5321 19.32 26.5321 16.856ZM30.7081 19.864C32.3721 19.864 33.4441 18.664 33.4441 16.904C33.4441 15.208 32.2281 14.04 30.7081 14.04C29.1081 14.04 28.0041 15.208 28.0041 16.904C28.0041 18.664 29.0761 19.864 30.7081 19.864ZM44.793 8.84V21H43.401V19.432H43.353C42.761 20.52 41.705 21.176 40.313 21.176C37.977 21.176 36.329 19.432 36.329 16.84C36.329 14.296 38.041 12.536 40.329 12.536C41.705 12.536 42.793 13.16 43.337 14.248H43.385V8.84H44.793ZM40.537 14.04C38.985 14.04 37.801 15.224 37.801 16.904C37.801 18.696 38.969 19.864 40.537 19.864C42.137 19.864 43.353 18.648 43.353 16.904C43.353 15.208 42.137 14.04 40.537 14.04ZM52.157 15.4C52.157 14.6 51.581 14.04 50.189 14.04C49.165 14.04 48.237 14.328 47.581 14.648L47.453 13.208C48.189 12.808 49.197 12.536 50.333 12.536C52.733 12.536 53.645 13.72 53.645 15.544V21H52.221V19.704C51.629 20.52 50.829 21.176 49.437 21.176C47.997 21.176 46.925 20.408 46.925 19C46.925 17.368 48.013 16.776 50.157 16.424C50.941 16.296 51.485 16.152 51.869 15.96C52.125 15.848 52.157 15.688 52.157 15.4ZM52.221 16.792C51.837 17.016 51.133 17.224 50.301 17.368C49.021 17.592 48.381 17.928 48.381 18.872C48.381 19.72 49.085 20.136 49.949 20.136C51.085 20.136 51.901 19.384 52.221 18.584V16.792ZM56.8951 24.216C56.3991 24.216 55.9671 24.152 55.6631 24.04L55.7911 22.84C56.0311 22.92 56.3031 22.968 56.6391 22.968C57.4711 22.968 57.7911 22.632 58.1431 21.752L58.3991 21.08L54.9271 12.712H56.6551L59.1831 19.672L61.5671 12.712H63.1671L59.5991 21.72C59.0391 23.176 58.5591 24.216 56.8951 24.216ZM64.1281 20.68L64.2401 19.512C64.8961 19.768 65.7601 19.96 66.7361 19.96C67.9201 19.96 68.7521 19.624 68.7521 18.776C68.7521 18.072 68.2881 17.736 66.7361 17.352C65.0881 16.952 64.2081 16.376 64.2081 14.968C64.2081 13.528 65.3761 12.536 67.3761 12.536C68.4001 12.536 69.1521 12.76 69.6961 12.984L69.5841 14.424C69.0081 14.216 68.2881 14.04 67.3761 14.04C66.2721 14.04 65.6001 14.312 65.6001 15.032C65.6001 15.688 66.0641 15.976 67.4401 16.264C69.2161 16.648 70.1121 17.256 70.1121 18.712C70.1121 20.232 68.9921 21.176 66.8001 21.176C65.6801 21.176 64.8481 20.968 64.1281 20.68ZM83.7476 21L82.5156 17.832H77.5236L76.3076 21H74.8196L79.2196 9.48H80.9316L85.3316 21H83.7476ZM82.0516 16.52L80.0196 11.224L77.9876 16.52H82.0516ZM92.7476 19.416L92.8596 20.68C92.2676 20.984 91.4836 21.176 90.6356 21.176C87.9956 21.176 86.2196 19.48 86.2196 16.808C86.2196 14.328 87.8196 12.536 90.5236 12.536C91.4836 12.536 92.2196 12.744 92.8116 13.032L92.6836 14.472C92.1556 14.2 91.4516 14.04 90.6516 14.04C88.8436 14.04 87.6916 15.24 87.6916 16.872C87.6916 18.696 88.9076 19.864 90.7156 19.864C91.4516 19.864 92.1556 19.704 92.7476 19.416ZM95.3225 18.488V14.12H93.8665V12.712H95.4025L95.5785 10.504H96.7305V12.712H99.1465V14.12H96.7305V18.408C96.7305 19.496 97.3065 19.864 98.1065 19.864C98.5225 19.864 98.8425 19.8 99.1625 19.704L99.2745 20.968C98.9385 21.112 98.3945 21.176 97.8825 21.176C96.0905 21.176 95.3225 20.2 95.3225 18.488ZM101.798 11.32C101.206 11.32 100.806 10.936 100.806 10.344C100.806 9.752 101.206 9.368 101.798 9.368C102.39 9.368 102.79 9.752 102.79 10.344C102.79 10.936 102.374 11.32 101.798 11.32ZM101.094 21V12.712H102.502V21H101.094ZM109.012 21H107.38L104.052 12.712H105.716L108.244 19.64L110.66 12.712H112.228L109.012 21ZM118.501 15.4C118.501 14.6 117.925 14.04 116.533 14.04C115.509 14.04 114.581 14.328 113.925 14.648L113.797 13.208C114.533 12.808 115.541 12.536 116.677 12.536C119.077 12.536 119.989 13.72 119.989 15.544V21H118.565V19.704C117.973 20.52 117.173 21.176 115.781 21.176C114.341 21.176 113.269 20.408 113.269 19C113.269 17.368 114.357 16.776 116.501 16.424C117.285 16.296 117.829 16.152 118.213 15.96C118.469 15.848 118.501 15.688 118.501 15.4ZM118.565 16.792C118.181 17.016 117.477 17.224 116.645 17.368C115.365 17.592 114.725 17.928 114.725 18.872C114.725 19.72 115.429 20.136 116.293 20.136C117.429 20.136 118.245 19.384 118.565 18.584V16.792ZM122.994 18.488V14.12H121.538V12.712H123.074L123.25 10.504H124.402V12.712H126.818V14.12H124.402V18.408C124.402 19.496 124.978 19.864 125.778 19.864C126.194 19.864 126.514 19.8 126.834 19.704L126.946 20.968C126.61 21.112 126.066 21.176 125.554 21.176C123.762 21.176 122.994 20.2 122.994 18.488ZM129.47 11.32C128.878 11.32 128.478 10.936 128.478 10.344C128.478 9.752 128.878 9.368 129.47 9.368C130.062 9.368 130.462 9.752 130.462 10.344C130.462 10.936 130.046 11.32 129.47 11.32ZM128.766 21V12.712H130.174V21H128.766ZM132.204 16.856C132.204 14.296 133.9 12.536 136.38 12.536C138.876 12.536 140.572 14.296 140.572 16.84C140.572 19.32 138.876 21.176 136.38 21.176C133.916 21.176 132.204 19.32 132.204 16.856ZM136.38 19.864C138.044 19.864 139.116 18.664 139.116 16.904C139.116 15.208 137.9 14.04 136.38 14.04C134.78 14.04 133.676 15.208 133.676 16.904C133.676 18.664 134.748 19.864 136.38 19.864ZM142.625 21V12.712H144.017V14.104H144.065C144.529 13.16 145.425 12.536 146.737 12.536C149.025 12.536 149.937 14.04 149.937 16.056V21H148.545V16.616C148.545 15.144 147.921 14.056 146.337 14.056C144.801 14.056 144.033 15.096 144.033 16.728V21H142.625ZM151.988 20.68L152.1 19.512C152.756 19.768 153.62 19.96 154.596 19.96C155.78 19.96 156.612 19.624 156.612 18.776C156.612 18.072 156.148 17.736 154.596 17.352C152.948 16.952 152.068 16.376 152.068 14.968C152.068 13.528 153.236 12.536 155.236 12.536C156.26 12.536 157.012 12.76 157.556 12.984L157.444 14.424C156.868 14.216 156.148 14.04 155.236 14.04C154.132 14.04 153.46 14.312 153.46 15.032C153.46 15.688 153.924 15.976 155.299 16.264C157.076 16.648 157.972 17.256 157.972 18.712C157.972 20.232 156.852 21.176 154.66 21.176C153.539 21.176 152.708 20.968 151.988 20.68Z" fill="#A3A3A3"/>
<path d="M172 13L178 19.5L183.5 13" stroke="#EDEDED"/>
</g>
<rect x="0.25" y="0.25" width="201.5" height="30.5" rx="15.25" stroke="#353536" stroke-width="0.5"/>
<defs>
<filter id="filter0_f_12_100" x="-54" y="-111" width="240" height="225" filterUnits="userSpaceOnUse" color-interpolation-filters="sRGB">
<feFlood flood-opacity="0" result="BackgroundImageFix"/>
<feBlend mode="normal" in="SourceGraphic" in2="BackgroundImageFix" result="shape"/>
<feGaussianBlur stdDeviation="46" result="effect1_foregroundBlur_12_100"/>
</filter>
<clipPath id="clip0_12_100">
<rect width="202" height="31" rx="15.5" fill="white"/>
</clipPath>
</defs>
</svg>
