<svg width="140" height="45" viewBox="0 0 140 45" fill="none" xmlns="http://www.w3.org/2000/svg">
<g clip-path="url(#clip0_1_131)">
<mask id="path-1-inside-1_1_131" fill="white">
<path d="M0 45H140V31.2C140 20.753 140 15.5295 138.097 11.4844C136.115 7.27328 132.727 3.88507 128.516 1.90346C124.471 0 119.247 0 108.8 0H31.2C20.753 0 15.5295 0 11.4844 1.90346C7.27328 3.88507 3.88507 7.27328 1.90346 11.4844C0 15.5295 0 20.753 0 31.2V45Z"/>
</mask>
<path d="M0 45H140V31.2C140 20.753 140 15.5295 138.097 11.4844C136.115 7.27328 132.727 3.88507 128.516 1.90346C124.471 0 119.247 0 108.8 0H31.2C20.753 0 15.5295 0 11.4844 1.90346C7.27328 3.88507 3.88507 7.27328 1.90346 11.4844C0 15.5295 0 20.753 0 31.2V45Z" fill="#E9866E"/>
<g filter="url(#filter0_f_1_131)">
<ellipse cx="52" cy="18.5" rx="52" ry="18.5" transform="matrix(1 0 0 -1 17 71)" fill="#F5F5F5" fill-opacity="0.76"/>
</g>
<path d="M24.232 29L23 25.832H18.008L16.792 29H15.304L19.704 17.48H21.416L25.816 29H24.232ZM22.536 24.52L20.504 19.224L18.472 24.52H22.536ZM33.232 27.416L33.344 28.68C32.752 28.984 31.968 29.176 31.12 29.176C28.48 29.176 26.704 27.48 26.704 24.808C26.704 22.328 28.304 20.536 31.008 20.536C31.968 20.536 32.704 20.744 33.296 21.032L33.168 22.472C32.64 22.2 31.936 22.04 31.136 22.04C29.328 22.04 28.176 23.24 28.176 24.872C28.176 26.696 29.392 27.864 31.2 27.864C31.936 27.864 32.64 27.704 33.232 27.416ZM35.8069 26.488V22.12H34.3509V20.712H35.8869L36.0629 18.504H37.2149V20.712H39.6309V22.12H37.2149V26.408C37.2149 27.496 37.7909 27.864 38.5909 27.864C39.0069 27.864 39.3269 27.8 39.6469 27.704L39.7589 28.968C39.4229 29.112 38.8789 29.176 38.3669 29.176C36.5749 29.176 35.8069 28.2 35.8069 26.488ZM42.282 19.32C41.69 19.32 41.29 18.936 41.29 18.344C41.29 17.752 41.69 17.368 42.282 17.368C42.874 17.368 43.274 17.752 43.274 18.344C43.274 18.936 42.858 19.32 42.282 19.32ZM41.578 29V20.712H42.986V29H41.578ZM49.4965 29H47.8645L44.5365 20.712H46.2005L48.7285 27.64L51.1445 20.712H52.7125L49.4965 29ZM58.9851 23.4C58.9851 22.6 58.4091 22.04 57.0171 22.04C55.9931 22.04 55.0651 22.328 54.4091 22.648L54.2811 21.208C55.0171 20.808 56.0251 20.536 57.1611 20.536C59.5611 20.536 60.4731 21.72 60.4731 23.544V29H59.0491V27.704C58.4571 28.52 57.6571 29.176 56.2651 29.176C54.8251 29.176 53.7531 28.408 53.7531 27C53.7531 25.368 54.8411 24.776 56.9851 24.424C57.7691 24.296 58.3131 24.152 58.6971 23.96C58.9531 23.848 58.9851 23.688 58.9851 23.4ZM59.0491 24.792C58.6651 25.016 57.9611 25.224 57.1291 25.368C55.8491 25.592 55.2091 25.928 55.2091 26.872C55.2091 27.72 55.9131 28.136 56.7771 28.136C57.9131 28.136 58.7291 27.384 59.0491 26.584V24.792ZM63.4788 26.488V22.12H62.0228V20.712H63.5588L63.7348 18.504H64.8868V20.712H67.3028V22.12H64.8868V26.408C64.8868 27.496 65.4628 27.864 66.2628 27.864C66.6788 27.864 66.9988 27.8 67.3188 27.704L67.4308 28.968C67.0948 29.112 66.5508 29.176 66.0388 29.176C64.2468 29.176 63.4788 28.2 63.4788 26.488ZM69.9539 19.32C69.3619 19.32 68.9619 18.936 68.9619 18.344C68.9619 17.752 69.3619 17.368 69.9539 17.368C70.5459 17.368 70.9459 17.752 70.9459 18.344C70.9459 18.936 70.5299 19.32 69.9539 19.32ZM69.2499 29V20.712H70.6579V29H69.2499ZM72.6884 24.856C72.6884 22.296 74.3844 20.536 76.8644 20.536C79.3604 20.536 81.0564 22.296 81.0564 24.84C81.0564 27.32 79.3604 29.176 76.8644 29.176C74.4004 29.176 72.6884 27.32 72.6884 24.856ZM76.8644 27.864C78.5284 27.864 79.6004 26.664 79.6004 24.904C79.6004 23.208 78.3844 22.04 76.8644 22.04C75.2644 22.04 74.1604 23.208 74.1604 24.904C74.1604 26.664 75.2324 27.864 76.8644 27.864ZM83.1093 29V20.712H84.5013V22.104H84.5493C85.0133 21.16 85.9093 20.536 87.2213 20.536C89.5093 20.536 90.4213 22.04 90.4213 24.056V29H89.0293V24.616C89.0293 23.144 88.4053 22.056 86.8213 22.056C85.2853 22.056 84.5173 23.096 84.5173 24.728V29H83.1093ZM97.0513 29V17.48H98.5073V27.64H103.115V29H97.0513ZM105.876 19.32C105.284 19.32 104.884 18.936 104.884 18.344C104.884 17.752 105.284 17.368 105.876 17.368C106.468 17.368 106.868 17.752 106.868 18.344C106.868 18.936 106.452 19.32 105.876 19.32ZM105.172 29V20.712H106.58V29H105.172ZM108.706 28.68L108.818 27.512C109.474 27.768 110.338 27.96 111.314 27.96C112.498 27.96 113.33 27.624 113.33 26.776C113.33 26.072 112.866 25.736 111.314 25.352C109.666 24.952 108.786 24.376 108.786 22.968C108.786 21.528 109.954 20.536 111.954 20.536C112.978 20.536 113.73 20.76 114.274 20.984L114.162 22.424C113.586 22.216 112.866 22.04 111.954 22.04C110.85 22.04 110.178 22.312 110.178 23.032C110.178 23.688 110.642 23.976 112.018 24.264C113.794 24.648 114.69 25.256 114.69 26.712C114.69 28.232 113.57 29.176 111.378 29.176C110.258 29.176 109.426 28.968 108.706 28.68ZM116.994 26.488V22.12H115.538V20.712H117.074L117.25 18.504H118.402V20.712H120.818V22.12H118.402V26.408C118.402 27.496 118.978 27.864 119.778 27.864C120.194 27.864 120.514 27.8 120.834 27.704L120.946 28.968C120.61 29.112 120.066 29.176 119.554 29.176C117.762 29.176 116.994 28.2 116.994 26.488Z" fill="white"/>
</g>
<path d="M0 45H140H0ZM140 20C140 8.40202 130.598 -1 119 -1H21C9.40202 -1 0 8.40202 0 20C0 9.50659 8.9543 1 20 1H120C131.046 1 140 9.50659 140 20ZM0 0V45V0ZM140 45V0V45Z" fill="url(#paint0_linear_1_131)" mask="url(#path-1-inside-1_1_131)"/>
<defs>
<filter id="filter0_f_1_131" x="-74" y="-57" width="286" height="219" filterUnits="userSpaceOnUse" color-interpolation-filters="sRGB">
<feFlood flood-opacity="0" result="BackgroundImageFix"/>
<feBlend mode="normal" in="SourceGraphic" in2="BackgroundImageFix" result="shape"/>
<feGaussianBlur stdDeviation="45.5" result="effect1_foregroundBlur_1_131"/>
</filter>
<linearGradient id="paint0_linear_1_131" x1="34.5958" y1="22.5" x2="40.6004" y2="1.43967" gradientUnits="userSpaceOnUse">
<stop offset="0.790039" stop-color="#CECECE"/>
<stop offset="1" stop-color="#0D0D0E"/>
</linearGradient>
<clipPath id="clip0_1_131">
<path d="M0 45H140V31.2C140 20.753 140 15.5295 138.097 11.4844C136.115 7.27328 132.727 3.88507 128.516 1.90346C124.471 0 119.247 0 108.8 0H31.2C20.753 0 15.5295 0 11.4844 1.90346C7.27328 3.88507 3.88507 7.27328 1.90346 11.4844C0 15.5295 0 20.753 0 31.2V45Z" fill="white"/>
</clipPath>
</defs>
</svg>
