<svg width="76" height="23" viewBox="0 0 76 23" fill="none" xmlns="http://www.w3.org/2000/svg">
<rect x="0.25" y="1.25" width="75.5" height="21.5" rx="10.75" fill="white" fill-opacity="0.1" stroke="#585858" stroke-width="0.5"/>
<path d="M9.69602 16H8.2983L11.4389 7.27273H12.9602L16.1009 16H14.7031L12.2358 8.85795H12.1676L9.69602 16ZM9.9304 12.5824H14.4645V13.6903H9.9304V12.5824ZM19.9105 16.1321C19.277 16.1321 18.7315 15.9886 18.2741 15.7017C17.8196 15.4119 17.4702 15.0128 17.2259 14.5043C16.9815 13.9957 16.8594 13.4134 16.8594 12.7571C16.8594 12.0923 16.9844 11.5057 17.2344 10.9972C17.4844 10.4858 17.8366 10.0866 18.2912 9.79972C18.7457 9.51278 19.2813 9.36932 19.8977 9.36932C20.3949 9.36932 20.8381 9.46165 21.2273 9.64631C21.6165 9.82812 21.9304 10.0838 22.169 10.4134C22.4105 10.7429 22.554 11.1278 22.5994 11.5682H21.3594C21.2912 11.2614 21.1349 10.9972 20.8906 10.7756C20.6491 10.554 20.3253 10.4432 19.919 10.4432C19.5639 10.4432 19.2528 10.5369 18.9858 10.7244C18.7216 10.9091 18.5156 11.1733 18.3679 11.517C18.2202 11.858 18.1463 12.2614 18.1463 12.7273C18.1463 13.2045 18.2188 13.6165 18.3636 13.9631C18.5085 14.3097 18.7131 14.5781 18.9773 14.7685C19.2443 14.9588 19.5582 15.054 19.919 15.054C20.1605 15.054 20.3793 15.0099 20.5753 14.9219C20.7741 14.831 20.9403 14.7017 21.0739 14.5341C21.2102 14.3665 21.3054 14.1648 21.3594 13.929H22.5994C22.554 14.3523 22.4162 14.7301 22.1861 15.0625C21.956 15.3949 21.6477 15.6562 21.2614 15.8466C20.8778 16.0369 20.4276 16.1321 19.9105 16.1321ZM27.0174 9.45455V10.4773H23.4421V9.45455H27.0174ZM24.4009 7.88636H25.6751V14.0781C25.6751 14.3253 25.712 14.5114 25.7859 14.6364C25.8597 14.7585 25.9549 14.8423 26.0714 14.8878C26.1907 14.9304 26.32 14.9517 26.4592 14.9517C26.5614 14.9517 26.6509 14.9446 26.7276 14.9304C26.8043 14.9162 26.864 14.9048 26.9066 14.8963L27.1367 15.9489C27.0629 15.9773 26.9577 16.0057 26.8214 16.0341C26.685 16.0653 26.5146 16.0824 26.31 16.0852C25.9748 16.0909 25.6623 16.0312 25.3725 15.9062C25.0827 15.7812 24.8484 15.5881 24.6694 15.3267C24.4904 15.0653 24.4009 14.7372 24.4009 14.3423V7.88636ZM28.4268 16V9.45455H29.701V16H28.4268ZM29.0703 8.4446C28.8487 8.4446 28.6584 8.37074 28.4993 8.22301C28.343 8.07244 28.2649 7.89347 28.2649 7.68608C28.2649 7.47585 28.343 7.29687 28.4993 7.14915C28.6584 6.99858 28.8487 6.9233 29.0703 6.9233C29.2919 6.9233 29.4808 6.99858 29.6371 7.14915C29.7962 7.29687 29.8757 7.47585 29.8757 7.68608C29.8757 7.89347 29.7962 8.07244 29.6371 8.22301C29.4808 8.37074 29.2919 8.4446 29.0703 8.4446ZM37.0146 9.45455L34.641 16H33.2773L30.8995 9.45455H32.2674L33.9251 14.4915H33.9933L35.6467 9.45455H37.0146ZM39.9293 16.1449C39.5146 16.1449 39.1396 16.0682 38.8043 15.9148C38.4691 15.7585 38.2035 15.5327 38.0075 15.2372C37.8143 14.9418 37.7177 14.5795 37.7177 14.1506C37.7177 13.7812 37.7887 13.4773 37.9308 13.2386C38.0728 13 38.2646 12.8111 38.506 12.6719C38.7475 12.5327 39.0174 12.4276 39.3157 12.3565C39.614 12.2855 39.918 12.2315 40.2276 12.1946C40.6197 12.1491 40.9379 12.1122 41.1822 12.0838C41.4265 12.0526 41.604 12.0028 41.7148 11.9347C41.8256 11.8665 41.881 11.7557 41.881 11.6023V11.5724C41.881 11.2003 41.7759 10.9119 41.5657 10.7074C41.3583 10.5028 41.0487 10.4006 40.6367 10.4006C40.2077 10.4006 39.8697 10.4957 39.6225 10.6861C39.3782 10.8736 39.2092 11.0824 39.1154 11.3125L37.918 11.0398C38.06 10.642 38.2674 10.321 38.5401 10.0767C38.8157 9.82955 39.1325 9.65057 39.4904 9.53977C39.8484 9.42614 40.2248 9.36932 40.6197 9.36932C40.881 9.36932 41.158 9.40057 41.4506 9.46307C41.7461 9.52273 42.0217 9.63352 42.2773 9.79545C42.5359 9.95739 42.7475 10.1889 42.9123 10.4901C43.0771 10.7884 43.1594 11.1761 43.1594 11.6534V16H41.9151V15.1051H41.864C41.7816 15.2699 41.658 15.4318 41.4933 15.5909C41.3285 15.75 41.1168 15.8821 40.8583 15.9872C40.5998 16.0923 40.2901 16.1449 39.9293 16.1449ZM40.2063 15.1222C40.5586 15.1222 40.8597 15.0526 41.1097 14.9134C41.3626 14.7741 41.5543 14.5923 41.685 14.3679C41.8185 14.1406 41.8853 13.8977 41.8853 13.6392V12.7955C41.8398 12.8409 41.7518 12.8835 41.6211 12.9233C41.4933 12.9602 41.3469 12.9929 41.1822 13.0213C41.0174 13.0469 40.8569 13.071 40.7006 13.0938C40.5444 13.1136 40.4137 13.1307 40.3086 13.1449C40.0614 13.1761 39.8356 13.2287 39.631 13.3026C39.4293 13.3764 39.2674 13.483 39.1452 13.6222C39.0259 13.7585 38.9663 13.9403 38.9663 14.1676C38.9663 14.483 39.0827 14.7216 39.3157 14.8835C39.5487 15.0426 39.8455 15.1222 40.2063 15.1222ZM47.9119 9.45455V10.4773H44.3366V9.45455H47.9119ZM45.2955 7.88636H46.5696V14.0781C46.5696 14.3253 46.6065 14.5114 46.6804 14.6364C46.7543 14.7585 46.8494 14.8423 46.9659 14.8878C47.0852 14.9304 47.2145 14.9517 47.3537 14.9517C47.456 14.9517 47.5455 14.9446 47.6222 14.9304C47.6989 14.9162 47.7585 14.9048 47.8011 14.8963L48.0312 15.9489C47.9574 15.9773 47.8523 16.0057 47.7159 16.0341C47.5795 16.0653 47.4091 16.0824 47.2045 16.0852C46.8693 16.0909 46.5568 16.0312 46.267 15.9062C45.9773 15.7812 45.7429 15.5881 45.5639 15.3267C45.3849 15.0653 45.2955 14.7372 45.2955 14.3423V7.88636ZM52.0721 16.1321C51.4272 16.1321 50.8718 15.9943 50.4059 15.7188C49.9428 15.4403 49.5849 15.0497 49.332 14.5469C49.082 14.0412 48.957 13.4489 48.957 12.7699C48.957 12.0994 49.082 11.5085 49.332 10.9972C49.5849 10.4858 49.9371 10.0866 50.3888 9.79972C50.8434 9.51278 51.3746 9.36932 51.9826 9.36932C52.3519 9.36932 52.7099 9.4304 53.0565 9.55256C53.4031 9.67472 53.7141 9.86648 53.9897 10.1278C54.2653 10.3892 54.4826 10.7287 54.6417 11.1463C54.8008 11.5611 54.8803 12.0653 54.8803 12.6591V13.1108H49.6772V12.1562H53.6317C53.6317 11.821 53.5636 11.5241 53.4272 11.2656C53.2908 11.0043 53.0991 10.7983 52.8519 10.6477C52.6076 10.4972 52.3207 10.4219 51.9911 10.4219C51.6332 10.4219 51.3207 10.5099 51.0536 10.6861C50.7894 10.8594 50.5849 11.0866 50.44 11.3679C50.2979 11.6463 50.2269 11.9489 50.2269 12.2756V13.0213C50.2269 13.4588 50.3036 13.831 50.457 14.1378C50.6133 14.4446 50.8306 14.679 51.109 14.8409C51.3874 15 51.7127 15.0795 52.0849 15.0795C52.3263 15.0795 52.5465 15.0455 52.7454 14.9773C52.9442 14.9062 53.1161 14.8011 53.261 14.6619C53.4059 14.5227 53.5167 14.3509 53.5934 14.1463L54.7994 14.3636C54.7028 14.7187 54.5295 15.0298 54.2795 15.2969C54.0323 15.5611 53.7212 15.767 53.3462 15.9148C52.9741 16.0597 52.5494 16.1321 52.0721 16.1321ZM58.7443 16.1278C58.2159 16.1278 57.7443 15.9929 57.3295 15.723C56.9176 15.4503 56.5938 15.0625 56.358 14.5597C56.125 14.054 56.0085 13.4474 56.0085 12.7401C56.0085 12.0327 56.1264 11.4276 56.3622 10.9247C56.6009 10.4219 56.9276 10.0369 57.3423 9.76989C57.7571 9.50284 58.2273 9.36932 58.7528 9.36932C59.1591 9.36932 59.4858 9.4375 59.733 9.57386C59.983 9.70739 60.1761 9.86364 60.3125 10.0426C60.4517 10.2216 60.5597 10.3793 60.6364 10.5156H60.7131V7.27273H61.9872V16H60.7429V14.9815H60.6364C60.5597 15.1207 60.4489 15.2798 60.304 15.4588C60.1619 15.6378 59.9659 15.794 59.7159 15.9276C59.4659 16.0611 59.142 16.1278 58.7443 16.1278ZM59.0256 15.0412C59.392 15.0412 59.7017 14.9446 59.9545 14.7514C60.2102 14.5554 60.4034 14.2841 60.5341 13.9375C60.6676 13.5909 60.7344 13.1875 60.7344 12.7273C60.7344 12.2727 60.669 11.875 60.5384 11.5341C60.4077 11.1932 60.2159 10.9276 59.9631 10.7372C59.7102 10.5469 59.3977 10.4517 59.0256 10.4517C58.642 10.4517 58.3224 10.5511 58.0668 10.75C57.8111 10.9489 57.6179 11.2202 57.4872 11.5639C57.3594 11.9077 57.2955 12.2955 57.2955 12.7273C57.2955 13.1648 57.3608 13.5582 57.4915 13.9077C57.6222 14.2571 57.8153 14.5341 58.071 14.7386C58.3295 14.9403 58.6477 15.0412 59.0256 15.0412Z" fill="#59FF00"/>
</svg>
