<svg width="128" height="131" viewBox="0 0 128 131" fill="none" xmlns="http://www.w3.org/2000/svg">
<rect x="0.25" y="0.25" width="127.5" height="130.5" rx="25.75" stroke="url(#paint0_linear_12_40)" stroke-width="0.5"/>
<g clip-path="url(#clip0_12_40)">
<rect x="6" y="6" width="116" height="119" rx="23" fill="url(#paint1_linear_12_40)"/>
<g filter="url(#filter0_f_12_40)">
<circle cx="64" cy="135" r="27" fill="white"/>
</g>
<g filter="url(#filter1_f_12_40)">
<circle cx="126" cy="19" r="22" fill="white"/>
</g>
<path d="M36.2972 90L35.3872 87.592H31.2292L30.3192 90H28.5832L32.3632 79.92H34.3792L38.1592 90H36.2972ZM34.8692 86.08L33.3012 81.908L31.7472 86.08H34.8692ZM46.0353 79.36V90H44.4253V88.81H44.3833C43.8933 89.65 42.9973 90.168 41.8633 90.168C39.8193 90.168 38.3353 88.656 38.3353 86.276C38.3353 83.938 39.8893 82.426 41.8773 82.426C42.9973 82.426 43.9073 82.916 44.3553 83.812H44.4113V79.36H46.0353ZM42.1713 84.134C40.9673 84.134 40.0293 85.044 40.0293 86.374C40.0293 87.76 40.9533 88.656 42.1713 88.656C43.4173 88.656 44.3693 87.746 44.3693 86.36C44.3693 85.016 43.4173 84.134 42.1713 84.134ZM54.8775 79.36V90H53.2675V88.81H53.2255C52.7355 89.65 51.8395 90.168 50.7055 90.168C48.6615 90.168 47.1775 88.656 47.1775 86.276C47.1775 83.938 48.7315 82.426 50.7195 82.426C51.8395 82.426 52.7495 82.916 53.1975 83.812H53.2535V79.36H54.8775ZM51.0135 84.134C49.8095 84.134 48.8715 85.044 48.8715 86.374C48.8715 87.76 49.7955 88.656 51.0135 88.656C52.2595 88.656 53.2115 87.746 53.2115 86.36C53.2115 85.016 52.2595 84.134 51.0135 84.134ZM61.8973 86.654H61.2113V90H59.5173V79.92H61.9533C64.4313 79.92 66.0833 80.942 66.0833 83.238C66.0833 85.604 64.3473 86.654 61.8973 86.654ZM62.0793 81.67H61.2113V85.142H61.9673C63.4653 85.142 64.3473 84.596 64.3473 83.364C64.3473 82.202 63.4933 81.67 62.0793 81.67ZM71.3091 85.128C71.3091 84.54 70.8331 84.134 69.7271 84.134C68.8311 84.134 67.9911 84.386 67.3891 84.68L67.2631 83.042C67.9071 82.692 68.8311 82.426 69.8951 82.426C72.1211 82.426 73.0171 83.504 73.0171 85.282V90H71.3511V88.95C70.8191 89.65 70.1471 90.168 68.9711 90.168C67.7111 90.168 66.7731 89.496 66.7731 88.25C66.7731 86.738 67.8791 86.234 69.6431 85.94C70.3151 85.828 70.7211 85.73 71.0431 85.576C71.2671 85.478 71.3091 85.352 71.3091 85.128ZM71.3511 86.472C71.0711 86.64 70.5531 86.808 69.9371 86.92C68.9851 87.102 68.4811 87.34 68.4811 88.082C68.4811 88.726 69.0131 89.034 69.6711 89.034C70.5111 89.034 71.0991 88.502 71.3511 87.9V86.472ZM74.3546 90V82.594H75.9506V83.728H75.9926C76.3846 82.874 77.2666 82.426 78.5126 82.426L78.4146 84.302C76.6366 84.26 75.9786 85.072 75.9786 86.752V90H74.3546ZM85.222 89.79C84.564 90.056 83.808 90.168 83.024 90.168C80.42 90.168 78.824 88.726 78.824 86.262C78.824 84.064 80.21 82.426 82.38 82.426C84.662 82.426 85.712 84.274 85.712 86.094C85.712 86.36 85.698 86.654 85.67 86.85H80.616C80.812 88.068 81.764 88.796 83.276 88.796C83.962 88.796 84.55 88.684 85.082 88.474L85.222 89.79ZM82.394 83.994C81.47 83.994 80.7 84.568 80.546 85.786H84.186C84.102 84.792 83.444 83.994 82.394 83.994ZM86.83 90V82.594H88.426V83.714H88.468C88.902 82.944 89.658 82.426 90.792 82.426C92.724 82.426 93.592 83.728 93.592 85.52V90H91.968V86.192C91.968 85.016 91.464 84.162 90.232 84.162C89.042 84.162 88.454 84.988 88.454 86.262V90H86.83ZM95.4636 87.536V84.176H94.2176V82.594H95.5616L95.7576 80.676H97.0876V82.594H99.1456V84.176H97.0876V87.438C97.0876 88.334 97.5356 88.656 98.2076 88.656C98.5856 88.656 98.8796 88.6 99.1456 88.516L99.2716 89.972C98.9356 90.098 98.4176 90.168 97.9276 90.168C96.1216 90.168 95.4636 89.146 95.4636 87.536Z" fill="black"/>
<path d="M41 6L1 54" stroke="white" stroke-opacity="0.21" stroke-dasharray="14 14"/>
<path d="M50 5L5 59" stroke="white" stroke-opacity="0.21" stroke-dasharray="14 14"/>
<path d="M40 -1L-5 53" stroke="white" stroke-opacity="0.21" stroke-dasharray="14 14"/>
<path d="M38 -8L-7 46" stroke="white" stroke-opacity="0.21" stroke-dasharray="14 14"/>
<path d="M64 59.5H54V56.7C56.599 55.253 59.5253 54.4956 62.5 54.5C64.237 54.5 65.916 54.753 67.5 55.225" stroke="black" stroke-width="1.5"/>
<path d="M58.5 47.25C58.5 48.3772 58.9478 49.4582 59.7448 50.2552C60.5418 51.0522 61.6228 51.5 62.75 51.5C63.8772 51.5 64.9582 51.0522 65.7552 50.2552C66.5522 49.4582 67 48.3772 67 47.25C67 46.1228 66.5522 45.0418 65.7552 44.2448C64.9582 43.4478 63.8772 43 62.75 43C61.6228 43 60.5418 43.4478 59.7448 44.2448C58.9478 45.0418 58.5 46.1228 58.5 47.25Z" stroke="black" stroke-width="1.5"/>
<path d="M75 59.5H66M70.5 55V64" stroke="black" stroke-width="1.5"/>
</g>
<defs>
<filter id="filter0_f_12_40" x="-8" y="63" width="144" height="144" filterUnits="userSpaceOnUse" color-interpolation-filters="sRGB">
<feFlood flood-opacity="0" result="BackgroundImageFix"/>
<feBlend mode="normal" in="SourceGraphic" in2="BackgroundImageFix" result="shape"/>
<feGaussianBlur stdDeviation="22.5" result="effect1_foregroundBlur_12_40"/>
</filter>
<filter id="filter1_f_12_40" x="59" y="-48" width="134" height="134" filterUnits="userSpaceOnUse" color-interpolation-filters="sRGB">
<feFlood flood-opacity="0" result="BackgroundImageFix"/>
<feBlend mode="normal" in="SourceGraphic" in2="BackgroundImageFix" result="shape"/>
<feGaussianBlur stdDeviation="22.5" result="effect1_foregroundBlur_12_40"/>
</filter>
<linearGradient id="paint0_linear_12_40" x1="-2.29603e-06" y1="131" x2="142.658" y2="25.5473" gradientUnits="userSpaceOnUse">
<stop stop-color="#E9866E"/>
<stop offset="0.515" stop-color="#959189"/>
<stop offset="1" stop-color="#4A9CA5"/>
</linearGradient>
<linearGradient id="paint1_linear_12_40" x1="6" y1="125" x2="135.5" y2="29.5" gradientUnits="userSpaceOnUse">
<stop stop-color="#E9866E"/>
<stop offset="0.515" stop-color="#959189"/>
<stop offset="1" stop-color="#4A9CA5"/>
</linearGradient>
<clipPath id="clip0_12_40">
<rect x="6" y="6" width="116" height="119" rx="23" fill="white"/>
</clipPath>
</defs>
</svg>
