<svg width="10" height="16" viewBox="0 0 10 16" fill="none" xmlns="http://www.w3.org/2000/svg">
<path d="M0.375 8.1543C0.375 8.00195 0.401367 7.86133 0.454102 7.73242C0.512695 7.60352 0.600586 7.48047 0.717773 7.36328L7.56445 0.666016C7.76367 0.472656 8.00391 0.375977 8.28516 0.375977C8.47852 0.375977 8.65137 0.422852 8.80371 0.516602C8.96191 0.604492 9.08789 0.724609 9.18164 0.876953C9.27539 1.0293 9.32227 1.20215 9.32227 1.39551C9.32227 1.6709 9.21387 1.91699 8.99707 2.13379L2.82715 8.1543L8.99707 14.1748C9.21387 14.3916 9.32227 14.6406 9.32227 14.9219C9.32227 15.1094 9.27539 15.2793 9.18164 15.4316C9.08789 15.5898 8.96191 15.7129 8.80371 15.8008C8.65137 15.8945 8.47852 15.9414 8.28516 15.9414C8.00391 15.9414 7.76367 15.8418 7.56445 15.6426L0.717773 8.94531C0.600586 8.82812 0.512695 8.70508 0.454102 8.57617C0.401367 8.44727 0.375 8.30664 0.375 8.1543Z" fill="white" fill-opacity="0.6"/>
</svg>
