<svg width="64" height="64" viewBox="0 0 64 64" fill="none" xmlns="http://www.w3.org/2000/svg">
<g filter="url(#filter0_ddd_1_364)">
<rect x="10" width="44" height="44" rx="22" fill="url(#paint0_linear_1_364)" style="mix-blend-mode:overlay" shape-rendering="crispEdges"/>
<rect x="10.5" y="0.5" width="43" height="43" rx="21.5" stroke="white" style="mix-blend-mode:overlay" shape-rendering="crispEdges"/>
<path d="M26.375 23.1543C26.375 23.002 26.4014 22.8613 26.4541 22.7324C26.5127 22.6035 26.6006 22.4805 26.7178 22.3633L33.5645 15.666C33.7637 15.4727 34.0039 15.376 34.2852 15.376C34.4785 15.376 34.6514 15.4229 34.8037 15.5166C34.9619 15.6045 35.0879 15.7246 35.1816 15.877C35.2754 16.0293 35.3223 16.2021 35.3223 16.3955C35.3223 16.6709 35.2139 16.917 34.9971 17.1338L28.8271 23.1543L34.9971 29.1748C35.2139 29.3916 35.3223 29.6406 35.3223 29.9219C35.3223 30.1094 35.2754 30.2793 35.1816 30.4316C35.0879 30.5898 34.9619 30.7129 34.8037 30.8008C34.6514 30.8945 34.4785 30.9414 34.2852 30.9414C34.0039 30.9414 33.7637 30.8418 33.5645 30.6426L26.7178 23.9453C26.6006 23.8281 26.5127 23.7051 26.4541 23.5762C26.4014 23.4473 26.375 23.3066 26.375 23.1543Z" fill="white" fill-opacity="0.6"/>
</g>
<defs>
<filter id="filter0_ddd_1_364" x="-10" y="-20" width="84" height="84" filterUnits="userSpaceOnUse" color-interpolation-filters="sRGB">
<feFlood flood-opacity="0" result="BackgroundImageFix"/>
<feColorMatrix in="SourceAlpha" type="matrix" values="0 0 0 0 0 0 0 0 0 0 0 0 0 0 0 0 0 0 127 0" result="hardAlpha"/>
<feOffset dy="10"/>
<feGaussianBlur stdDeviation="5"/>
<feComposite in2="hardAlpha" operator="out"/>
<feColorMatrix type="matrix" values="0 0 0 0 0 0 0 0 0 0 0 0 0 0 0 0 0 0 0.1 0"/>
<feBlend mode="normal" in2="BackgroundImageFix" result="effect1_dropShadow_1_364"/>
<feColorMatrix in="SourceAlpha" type="matrix" values="0 0 0 0 0 0 0 0 0 0 0 0 0 0 0 0 0 0 127 0" result="hardAlpha"/>
<feOffset dy="4"/>
<feGaussianBlur stdDeviation="2"/>
<feComposite in2="hardAlpha" operator="out"/>
<feColorMatrix type="matrix" values="0 0 0 0 0 0 0 0 0 0 0 0 0 0 0 0 0 0 0.05 0"/>
<feBlend mode="normal" in2="effect1_dropShadow_1_364" result="effect2_dropShadow_1_364"/>
<feColorMatrix in="SourceAlpha" type="matrix" values="0 0 0 0 0 0 0 0 0 0 0 0 0 0 0 0 0 0 127 0" result="hardAlpha"/>
<feOffset dy="1"/>
<feComposite in2="hardAlpha" operator="out"/>
<feColorMatrix type="matrix" values="0 0 0 0 0 0 0 0 0 0 0 0 0 0 0 0 0 0 0.05 0"/>
<feBlend mode="normal" in2="effect2_dropShadow_1_364" result="effect3_dropShadow_1_364"/>
<feBlend mode="normal" in="SourceGraphic" in2="effect3_dropShadow_1_364" result="shape"/>
</filter>
<linearGradient id="paint0_linear_1_364" x1="32" y1="0" x2="32" y2="44" gradientUnits="userSpaceOnUse">
<stop stop-color="white" stop-opacity="0.5"/>
<stop offset="1" stop-color="white"/>
</linearGradient>
</defs>
</svg>
