<svg width="28" height="29" viewBox="0 0 28 29" fill="none" xmlns="http://www.w3.org/2000/svg">
<circle cx="14" cy="14.592" r="13.75" fill="url(#paint0_linear_29_106)" stroke="white" stroke-width="0.5"/>
<path d="M13.8602 16.0654L11.6802 18.2454C11.4402 18.0321 11.2068 17.8121 10.9802 17.5854C10.2935 16.8921 9.6735 16.1654 9.12016 15.4054C8.5735 14.6454 8.1335 13.8854 7.8135 13.1321C7.4935 12.3721 7.3335 11.6454 7.3335 10.9521C7.3335 10.4987 7.4135 10.0654 7.5735 9.66542C7.7335 9.25875 7.98683 8.88542 8.34016 8.55208C8.76683 8.13208 9.2335 7.92542 9.72683 7.92542C9.9135 7.92542 10.1002 7.96542 10.2668 8.04542C10.4402 8.12542 10.5935 8.24542 10.7135 8.41875L12.2602 10.5987C12.3802 10.7654 12.4668 10.9187 12.5268 11.0654C12.5868 11.2054 12.6202 11.3454 12.6202 11.4721C12.6202 11.6321 12.5735 11.7921 12.4802 11.9454C12.3935 12.0987 12.2668 12.2587 12.1068 12.4187L11.6002 12.9454C11.5268 13.0187 11.4935 13.1054 11.4935 13.2121C11.4935 13.2654 11.5002 13.3121 11.5135 13.3654C11.5335 13.4187 11.5535 13.4587 11.5668 13.4987C11.6868 13.7187 11.8935 14.0054 12.1868 14.3521C12.4868 14.6987 12.8068 15.0521 13.1535 15.4054C13.3935 15.6387 13.6268 15.8654 13.8602 16.0654Z" fill="white"/>
<path d="M20.6466 18.812C20.6466 18.9987 20.6132 19.192 20.5466 19.3787C20.5266 19.432 20.5066 19.4854 20.4799 19.5387C20.3666 19.7787 20.2199 20.0054 20.0266 20.2187C19.6999 20.5787 19.3399 20.8387 18.9332 21.0054C18.9266 21.0054 18.9199 21.012 18.9132 21.012C18.5199 21.172 18.0932 21.2587 17.6332 21.2587C16.9532 21.2587 16.2266 21.0987 15.4599 20.772C14.6932 20.4454 13.9266 20.0054 13.1666 19.452C12.9066 19.2587 12.6466 19.0654 12.3999 18.8587L14.5799 16.6787C14.7666 16.8187 14.9332 16.9254 15.0732 16.9987C15.1066 17.012 15.1466 17.032 15.1932 17.052C15.2466 17.072 15.2999 17.0787 15.3599 17.0787C15.4732 17.0787 15.5599 17.0387 15.6332 16.9654L16.1399 16.4654C16.3066 16.2987 16.4666 16.172 16.6199 16.092C16.7732 15.9987 16.9266 15.952 17.0932 15.952C17.2199 15.952 17.3532 15.9787 17.4999 16.0387C17.6466 16.0987 17.7999 16.1854 17.9666 16.2987L20.1732 17.8654C20.3466 17.9854 20.4666 18.1254 20.5399 18.292C20.6066 18.4587 20.6466 18.6254 20.6466 18.812Z" fill="white"/>
<defs>
<linearGradient id="paint0_linear_29_106" x1="-5.02257e-07" y1="28.592" x2="30.6922" y2="5.37269" gradientUnits="userSpaceOnUse">
<stop stop-color="#E9866E"/>
<stop offset="0.515" stop-color="#959189"/>
<stop offset="1" stop-color="#4A9CA5"/>
</linearGradient>
</defs>
</svg>
