<svg width="430" height="49" viewBox="0 0 430 49" fill="none" xmlns="http://www.w3.org/2000/svg">
<path d="M334 25L483 25" stroke="url(#paint0_linear_11_6)" stroke-width="1.5"/>
<rect x="97.25" y="2.25" width="234.5" height="44.5" rx="22.25" stroke="#353536" stroke-width="0.5"/>
<rect x="95.25" y="0.25" width="238.5" height="48.5" rx="24.25" stroke="#353536" stroke-width="0.5"/>
<rect x="99" y="4" width="231" height="41" rx="20.5" fill="#1D1D1F"/>
<path d="M132.95 29V17.368H137.03C140.71 17.368 142.678 19.512 142.678 23.176C142.678 26.808 140.71 29 137.046 29H132.95ZM136.742 18.472H134.71V27.896H136.758C139.558 27.896 140.838 26.024 140.838 23.176C140.838 20.328 139.542 18.472 136.742 18.472ZM150.524 29L150.22 27.592C149.772 28.52 148.636 29.16 147.116 29.16C145.324 29.16 144.012 28.392 144.012 26.712C144.012 25.88 144.38 25.256 145.004 24.84C145.804 24.248 146.812 24.072 148.636 24.072C149.18 24.072 149.756 24.088 150.204 24.12V23.368C150.204 22.072 149.404 21.336 148.124 21.336C146.86 21.336 146.028 21.96 146.028 23.24H144.46V23.064C144.46 21.416 145.932 20.44 148.124 20.44C150.172 20.44 151.804 21.448 151.804 23.512V29H150.524ZM145.644 26.632C145.644 27.672 146.412 28.184 147.596 28.184C149.132 28.184 150.204 27.096 150.204 25.624V24.968C149.98 24.952 149.612 24.952 149.324 24.952C147.996 24.952 146.764 25.016 146.14 25.56C145.836 25.816 145.644 26.168 145.644 26.632ZM157.421 28.28C158.477 28.28 159.437 27.848 159.437 26.776C159.437 25.704 158.029 25.544 156.973 25.32C155.341 24.984 153.821 24.52 153.821 22.904C153.821 21.224 155.597 20.424 157.277 20.424C159.165 20.424 160.941 21.208 160.941 22.92V23.08H159.373C159.373 21.896 158.461 21.304 157.261 21.304C156.333 21.304 155.389 21.8 155.389 22.712C155.389 23.704 156.381 23.88 157.661 24.168C158.973 24.456 161.053 24.696 161.053 26.584C161.053 28.408 159.213 29.16 157.405 29.16C155.405 29.16 153.677 28.328 153.677 26.392V26.2H155.261C155.261 27.544 156.109 28.28 157.421 28.28ZM164.623 24.328V29H163.023V16.728H164.623V22.04C165.103 21.144 166.191 20.44 167.551 20.44C169.791 20.44 171.167 21.864 171.167 24.136V29H169.567V24.264C169.567 22.6 168.703 21.528 167.103 21.528C165.647 21.528 164.623 22.76 164.623 24.328ZM182.265 24.76C182.265 27.256 180.681 29.16 178.201 29.16C176.745 29.16 175.705 28.472 175.129 27.56L174.889 29H173.529V16.728H175.129V21.944C175.737 21.08 176.905 20.44 178.217 20.44C180.713 20.44 182.265 22.248 182.265 24.76ZM177.881 21.416C176.137 21.416 175.145 22.92 175.145 24.776C175.145 26.648 176.089 28.136 177.881 28.136C179.657 28.136 180.617 26.584 180.617 24.76C180.617 22.952 179.689 21.416 177.881 21.416ZM192.258 24.808C192.258 27.432 190.434 29.16 187.842 29.16C185.25 29.16 183.426 27.448 183.426 24.808C183.426 22.216 185.25 20.44 187.842 20.44C190.418 20.44 192.258 22.216 192.258 24.808ZM185.074 24.808C185.074 26.712 185.954 28.264 187.842 28.264C189.714 28.264 190.61 26.696 190.61 24.808C190.61 22.952 189.714 21.336 187.842 21.336C186.002 21.336 185.074 22.952 185.074 24.808ZM200.024 29L199.72 27.592C199.272 28.52 198.136 29.16 196.616 29.16C194.824 29.16 193.512 28.392 193.512 26.712C193.512 25.88 193.88 25.256 194.504 24.84C195.304 24.248 196.312 24.072 198.136 24.072C198.68 24.072 199.256 24.088 199.704 24.12V23.368C199.704 22.072 198.904 21.336 197.624 21.336C196.36 21.336 195.528 21.96 195.528 23.24H193.96V23.064C193.96 21.416 195.432 20.44 197.624 20.44C199.672 20.44 201.304 21.448 201.304 23.512V29H200.024ZM195.144 26.632C195.144 27.672 195.912 28.184 197.096 28.184C198.632 28.184 199.704 27.096 199.704 25.624V24.968C199.48 24.952 199.112 24.952 198.824 24.952C197.496 24.952 196.264 25.016 195.64 25.56C195.336 25.816 195.144 26.168 195.144 26.632ZM208.617 20.536V21.816C208.377 21.752 208.089 21.72 207.817 21.72C207.209 21.72 206.537 21.864 206.041 22.312C205.545 22.76 205.193 23.48 205.193 24.6V29H203.593V20.6H204.937L205.177 22.248C205.593 20.888 206.665 20.44 207.753 20.44C208.089 20.44 208.393 20.472 208.617 20.536ZM216.758 29L216.502 27.496C215.974 28.424 214.838 29.16 213.382 29.16C210.854 29.16 209.382 27.336 209.382 24.808C209.382 22.376 210.982 20.44 213.414 20.44C214.838 20.44 215.942 21.096 216.502 21.976V16.728H218.102V29H216.758ZM211.03 24.776C211.03 26.6 211.942 28.152 213.766 28.152C215.526 28.152 216.502 26.568 216.502 24.776C216.502 23 215.542 21.416 213.766 21.416C211.958 21.416 211.03 22.984 211.03 24.776ZM235.197 23.192C235.197 26.6 233.277 29.192 229.789 29.192C226.317 29.192 224.397 26.6 224.397 23.192C224.397 19.8 226.317 17.208 229.789 17.208C233.277 17.208 235.197 19.8 235.197 23.192ZM226.253 23.192C226.253 25.688 227.277 28.072 229.789 28.072C232.317 28.072 233.341 25.688 233.341 23.192C233.341 20.696 232.317 18.328 229.789 18.328C227.277 18.328 226.253 20.696 226.253 23.192ZM244.672 20.6L241.104 29H239.632L236.064 20.6H237.808L240.672 27.48L243.6 20.6H244.672ZM253.336 26.216C253.336 28.232 251.432 29.16 249.416 29.16C246.744 29.16 245.064 27.496 245.064 24.824C245.064 22.232 246.744 20.44 249.336 20.44C251.864 20.44 253.448 21.944 253.448 24.472C253.448 24.712 253.448 24.888 253.416 25.176H246.712C246.808 26.872 247.688 28.264 249.416 28.264C250.76 28.264 251.72 27.56 251.72 26.216H253.336ZM249.336 21.336C247.688 21.336 246.856 22.664 246.728 24.296H251.864C251.864 22.568 251.064 21.336 249.336 21.336ZM260.217 20.536V21.816C259.977 21.752 259.689 21.72 259.417 21.72C258.809 21.72 258.137 21.864 257.641 22.312C257.145 22.76 256.793 23.48 256.793 24.6V29H255.193V20.6H256.537L256.777 22.248C257.193 20.888 258.265 20.44 259.353 20.44C259.689 20.44 259.993 20.472 260.217 20.536ZM269.519 20.6L265.951 29H264.479L260.911 20.6H262.655L265.519 27.48L268.447 20.6H269.519ZM273.054 17.64C273.054 18.248 272.574 18.712 271.982 18.712C271.39 18.712 270.926 18.248 270.926 17.64C270.926 17.048 271.39 16.6 271.982 16.6C272.574 16.6 273.054 17.048 273.054 17.64ZM271.198 29V20.6H272.798V29H271.198ZM283.111 26.216C283.111 28.232 281.207 29.16 279.191 29.16C276.519 29.16 274.839 27.496 274.839 24.824C274.839 22.232 276.519 20.44 279.111 20.44C281.639 20.44 283.223 21.944 283.223 24.472C283.223 24.712 283.223 24.888 283.191 25.176H276.487C276.583 26.872 277.463 28.264 279.191 28.264C280.535 28.264 281.495 27.56 281.495 26.216H283.111ZM279.111 21.336C277.463 21.336 276.631 22.664 276.503 24.296H281.639C281.639 22.568 280.839 21.336 279.111 21.336ZM285.657 20.6L287.705 27.464L290.121 20.6H291.769L294.153 27.512L296.233 20.6H297.241L294.729 29H293.049L290.633 22.152L288.233 29H286.553L283.993 20.6H285.657Z" fill="#EA8D77"/>
<path d="M95 24L-72 24" stroke="url(#paint1_linear_11_6)" stroke-width="1.5"/>
<defs>
<linearGradient id="paint0_linear_11_6" x1="503.563" y1="25" x2="334.068" y2="25" gradientUnits="userSpaceOnUse">
<stop offset="0.13375" stop-color="white" stop-opacity="0"/>
<stop offset="0.988059" stop-color="white"/>
</linearGradient>
<linearGradient id="paint1_linear_11_6" x1="-95.0471" y1="24" x2="94.924" y2="24" gradientUnits="userSpaceOnUse">
<stop offset="0.13375" stop-color="white" stop-opacity="0"/>
<stop offset="0.988059" stop-color="white"/>
</linearGradient>
</defs>
</svg>
