<svg width="28" height="29" viewBox="0 0 28 29" fill="none" xmlns="http://www.w3.org/2000/svg">
<circle cx="14" cy="14.0133" r="13.75" fill="url(#paint0_linear_29_107)" stroke="white" stroke-width="0.5"/>
<path d="M11.331 13.4948L6.0495 19.4278C6.03597 19.3681 6.01562 19.3103 6.01562 19.2449V8.78173C6.01562 8.70232 6.03781 8.63057 6.058 8.55848L11.331 13.4948ZM21.4371 8.06094C21.3984 8.05229 21.3613 8.03357 21.3187 8.03357H6.68184C6.64131 8.03357 6.60509 8.05229 6.56406 8.06094L14.0003 15.0214L21.4371 8.06094ZM14.2128 15.7952C14.1517 15.8536 14.0761 15.882 14.0003 15.882C13.9247 15.882 13.849 15.8536 13.7886 15.7952L11.8446 13.9759L6.5205 19.9553C6.57356 19.9717 6.62563 19.9931 6.68184 19.9931H21.3187C21.3777 19.9931 21.4291 19.9717 21.4825 19.9553L16.1588 13.9759L14.2128 15.7952ZM16.6717 13.4948L21.9523 19.4271C21.9667 19.3674 21.9843 19.3097 21.9843 19.2449V8.78173C21.9843 8.70363 21.965 8.63057 21.945 8.55882L16.6717 13.4948Z" fill="white"/>
<defs>
<linearGradient id="paint0_linear_29_107" x1="-5.02257e-07" y1="28.0133" x2="30.6922" y2="4.79395" gradientUnits="userSpaceOnUse">
<stop stop-color="#E9866E"/>
<stop offset="0.515" stop-color="#959189"/>
<stop offset="1" stop-color="#4A9CA5"/>
</linearGradient>
</defs>
</svg>
