<svg width="267" height="44" viewBox="0 0 267 44" fill="none" xmlns="http://www.w3.org/2000/svg">
<g clip-path="url(#clip0_1_599)">
<rect x="0.48291" width="265.848" height="43.18" rx="21.59" fill="url(#paint0_linear_1_599)"/>
<g filter="url(#filter0_f_1_599)">
<ellipse cx="133.483" cy="60" rx="63" ry="25" fill="white"/>
</g>
<path d="M115.825 23.856C115.292 24.415 114.031 25.156 112.224 25.156C109.208 25.156 107.557 23.193 107.557 20.229C107.557 17.447 109.104 15.419 111.938 15.419C113.875 15.419 115.656 16.42 115.656 18.227V18.318H114.148C114.148 17.057 113.16 16.316 111.873 16.316C109.897 16.316 109.065 18.214 109.052 20.151C109.052 22.452 109.988 24.22 112.302 24.246C113.16 24.246 113.914 23.986 114.408 23.609V21.1H112.198V20.216H115.825V23.856ZM124.246 21.594C124.246 23.726 122.764 25.13 120.658 25.13C118.552 25.13 117.07 23.739 117.07 21.594C117.07 19.488 118.552 18.045 120.658 18.045C122.751 18.045 124.246 19.488 124.246 21.594ZM118.409 21.594C118.409 23.141 119.124 24.402 120.658 24.402C122.179 24.402 122.907 23.128 122.907 21.594C122.907 20.086 122.179 18.773 120.658 18.773C119.163 18.773 118.409 20.086 118.409 21.594ZM136.448 22.361C136.448 24.168 135.031 25 133.159 25H129.467V15.549H133.237C134.914 15.549 136.162 16.329 136.149 17.902C136.149 18.994 135.421 19.735 134.368 20.073C135.538 20.281 136.448 21.048 136.448 22.361ZM130.884 16.433V19.683H132.873C134.017 19.683 134.758 19.085 134.758 18.058C134.758 16.992 134.069 16.433 132.99 16.433H130.884ZM130.884 24.116H132.899C134.069 24.116 135.044 23.648 135.044 22.335C135.044 21.165 134.16 20.567 132.964 20.567H130.884V24.116ZM142.808 25L142.561 23.856C142.197 24.61 141.274 25.13 140.039 25.13C138.583 25.13 137.517 24.506 137.517 23.141C137.517 22.465 137.816 21.958 138.323 21.62C138.973 21.139 139.792 20.996 141.274 20.996C141.716 20.996 142.184 21.009 142.548 21.035V20.424C142.548 19.371 141.898 18.773 140.858 18.773C139.831 18.773 139.155 19.28 139.155 20.32H137.881V20.177C137.881 18.838 139.077 18.045 140.858 18.045C142.522 18.045 143.848 18.864 143.848 20.541V25H142.808ZM138.843 23.076C138.843 23.921 139.467 24.337 140.429 24.337C141.677 24.337 142.548 23.453 142.548 22.257V21.724C142.366 21.711 142.067 21.711 141.833 21.711C140.754 21.711 139.753 21.763 139.246 22.205C138.999 22.413 138.843 22.699 138.843 23.076ZM151.847 22.556C151.847 24.194 150.391 25.13 148.649 25.13C146.517 25.13 145.165 23.752 145.165 21.62C145.165 19.527 146.556 18.045 148.649 18.045C150.339 18.045 151.873 18.955 151.873 20.541V20.658H150.547C150.547 19.553 149.754 18.773 148.649 18.773C147.154 18.773 146.504 20.125 146.504 21.62C146.504 23.128 147.141 24.363 148.649 24.363C149.806 24.363 150.521 23.609 150.521 22.452H151.847V22.556ZM158.47 25L156.065 21.464L154.583 22.79V25H153.283V15.029H154.583V21.711L158.509 18.175H159.692L157.053 20.554L160.004 25H158.47Z" fill="black"/>
</g>
<defs>
<filter id="filter0_f_1_599" x="37.4829" y="2" width="192" height="116" filterUnits="userSpaceOnUse" color-interpolation-filters="sRGB">
<feFlood flood-opacity="0" result="BackgroundImageFix"/>
<feBlend mode="normal" in="SourceGraphic" in2="BackgroundImageFix" result="shape"/>
<feGaussianBlur stdDeviation="16.5" result="effect1_foregroundBlur_1_599"/>
</filter>
<linearGradient id="paint0_linear_1_599" x1="0.482905" y1="43.18" x2="20.6726" y2="-50.8576" gradientUnits="userSpaceOnUse">
<stop stop-color="#E9866E"/>
<stop offset="0.515" stop-color="#959189"/>
<stop offset="1" stop-color="#4A9CA5"/>
</linearGradient>
<clipPath id="clip0_1_599">
<rect x="0.48291" width="265.848" height="43.18" rx="21.59" fill="white"/>
</clipPath>
</defs>
</svg>
