<svg width="28" height="29" viewBox="0 0 28 29" fill="none" xmlns="http://www.w3.org/2000/svg">
<circle cx="14" cy="14.0133" r="13.75" fill="url(#paint0_linear_29_108)" stroke="white" stroke-width="0.5"/>
<g clip-path="url(#clip0_29_108)">
<path d="M21.5 20.0133C21.5 21.3883 20.375 22.5133 19 22.5133H9C7.625 22.5133 6.5 21.3883 6.5 20.0133V10.0133C6.5 8.63831 7.625 7.51331 9 7.51331H19C20.375 7.51331 21.5 8.63831 21.5 10.0133V20.0133Z" fill="white"/>
<path d="M18.05 12.2383C17.925 11.9633 17.75 11.6883 17.525 11.4633C17.3 11.2383 17.025 11.0633 16.725 10.9383C16.425 10.8383 16.075 10.7633 15.75 10.7633H13.25V19.2633H15.75C16.075 19.2633 16.425 19.1883 16.725 19.0633C17.025 18.9383 17.3 18.7633 17.525 18.5383C17.75 18.3133 17.925 18.0633 18.05 17.7633C18.175 17.4633 18.25 17.1633 18.25 16.8383V13.1633C18.25 12.8383 18.175 12.5383 18.05 12.2383ZM15.75 18.1633H14.4V11.8633H15.75C16.5 11.8633 17.1 12.4383 17.1 13.1633V16.8633C17.1 17.5633 16.5 18.1633 15.75 18.1633Z" fill="black"/>
<path d="M10.75 10.7633H11.75V19.2633H10.75V10.7633Z" fill="black"/>
</g>
<defs>
<linearGradient id="paint0_linear_29_108" x1="-5.02257e-07" y1="28.0133" x2="30.6922" y2="4.79395" gradientUnits="userSpaceOnUse">
<stop stop-color="#E9866E"/>
<stop offset="0.515" stop-color="#959189"/>
<stop offset="1" stop-color="#4A9CA5"/>
</linearGradient>
<clipPath id="clip0_29_108">
<rect width="16" height="16" fill="white" transform="translate(6 7.01331)"/>
</clipPath>
</defs>
</svg>
