<svg width="158" height="27" viewBox="0 0 158 27" fill="none" xmlns="http://www.w3.org/2000/svg">
<rect x="0.25" y="0.25" width="157.5" height="26.5" rx="13.25" fill="#919191" fill-opacity="0.1" stroke="#1D9C39" stroke-width="0.5"/>
<path d="M12.7173 17V9.72727H14.0348V13.0689H14.1236L16.9609 9.72727H18.5696L15.7571 12.9908L18.5945 17H17.0107L14.8409 13.8821L14.0348 14.8338V17H12.7173ZM21.4425 17.1065C20.8956 17.1065 20.4233 16.9929 20.0256 16.7656C19.6302 16.536 19.326 16.2116 19.1129 15.7926C18.8999 15.3712 18.7933 14.8752 18.7933 14.3047C18.7933 13.7436 18.8999 13.2512 19.1129 12.8274C19.3284 12.4013 19.629 12.0698 20.0149 11.8331C20.4008 11.594 20.8542 11.4744 21.375 11.4744C21.7112 11.4744 22.0284 11.5289 22.3267 11.6378C22.6274 11.7443 22.8925 11.91 23.1222 12.1349C23.3542 12.3598 23.5365 12.6463 23.669 12.9943C23.8016 13.34 23.8679 13.7519 23.8679 14.2301V14.6243H19.397V13.7578H22.6357C22.6333 13.5116 22.58 13.2926 22.4759 13.1009C22.3717 12.9067 22.2261 12.754 22.0391 12.6428C21.8544 12.5315 21.639 12.4759 21.3928 12.4759C21.13 12.4759 20.8991 12.5398 20.7003 12.6676C20.5014 12.7931 20.3464 12.9588 20.2351 13.1648C20.1262 13.3684 20.0705 13.5921 20.0682 13.8359V14.5923C20.0682 14.9096 20.1262 15.1818 20.2422 15.4091C20.3582 15.634 20.5204 15.8068 20.7287 15.9276C20.937 16.0459 21.1809 16.1051 21.4602 16.1051C21.6473 16.1051 21.8165 16.0791 21.968 16.027C22.1196 15.9725 22.2509 15.8932 22.3622 15.7891C22.4735 15.6849 22.5575 15.5559 22.6143 15.402L23.8146 15.5369C23.7389 15.8542 23.5945 16.1312 23.3814 16.3679C23.1707 16.6023 22.9008 16.7846 22.5717 16.9148C22.2427 17.0426 21.8662 17.1065 21.4425 17.1065ZM25.5982 19.0455C25.423 19.0455 25.2608 19.0313 25.1117 19.0028C24.9649 18.9768 24.8477 18.946 24.7601 18.9105L25.0584 17.9091C25.2454 17.9635 25.4123 17.9896 25.5591 17.9872C25.7059 17.9848 25.8349 17.9387 25.9462 17.8487C26.0598 17.7611 26.1557 17.6143 26.2338 17.4084L26.3439 17.1136L24.3659 11.5455H25.7296L26.9867 15.6648H27.0435L28.3042 11.5455H29.6713L27.4874 17.6605C27.3856 17.9493 27.2507 18.1967 27.0826 18.4027C26.9145 18.611 26.7085 18.7696 26.4647 18.8786C26.2232 18.9898 25.9344 19.0455 25.5982 19.0455ZM32.7475 19.1591C32.2859 19.1591 31.8893 19.0964 31.5579 18.9709C31.2264 18.8478 30.9601 18.6821 30.7589 18.4737C30.5576 18.2654 30.418 18.0346 30.3398 17.7812L31.4975 17.5007C31.5496 17.6072 31.6254 17.7126 31.7248 17.8168C31.8242 17.9233 31.958 18.0109 32.1261 18.0795C32.2965 18.1506 32.5108 18.1861 32.7688 18.1861C33.1334 18.1861 33.4353 18.0973 33.6744 17.9197C33.9135 17.7446 34.033 17.4557 34.033 17.0533V16.0199H33.9691C33.9028 16.1525 33.8058 16.2886 33.6779 16.4283C33.5524 16.5679 33.3855 16.6851 33.1772 16.7798C32.9712 16.8745 32.712 16.9219 32.3995 16.9219C31.9805 16.9219 31.6005 16.8236 31.2596 16.6271C30.921 16.4283 30.6512 16.1323 30.4499 15.7393C30.2511 15.344 30.1516 14.8492 30.1516 14.255C30.1516 13.656 30.2511 13.1506 30.4499 12.7386C30.6512 12.3243 30.9222 12.0107 31.2631 11.7976C31.604 11.5821 31.984 11.4744 32.4031 11.4744C32.7227 11.4744 32.9854 11.5289 33.1914 11.6378C33.3997 11.7443 33.5655 11.8733 33.6886 12.0249C33.8117 12.174 33.9052 12.3149 33.9691 12.4474H34.0401V11.5455H35.3079V17.0888C35.3079 17.5552 35.1966 17.9411 34.9741 18.2464C34.7515 18.5518 34.4473 18.7803 34.0614 18.9318C33.6755 19.0833 33.2376 19.1591 32.7475 19.1591ZM32.7582 15.9134C33.0304 15.9134 33.2624 15.8471 33.4542 15.7145C33.646 15.5819 33.7915 15.3913 33.891 15.1428C33.9904 14.8942 34.0401 14.5959 34.0401 14.2479C34.0401 13.9046 33.9904 13.6039 33.891 13.3459C33.7939 13.0878 33.6495 12.8878 33.4577 12.7457C33.2683 12.6013 33.0352 12.5291 32.7582 12.5291C32.4717 12.5291 32.2326 12.6037 32.0408 12.7528C31.8491 12.902 31.7047 13.1068 31.6076 13.3672C31.5105 13.6252 31.462 13.9188 31.462 14.2479C31.462 14.5817 31.5105 14.8741 31.6076 15.125C31.707 15.3736 31.8526 15.5677 32.0444 15.7074C32.2385 15.8447 32.4764 15.9134 32.7582 15.9134ZM39.0401 17.1065C38.4933 17.1065 38.021 16.9929 37.6232 16.7656C37.2279 16.536 36.9237 16.2116 36.7106 15.7926C36.4975 15.3712 36.391 14.8752 36.391 14.3047C36.391 13.7436 36.4975 13.2512 36.7106 12.8274C36.926 12.4013 37.2267 12.0698 37.6126 11.8331C37.9985 11.594 38.4518 11.4744 38.9727 11.4744C39.3088 11.4744 39.6261 11.5289 39.9244 11.6378C40.225 11.7443 40.4902 11.91 40.7198 12.1349C40.9518 12.3598 41.1341 12.6463 41.2667 12.9943C41.3993 13.34 41.4656 13.7519 41.4656 14.2301V14.6243H36.9947V13.7578H40.2333C40.2309 13.5116 40.1777 13.2926 40.0735 13.1009C39.9693 12.9067 39.8237 12.754 39.6367 12.6428C39.4521 12.5315 39.2366 12.4759 38.9904 12.4759C38.7276 12.4759 38.4968 12.5398 38.2979 12.6676C38.0991 12.7931 37.944 12.9588 37.8327 13.1648C37.7238 13.3684 37.6682 13.5921 37.6658 13.8359V14.5923C37.6658 14.9096 37.7238 15.1818 37.8398 15.4091C37.9558 15.634 38.118 15.8068 38.3263 15.9276C38.5347 16.0459 38.7785 16.1051 39.0579 16.1051C39.2449 16.1051 39.4142 16.0791 39.5657 16.027C39.7172 15.9725 39.8486 15.8932 39.9599 15.7891C40.0711 15.6849 40.1552 15.5559 40.212 15.402L41.4123 15.5369C41.3365 15.8542 41.1921 16.1312 40.979 16.3679C40.7683 16.6023 40.4985 16.7846 40.1694 16.9148C39.8403 17.0426 39.4639 17.1065 39.0401 17.1065ZM43.8386 13.804V17H42.5531V11.5455H43.7818V12.4723H43.8457C43.9712 12.1669 44.1712 11.9242 44.4458 11.7443C44.7228 11.5644 45.0649 11.4744 45.4721 11.4744C45.8485 11.4744 46.1764 11.5549 46.4558 11.7159C46.7375 11.8769 46.9553 12.1101 47.1092 12.4155C47.2654 12.7209 47.3424 13.0914 47.34 13.527V17H46.0545V13.7259C46.0545 13.3613 45.9598 13.076 45.7704 12.87C45.5834 12.6641 45.3242 12.5611 44.9927 12.5611C44.7678 12.5611 44.5678 12.6108 44.3926 12.7102C44.2198 12.8073 44.0836 12.9482 43.9842 13.1328C43.8871 13.3175 43.8386 13.5412 43.8386 13.804ZM52.1181 17H50.7118L53.2722 9.72727H54.8986L57.4625 17H56.0563L54.1138 11.2188H54.057L52.1181 17ZM52.1642 14.1484H55.9995V15.2067H52.1642V14.1484ZM60.2218 17.0959C59.7933 17.0959 59.4097 16.9858 59.0712 16.7656C58.7327 16.5455 58.4651 16.2259 58.2686 15.8068C58.0721 15.3878 57.9739 14.8788 57.9739 14.2798C57.9739 13.6738 58.0733 13.1624 58.2722 12.7457C58.4734 12.3267 58.7445 12.0107 59.0854 11.7976C59.4263 11.5821 59.8063 11.4744 60.2253 11.4744C60.5449 11.4744 60.8077 11.5289 61.0137 11.6378C61.2196 11.7443 61.383 11.8733 61.5037 12.0249C61.6245 12.174 61.718 12.3149 61.7843 12.4474H61.8375V9.72727H63.1266V17H61.8624V16.1406H61.7843C61.718 16.2732 61.6221 16.4141 61.4966 16.5632C61.3712 16.71 61.2054 16.8355 60.9995 16.9396C60.7935 17.0438 60.5343 17.0959 60.2218 17.0959ZM60.5804 16.0412C60.8527 16.0412 61.0847 15.9678 61.2765 15.821C61.4682 15.6719 61.6138 15.4647 61.7132 15.1996C61.8127 14.9344 61.8624 14.6255 61.8624 14.2727C61.8624 13.92 61.8127 13.6134 61.7132 13.353C61.6162 13.0926 61.4718 12.8902 61.28 12.7457C61.0906 12.6013 60.8574 12.5291 60.5804 12.5291C60.294 12.5291 60.0549 12.6037 59.8631 12.7528C59.6713 12.902 59.5269 13.108 59.4299 13.3707C59.3328 13.6335 59.2843 13.9342 59.2843 14.2727C59.2843 14.6136 59.3328 14.9179 59.4299 15.1854C59.5293 15.4505 59.6749 15.66 59.8667 15.8139C60.0608 15.9654 60.2987 16.0412 60.5804 16.0412ZM66.5206 17.0959C66.0921 17.0959 65.7086 16.9858 65.37 16.7656C65.0315 16.5455 64.764 16.2259 64.5675 15.8068C64.371 15.3878 64.2727 14.8788 64.2727 14.2798C64.2727 13.6738 64.3722 13.1624 64.571 12.7457C64.7723 12.3267 65.0433 12.0107 65.3842 11.7976C65.7251 11.5821 66.1051 11.4744 66.5241 11.4744C66.8438 11.4744 67.1065 11.5289 67.3125 11.6378C67.5185 11.7443 67.6818 11.8733 67.8026 12.0249C67.9233 12.174 68.0168 12.3149 68.0831 12.4474H68.1364V9.72727H69.4254V17H68.1612V16.1406H68.0831C68.0168 16.2732 67.9209 16.4141 67.7955 16.5632C67.67 16.71 67.5043 16.8355 67.2983 16.9396C67.0923 17.0438 66.8331 17.0959 66.5206 17.0959ZM66.8793 16.0412C67.1515 16.0412 67.3835 15.9678 67.5753 15.821C67.767 15.6719 67.9126 15.4647 68.0121 15.1996C68.1115 14.9344 68.1612 14.6255 68.1612 14.2727C68.1612 13.92 68.1115 13.6134 68.0121 13.353C67.915 13.0926 67.7706 12.8902 67.5788 12.7457C67.3894 12.6013 67.1563 12.5291 66.8793 12.5291C66.5928 12.5291 66.3537 12.6037 66.1619 12.7528C65.9702 12.902 65.8258 13.108 65.7287 13.3707C65.6316 13.6335 65.5831 13.9342 65.5831 14.2727C65.5831 14.6136 65.6316 14.9179 65.7287 15.1854C65.8281 15.4505 65.9737 15.66 66.1655 15.8139C66.3596 15.9654 66.5975 16.0412 66.8793 16.0412ZM73.21 17.1065C72.6632 17.1065 72.1909 16.9929 71.7931 16.7656C71.3978 16.536 71.0936 16.2116 70.8805 15.7926C70.6674 15.3712 70.5609 14.8752 70.5609 14.3047C70.5609 13.7436 70.6674 13.2512 70.8805 12.8274C71.0959 12.4013 71.3966 12.0698 71.7825 11.8331C72.1684 11.594 72.6217 11.4744 73.1426 11.4744C73.4788 11.4744 73.796 11.5289 74.0943 11.6378C74.3949 11.7443 74.6601 11.91 74.8897 12.1349C75.1217 12.3598 75.304 12.6463 75.4366 12.9943C75.5692 13.34 75.6355 13.7519 75.6355 14.2301V14.6243H71.1646V13.7578H74.4032C74.4009 13.5116 74.3476 13.2926 74.2434 13.1009C74.1393 12.9067 73.9937 12.754 73.8066 12.6428C73.622 12.5315 73.4065 12.4759 73.1603 12.4759C72.8975 12.4759 72.6667 12.5398 72.4679 12.6676C72.269 12.7931 72.1139 12.9588 72.0027 13.1648C71.8938 13.3684 71.8381 13.5921 71.8358 13.8359V14.5923C71.8358 14.9096 71.8938 15.1818 72.0098 15.4091C72.1258 15.634 72.2879 15.8068 72.4963 15.9276C72.7046 16.0459 72.9484 16.1051 73.2278 16.1051C73.4148 16.1051 73.5841 16.0791 73.7356 16.027C73.8871 15.9725 74.0185 15.8932 74.1298 15.7891C74.2411 15.6849 74.3251 15.5559 74.3819 15.402L75.5822 15.5369C75.5065 15.8542 75.362 16.1312 75.149 16.3679C74.9383 16.6023 74.6684 16.7846 74.3393 16.9148C74.0102 17.0426 73.6338 17.1065 73.21 17.1065ZM78.7472 17.0959C78.3187 17.0959 77.9351 16.9858 77.5966 16.7656C77.258 16.5455 76.9905 16.2259 76.794 15.8068C76.5975 15.3878 76.4993 14.8788 76.4993 14.2798C76.4993 13.6738 76.5987 13.1624 76.7976 12.7457C76.9988 12.3267 77.2699 12.0107 77.6108 11.7976C77.9517 11.5821 78.3317 11.4744 78.7507 11.4744C79.0703 11.4744 79.3331 11.5289 79.5391 11.6378C79.745 11.7443 79.9084 11.8733 80.0291 12.0249C80.1499 12.174 80.2434 12.3149 80.3097 12.4474H80.3629V9.72727H81.652V17H80.3878V16.1406H80.3097C80.2434 16.2732 80.1475 16.4141 80.022 16.5632C79.8965 16.71 79.7308 16.8355 79.5249 16.9396C79.3189 17.0438 79.0597 17.0959 78.7472 17.0959ZM79.1058 16.0412C79.3781 16.0412 79.6101 15.9678 79.8018 15.821C79.9936 15.6719 80.1392 15.4647 80.2386 15.1996C80.3381 14.9344 80.3878 14.6255 80.3878 14.2727C80.3878 13.92 80.3381 13.6134 80.2386 13.353C80.1416 13.0926 79.9972 12.8902 79.8054 12.7457C79.616 12.6013 79.3828 12.5291 79.1058 12.5291C78.8194 12.5291 78.5803 12.6037 78.3885 12.7528C78.1967 12.902 78.0523 13.108 77.9553 13.3707C77.8582 13.6335 77.8097 13.9342 77.8097 14.2727C77.8097 14.6136 77.8582 14.9179 77.9553 15.1854C78.0547 15.4505 78.2003 15.66 78.392 15.8139C78.5862 15.9654 78.8241 16.0412 79.1058 16.0412ZM89.5115 11.7266C89.4784 11.4164 89.3387 11.175 89.0925 11.0021C88.8487 10.8293 88.5314 10.7429 88.1408 10.7429C87.8662 10.7429 87.6306 10.7843 87.4341 10.8672C87.2376 10.95 87.0873 11.0625 86.9831 11.2045C86.879 11.3466 86.8257 11.5088 86.8233 11.6911C86.8233 11.8426 86.8577 11.974 86.9263 12.0852C86.9973 12.1965 87.0932 12.2912 87.214 12.3693C87.3347 12.4451 87.4685 12.509 87.6152 12.5611C87.762 12.6132 87.91 12.657 88.0591 12.6925L88.7409 12.8629C89.0156 12.9268 89.2795 13.0133 89.5328 13.1222C89.7885 13.2311 90.017 13.3684 90.2182 13.5341C90.4218 13.6998 90.5828 13.8999 90.7012 14.1342C90.8195 14.3686 90.8787 14.6432 90.8787 14.9581C90.8787 15.3842 90.7698 15.7595 90.552 16.0838C90.3342 16.4058 90.0194 16.6579 89.6074 16.8402C89.1979 17.0201 88.7019 17.1101 88.1195 17.1101C87.5537 17.1101 87.0624 17.0225 86.6458 16.8473C86.2315 16.6721 85.9071 16.4164 85.6728 16.0803C85.4408 15.7441 85.3153 15.3345 85.2963 14.8516H86.5925C86.6114 15.1049 86.6896 15.3156 86.8269 15.4837C86.9642 15.6518 87.1429 15.7772 87.3631 15.8601C87.5856 15.9429 87.8342 15.9844 88.1088 15.9844C88.3953 15.9844 88.6462 15.9418 88.8617 15.8565C89.0795 15.7689 89.2499 15.6482 89.373 15.4943C89.4962 15.3381 89.5589 15.1558 89.5613 14.9474C89.5589 14.758 89.5033 14.6018 89.3944 14.4787C89.2855 14.3532 89.1328 14.2491 88.9363 14.1662C88.7421 14.081 88.5149 14.0052 88.2544 13.9389L87.427 13.7259C86.8281 13.572 86.3546 13.3388 86.0066 13.0263C85.6609 12.7114 85.4881 12.2936 85.4881 11.7727C85.4881 11.3442 85.6041 10.969 85.8361 10.647C86.0705 10.325 86.3889 10.0753 86.7914 9.89773C87.1938 9.7178 87.6496 9.62784 88.1586 9.62784C88.6747 9.62784 89.1268 9.7178 89.5151 9.89773C89.9057 10.0753 90.2123 10.3227 90.4348 10.6399C90.6574 10.9548 90.7722 11.317 90.7793 11.7266H89.5115ZM95.473 14.706V11.5455H96.7585V17H95.5121V16.0305H95.4553C95.3321 16.3359 95.1297 16.5857 94.848 16.7798C94.5687 16.974 94.2242 17.071 93.8146 17.071C93.4571 17.071 93.1411 16.9917 92.8665 16.8331C92.5942 16.6721 92.3812 16.4389 92.2273 16.1335C92.0734 15.8258 91.9964 15.4541 91.9964 15.0185V11.5455H93.282V14.8196C93.282 15.1652 93.3767 15.4399 93.5661 15.6435C93.7554 15.8471 94.004 15.9489 94.3118 15.9489C94.5012 15.9489 94.6847 15.9027 94.8622 15.8104C95.0398 15.718 95.1854 15.5807 95.299 15.3984C95.415 15.2138 95.473 14.983 95.473 14.706ZM100.46 17.1065C99.9152 17.1065 99.4476 16.987 99.057 16.7479C98.6687 16.5088 98.3693 16.1785 98.1586 15.7571C97.9502 15.3333 97.8461 14.8456 97.8461 14.294C97.8461 13.7401 97.9526 13.2512 98.1657 12.8274C98.3787 12.4013 98.6794 12.0698 99.0676 11.8331C99.4583 11.594 99.9199 11.4744 100.453 11.4744C100.895 11.4744 101.287 11.5561 101.628 11.7195C101.971 11.8804 102.245 12.1089 102.448 12.4048C102.652 12.6984 102.768 13.0417 102.796 13.4347H101.568C101.518 13.1719 101.4 12.9529 101.213 12.7777C101.028 12.6001 100.78 12.5114 100.47 12.5114C100.208 12.5114 99.9767 12.5824 99.7779 12.7244C99.579 12.8641 99.4239 13.0653 99.3127 13.3281C99.2038 13.5909 99.1493 13.9058 99.1493 14.2727C99.1493 14.6444 99.2038 14.964 99.3127 15.2315C99.4216 15.4967 99.5743 15.7015 99.7708 15.8459C99.9696 15.9879 100.203 16.0589 100.47 16.0589C100.66 16.0589 100.829 16.0234 100.978 15.9524C101.13 15.879 101.256 15.7737 101.358 15.6364C101.46 15.4991 101.53 15.3321 101.568 15.1357H102.796C102.766 15.5215 102.652 15.8636 102.455 16.1619C102.259 16.4579 101.991 16.6899 101.653 16.858C101.314 17.0237 100.917 17.1065 100.46 17.1065ZM106.231 17.1065C105.687 17.1065 105.219 16.987 104.828 16.7479C104.44 16.5088 104.141 16.1785 103.93 15.7571C103.722 15.3333 103.618 14.8456 103.618 14.294C103.618 13.7401 103.724 13.2512 103.937 12.8274C104.15 12.4013 104.451 12.0698 104.839 11.8331C105.23 11.594 105.691 11.4744 106.224 11.4744C106.667 11.4744 107.059 11.5561 107.4 11.7195C107.743 11.8804 108.016 12.1089 108.22 12.4048C108.423 12.6984 108.539 13.0417 108.568 13.4347H107.339C107.289 13.1719 107.171 12.9529 106.984 12.7777C106.799 12.6001 106.552 12.5114 106.242 12.5114C105.979 12.5114 105.748 12.5824 105.549 12.7244C105.35 12.8641 105.195 13.0653 105.084 13.3281C104.975 13.5909 104.921 13.9058 104.921 14.2727C104.921 14.6444 104.975 14.964 105.084 15.2315C105.193 15.4967 105.346 15.7015 105.542 15.8459C105.741 15.9879 105.974 16.0589 106.242 16.0589C106.431 16.0589 106.6 16.0234 106.75 15.9524C106.901 15.879 107.028 15.7737 107.13 15.6364C107.231 15.4991 107.301 15.3321 107.339 15.1357H108.568C108.537 15.5215 108.423 15.8636 108.227 16.1619C108.03 16.4579 107.763 16.6899 107.424 16.858C107.086 17.0237 106.688 17.1065 106.231 17.1065ZM112.038 17.1065C111.491 17.1065 111.019 16.9929 110.621 16.7656C110.226 16.536 109.922 16.2116 109.709 15.7926C109.496 15.3712 109.389 14.8752 109.389 14.3047C109.389 13.7436 109.496 13.2512 109.709 12.8274C109.924 12.4013 110.225 12.0698 110.611 11.8331C110.997 11.594 111.45 11.4744 111.971 11.4744C112.307 11.4744 112.624 11.5289 112.922 11.6378C113.223 11.7443 113.488 11.91 113.718 12.1349C113.95 12.3598 114.132 12.6463 114.265 12.9943C114.397 13.34 114.464 13.7519 114.464 14.2301V14.6243H109.993V13.7578H113.231C113.229 13.5116 113.176 13.2926 113.072 13.1009C112.967 12.9067 112.822 12.754 112.635 12.6428C112.45 12.5315 112.235 12.4759 111.988 12.4759C111.726 12.4759 111.495 12.5398 111.296 12.6676C111.097 12.7931 110.942 12.9588 110.831 13.1648C110.722 13.3684 110.666 13.5921 110.664 13.8359V14.5923C110.664 14.9096 110.722 15.1818 110.838 15.4091C110.954 15.634 111.116 15.8068 111.324 15.9276C111.533 16.0459 111.777 16.1051 112.056 16.1051C112.243 16.1051 112.412 16.0791 112.564 16.027C112.715 15.9725 112.847 15.8932 112.958 15.7891C113.069 15.6849 113.153 15.5559 113.21 15.402L114.41 15.5369C114.335 15.8542 114.19 16.1312 113.977 16.3679C113.766 16.6023 113.497 16.7846 113.167 16.9148C112.838 17.0426 112.462 17.1065 112.038 17.1065ZM119.862 12.9872L118.69 13.1151C118.657 12.9967 118.599 12.8854 118.516 12.7812C118.436 12.6771 118.327 12.593 118.19 12.5291C118.052 12.4652 117.884 12.4332 117.685 12.4332C117.418 12.4332 117.193 12.4912 117.011 12.6072C116.831 12.7232 116.742 12.8736 116.744 13.0582C116.742 13.2169 116.8 13.3459 116.918 13.4453C117.039 13.5447 117.238 13.6264 117.515 13.6903L118.445 13.8892C118.961 14.0005 119.345 14.1768 119.596 14.4183C119.849 14.6598 119.977 14.9759 119.979 15.3665C119.977 15.7098 119.876 16.0128 119.678 16.2756C119.481 16.536 119.208 16.7396 118.857 16.8864C118.507 17.0331 118.104 17.1065 117.65 17.1065C116.982 17.1065 116.445 16.9669 116.038 16.6875C115.63 16.4058 115.388 16.014 115.31 15.5121L116.563 15.3913C116.62 15.6375 116.741 15.8234 116.925 15.9489C117.11 16.0743 117.35 16.1371 117.646 16.1371C117.952 16.1371 118.197 16.0743 118.381 15.9489C118.568 15.8234 118.662 15.6683 118.662 15.4837C118.662 15.3274 118.602 15.1984 118.481 15.0966C118.362 14.9948 118.178 14.9167 117.927 14.8622L116.996 14.6669C116.473 14.558 116.086 14.3745 115.835 14.1165C115.584 13.8561 115.46 13.527 115.462 13.1293C115.46 12.7931 115.551 12.5019 115.736 12.2557C115.923 12.0071 116.182 11.8153 116.513 11.6804C116.847 11.5431 117.232 11.4744 117.668 11.4744C118.307 11.4744 118.81 11.6106 119.177 11.8828C119.546 12.1551 119.775 12.5232 119.862 12.9872ZM125.35 12.9872L124.179 13.1151C124.145 12.9967 124.087 12.8854 124.005 12.7812C123.924 12.6771 123.815 12.593 123.678 12.5291C123.541 12.4652 123.373 12.4332 123.174 12.4332C122.906 12.4332 122.681 12.4912 122.499 12.6072C122.319 12.7232 122.23 12.8736 122.233 13.0582C122.23 13.2169 122.288 13.3459 122.407 13.4453C122.527 13.5447 122.726 13.6264 123.003 13.6903L123.934 13.8892C124.45 14.0005 124.833 14.1768 125.084 14.4183C125.337 14.6598 125.465 14.9759 125.468 15.3665C125.465 15.7098 125.365 16.0128 125.166 16.2756C124.969 16.536 124.696 16.7396 124.346 16.8864C123.995 17.0331 123.593 17.1065 123.138 17.1065C122.471 17.1065 121.933 16.9669 121.526 16.6875C121.119 16.4058 120.876 16.014 120.798 15.5121L122.051 15.3913C122.108 15.6375 122.229 15.8234 122.414 15.9489C122.598 16.0743 122.839 16.1371 123.135 16.1371C123.44 16.1371 123.685 16.0743 123.87 15.9489C124.057 15.8234 124.15 15.6683 124.15 15.4837C124.15 15.3274 124.09 15.1984 123.969 15.0966C123.851 14.9948 123.666 14.9167 123.415 14.8622L122.485 14.6669C121.962 14.558 121.574 14.3745 121.324 14.1165C121.073 13.8561 120.948 13.527 120.951 13.1293C120.948 12.7931 121.039 12.5019 121.224 12.2557C121.411 12.0071 121.67 11.8153 122.002 11.6804C122.336 11.5431 122.72 11.4744 123.156 11.4744C123.795 11.4744 124.298 11.6106 124.665 11.8828C125.034 12.1551 125.263 12.5232 125.35 12.9872ZM129.29 11.5455V12.5398H126.066V11.5455H129.29ZM126.872 17V11.0305C126.872 10.6636 126.948 10.3582 127.099 10.1143C127.253 9.8705 127.459 9.68821 127.717 9.56747C127.975 9.44673 128.262 9.38636 128.577 9.38636C128.799 9.38636 128.997 9.40412 129.17 9.43963C129.343 9.47514 129.47 9.5071 129.553 9.53551L129.298 10.5298C129.243 10.5133 129.174 10.4967 129.092 10.4801C129.009 10.4612 128.916 10.4517 128.815 10.4517C128.576 10.4517 128.406 10.5097 128.307 10.6257C128.21 10.7393 128.161 10.9027 128.161 11.1158V17H126.872ZM133.774 14.706V11.5455H135.059V17H133.813V16.0305H133.756C133.633 16.3359 133.431 16.5857 133.149 16.7798C132.869 16.974 132.525 17.071 132.115 17.071C131.758 17.071 131.442 16.9917 131.167 16.8331C130.895 16.6721 130.682 16.4389 130.528 16.1335C130.374 15.8258 130.297 15.4541 130.297 15.0185V11.5455H131.583V14.8196C131.583 15.1652 131.677 15.4399 131.867 15.6435C132.056 15.8471 132.305 15.9489 132.613 15.9489C132.802 15.9489 132.985 15.9027 133.163 15.8104C133.341 15.718 133.486 15.5807 133.6 15.3984C133.716 15.2138 133.774 14.983 133.774 14.706ZM137.667 9.72727V17H136.381V9.72727H137.667ZM140.274 9.72727V17H138.989V9.72727H140.274ZM142.395 19.0455C142.22 19.0455 142.058 19.0313 141.909 19.0028C141.762 18.9768 141.645 18.946 141.557 18.9105L141.855 17.9091C142.042 17.9635 142.209 17.9896 142.356 17.9872C142.503 17.9848 142.632 17.9387 142.743 17.8487C142.857 17.7611 142.953 17.6143 143.031 17.4084L143.141 17.1136L141.163 11.5455H142.526L143.784 15.6648H143.84L145.101 11.5455H146.468L144.284 17.6605C144.182 17.9493 144.048 18.1967 143.879 18.4027C143.711 18.611 143.505 18.7696 143.262 18.8786C143.02 18.9898 142.731 19.0455 142.395 19.0455Z" fill="#1D9C39"/>
</svg>
