<svg width="117" height="119" viewBox="0 0 117 119" fill="none" xmlns="http://www.w3.org/2000/svg">
<g clip-path="url(#clip0_1_225)">
<rect width="117" height="119" rx="23" fill="#1D1D1F"/>
<g filter="url(#filter0_f_1_225)">
<circle cx="26" cy="124" r="28" fill="#D9D9D9"/>
</g>
<path d="M17.3565 85V75.64H18.9295V83.531H22.5695V85H17.3565ZM24.3979 77.187C23.8259 77.187 23.4099 76.81 23.4099 76.225C23.4099 75.64 23.8129 75.263 24.3979 75.263C24.9699 75.263 25.3859 75.64 25.3859 76.225C25.3859 76.81 24.9569 77.187 24.3979 77.187ZM23.6439 85V78.123H25.1519V85H23.6439ZM26.2436 84.727L26.3606 83.505C26.8676 83.713 27.6476 83.882 28.4796 83.882C29.3246 83.882 29.9096 83.674 29.9096 83.102C29.9096 82.647 29.5976 82.439 28.3756 82.14C27.0236 81.828 26.2696 81.347 26.2696 80.099C26.2696 78.864 27.2576 77.967 29.0386 77.967C29.8836 77.967 30.5596 78.162 31.0016 78.344L30.8846 79.865C30.3906 79.696 29.7536 79.553 29.0126 79.553C28.2066 79.553 27.7646 79.735 27.7646 80.216C27.7646 80.645 28.0636 80.827 29.1816 81.048C30.5856 81.334 31.3656 81.841 31.3656 83.037C31.3656 84.363 30.4036 85.156 28.5316 85.156C27.5696 85.156 26.8286 84.974 26.2436 84.727ZM32.6541 82.712V79.592H31.4971V78.123H32.7451L32.9271 76.342H34.1621V78.123H36.0731V79.592H34.1621V82.621C34.1621 83.453 34.5781 83.752 35.2021 83.752C35.5531 83.752 35.8261 83.7 36.0731 83.622L36.1901 84.974C35.8781 85.091 35.3971 85.156 34.9421 85.156C33.2651 85.156 32.6541 84.207 32.6541 82.712ZM39.3391 80.32C39.3391 77.46 41.2631 75.484 43.9411 75.484C46.6321 75.484 48.5691 77.46 48.5691 80.32C48.5691 83.193 46.6711 85.156 43.9541 85.156C41.2371 85.156 39.3391 83.18 39.3391 80.32ZM43.9411 83.648C45.7091 83.648 46.9571 82.361 46.9571 80.424C46.9571 78.5 45.6701 77.187 43.9411 77.187C42.1861 77.187 40.9511 78.5 40.9511 80.424C40.9511 82.361 42.1991 83.648 43.9411 83.648ZM48.9856 79.592V78.123H50.0776V77.278C50.0776 75.848 50.9226 74.964 52.3916 74.964C52.8986 74.964 53.3146 75.003 53.6266 75.107L53.5096 76.355C53.2626 76.29 53.0026 76.264 52.6776 76.264C51.8586 76.264 51.5856 76.667 51.5856 77.291V78.123H53.4056V79.592H51.5856V85H50.0776V79.592H48.9856ZM59.2132 81.893H58.5762V85H57.0032V75.64H59.2652C61.5662 75.64 63.1002 76.589 63.1002 78.721C63.1002 80.918 61.4882 81.893 59.2132 81.893ZM59.3822 77.265H58.5762V80.489H59.2782C60.6692 80.489 61.4882 79.982 61.4882 78.838C61.4882 77.759 60.6952 77.265 59.3822 77.265ZM67.9242 80.476C67.9242 79.93 67.4822 79.553 66.4552 79.553C65.6232 79.553 64.8432 79.787 64.2842 80.06L64.1672 78.539C64.7652 78.214 65.6232 77.967 66.6112 77.967C68.6782 77.967 69.5102 78.968 69.5102 80.619V85H67.9632V84.025C67.4692 84.675 66.8452 85.156 65.7532 85.156C64.5832 85.156 63.7122 84.532 63.7122 83.375C63.7122 81.971 64.7392 81.503 66.3772 81.23C67.0012 81.126 67.3782 81.035 67.6772 80.892C67.8852 80.801 67.9242 80.684 67.9242 80.476ZM67.9632 81.724C67.7032 81.88 67.2222 82.036 66.6502 82.14C65.7662 82.309 65.2982 82.53 65.2982 83.219C65.2982 83.817 65.7922 84.103 66.4032 84.103C67.1832 84.103 67.7292 83.609 67.9632 83.05V81.724ZM70.7236 85V78.123H72.2056V79.176H72.2446C72.6086 78.383 73.4276 77.967 74.5846 77.967L74.4936 79.709C72.8426 79.67 72.2316 80.424 72.2316 81.984V85H70.7236ZM80.7862 84.805C80.1752 85.052 79.4732 85.156 78.7452 85.156C76.3272 85.156 74.8452 83.817 74.8452 81.529C74.8452 79.488 76.1322 77.967 78.1472 77.967C80.2662 77.967 81.2412 79.683 81.2412 81.373C81.2412 81.62 81.2282 81.893 81.2022 82.075H76.5092C76.6912 83.206 77.5752 83.882 78.9792 83.882C79.6162 83.882 80.1622 83.778 80.6562 83.583L80.7862 84.805ZM78.1602 79.423C77.3022 79.423 76.5872 79.956 76.4442 81.087H79.8242C79.7462 80.164 79.1352 79.423 78.1602 79.423ZM82.2508 85V78.123H83.7328V79.163H83.7718C84.1748 78.448 84.8768 77.967 85.9298 77.967C87.7238 77.967 88.5298 79.176 88.5298 80.84V85H87.0218V81.464C87.0218 80.372 86.5538 79.579 85.4098 79.579C84.3048 79.579 83.7588 80.346 83.7588 81.529V85H82.2508ZM90.2391 82.712V79.592H89.0821V78.123H90.3301L90.5121 76.342H91.7471V78.123H93.6581V79.592H91.7471V82.621C91.7471 83.453 92.1631 83.752 92.7871 83.752C93.1381 83.752 93.4111 83.7 93.6581 83.622L93.7751 84.974C93.4631 85.091 92.9821 85.156 92.5271 85.156C90.8501 85.156 90.2391 84.207 90.2391 82.712ZM94.2639 84.727L94.3809 83.505C94.8879 83.713 95.6679 83.882 96.4999 83.882C97.3449 83.882 97.9299 83.674 97.9299 83.102C97.9299 82.647 97.6179 82.439 96.3959 82.14C95.0439 81.828 94.2899 81.347 94.2899 80.099C94.2899 78.864 95.2779 77.967 97.0589 77.967C97.9039 77.967 98.5799 78.162 99.0219 78.344L98.9049 79.865C98.4109 79.696 97.7739 79.553 97.0329 79.553C96.2269 79.553 95.7849 79.735 95.7849 80.216C95.7849 80.645 96.0839 80.827 97.2019 81.048C98.6059 81.334 99.3859 81.841 99.3859 83.037C99.3859 84.363 98.4239 85.156 96.5519 85.156C95.5899 85.156 94.8489 84.974 94.2639 84.727Z" fill="white"/>
<path d="M51.8093 36.9187H69.7812" stroke="white" stroke-miterlimit="10"/>
<path d="M51.8093 42.3093H69.7812" stroke="white" stroke-miterlimit="10"/>
<path d="M51.8093 47.7H69.7812" stroke="white" stroke-miterlimit="10"/>
<path d="M51.8093 53.0906H69.7812" stroke="white" stroke-miterlimit="10"/>
<path d="M48.2188 36.9187H50.0188" stroke="white" stroke-miterlimit="10"/>
<path d="M48.2188 42.3093H50.0188" stroke="white" stroke-miterlimit="10"/>
<path d="M48.2188 47.7H50.0188" stroke="white" stroke-miterlimit="10"/>
<path d="M48.2188 53.0906H50.0188" stroke="white" stroke-miterlimit="10"/>
</g>
<defs>
<filter id="filter0_f_1_225" x="-94" y="4" width="240" height="240" filterUnits="userSpaceOnUse" color-interpolation-filters="sRGB">
<feFlood flood-opacity="0" result="BackgroundImageFix"/>
<feBlend mode="normal" in="SourceGraphic" in2="BackgroundImageFix" result="shape"/>
<feGaussianBlur stdDeviation="46" result="effect1_foregroundBlur_1_225"/>
</filter>
<clipPath id="clip0_1_225">
<rect width="117" height="119" rx="23" fill="white"/>
</clipPath>
</defs>
</svg>
