<svg width="164" height="142" viewBox="0 0 164 142" fill="none" xmlns="http://www.w3.org/2000/svg">
<path d="M0.86 133.46L1.02 130.44C1.96 130.84 3.38 131.18 4.92 131.18C6.54 131.18 7.34 130.68 7.34 129.82C7.34 129 6.64 128.64 5.04 128.28C2.28 127.68 0.7 126.58 0.7 123.9C0.7 121.3 2.28 119.34 5.94 119.34C7.72 119.34 8.72 119.58 9.84 120.04L9.66 123.44C8.52 123.08 7.42 122.84 6.12 122.84C4.72 122.84 4.02 123.3 4.02 124.08C4.02 124.74 4.52 125.1 6.18 125.48C9 126.1 10.66 127.1 10.66 129.74C10.66 132.3 8.98 134.26 5.12 134.26C3.08 134.26 2.06 133.92 0.86 133.46ZM21.3328 133.78C20.3728 134.12 19.2928 134.26 18.1128 134.26C14.1928 134.26 11.6928 132.26 11.6928 128.52C11.6928 125.28 13.8128 122.88 17.0728 122.88C20.3928 122.88 22.0528 125.48 22.0528 128.42C22.0528 128.86 22.0328 129.34 21.9528 129.7H15.1528C15.5528 131.08 16.7928 131.7 18.6728 131.7C19.5928 131.7 20.3528 131.58 21.0728 131.32L21.3328 133.78ZM17.1128 125.76C16.1128 125.76 15.2128 126.34 14.9928 127.8H19.1328C19.0728 126.66 18.2728 125.76 17.1128 125.76ZM24.4777 129.94V126.1H22.7977V123.14H24.7177L25.0577 120.4H27.5777V123.14H30.4177V126.1H27.5777V129.76C27.5777 130.96 28.1177 131.4 29.0377 131.4C29.5977 131.4 30.0177 131.32 30.4177 131.22L30.6377 133.98C30.0777 134.16 29.2377 134.26 28.4777 134.26C25.4177 134.26 24.4777 132.52 24.4777 129.94ZM35.6706 131.4V128.86L41.7306 119.6H45.3106V128.78H47.2306V131.4H45.3106V134H42.2306V131.4H35.6706ZM38.7106 128.78H42.2306V123.36L38.7106 128.78ZM53.1755 134V119.6H57.5555C63.1155 119.6 65.5155 122.76 65.5155 126.84C65.5155 130.9 62.6355 134 57.4355 134H53.1755ZM57.5755 122.94H56.4155V131H57.5355C60.6355 131 62.1955 129.34 62.1955 126.92C62.1955 124.52 60.5155 122.94 57.5755 122.94ZM68.8914 122.1C67.8114 122.1 66.9914 121.38 66.9914 120.26C66.9914 119.14 67.7914 118.42 68.8914 118.42C70.0114 118.42 70.7914 119.14 70.7914 120.26C70.7914 121.38 69.9714 122.1 68.8914 122.1ZM67.3514 134V123.14H70.4514V134H67.3514ZM80.4611 133.06V132.24H80.3811C79.7611 133.18 78.6411 133.8 77.2011 133.8C74.3411 133.8 72.1811 131.86 72.1811 128.54C72.1811 124.96 74.4611 122.88 77.2011 122.88C78.6211 122.88 79.7611 123.48 80.3811 124.62H80.4611V123.14H83.5011V132.74C83.5011 136.14 81.5411 138.16 77.9611 138.16C76.7211 138.16 75.8611 138.06 75.1411 137.86L75.3811 135.32C75.9011 135.46 76.5411 135.52 77.3811 135.52C79.5411 135.52 80.4611 134.72 80.4611 133.06ZM77.8611 126.06C76.4811 126.06 75.4411 127.16 75.4411 128.7C75.4411 130.28 76.4811 131.32 77.8611 131.32C79.2811 131.32 80.3211 130.34 80.3211 128.7C80.3211 127.12 79.2811 126.06 77.8611 126.06ZM87.368 122.1C86.288 122.1 85.468 121.38 85.468 120.26C85.468 119.14 86.268 118.42 87.368 118.42C88.488 118.42 89.268 119.14 89.268 120.26C89.268 121.38 88.448 122.1 87.368 122.1ZM85.828 134V123.14H88.928V134H85.828ZM91.9777 129.94V126.1H90.2977V123.14H92.2177L92.5577 120.4H95.0777V123.14H97.9177V126.1H95.0777V129.76C95.0777 130.96 95.6177 131.4 96.5377 131.4C97.0977 131.4 97.5177 131.32 97.9177 131.22L98.1377 133.98C97.5777 134.16 96.7377 134.26 95.9777 134.26C92.9177 134.26 91.9777 132.52 91.9777 129.94ZM99.1566 133.58L99.3766 131.12C100.117 131.42 101.457 131.7 102.817 131.7C103.897 131.7 104.597 131.52 104.597 130.92C104.597 130.44 104.257 130.26 102.437 129.86C100.337 129.4 99.1166 128.62 99.1166 126.5C99.1166 124.46 100.697 122.88 103.757 122.88C105.097 122.88 106.277 123.18 106.917 123.46L106.697 126.58C105.897 126.3 104.817 126.06 103.697 126.06C102.637 126.06 102.157 126.26 102.157 126.76C102.157 127.24 102.457 127.4 104.197 127.7C106.257 128.08 107.537 128.92 107.537 130.76C107.537 133.02 105.977 134.26 102.917 134.26C101.317 134.26 100.017 133.94 99.1566 133.58ZM120.186 134L116.566 125.02V134H113.566V119.6H117.546L121.546 130.08L125.626 119.6H129.606V134H126.526V124.96L122.846 134H120.186ZM136.318 129.82H135.478V134H132.238V119.6H136.278C139.978 119.6 142.518 121.16 142.518 124.66C142.518 128.18 139.978 129.82 136.318 129.82ZM136.538 122.94H135.478V126.98H136.478C138.178 126.98 139.198 126.34 139.198 124.92C139.198 123.54 138.198 122.94 136.538 122.94ZM144.406 134V119.6H147.646V134H144.406ZM150.265 134V119.6H153.485L159.665 129V119.6H162.665V134H159.445L153.265 125.14V134H150.265Z" fill="url(#paint0_linear_5_4)"/>
<path d="M44.3125 61.9791V3.54163H118.688V61.9791L81.5 81.4583L44.3125 61.9791Z" fill="url(#paint1_linear_5_4)"/>
<path fill-rule="evenodd" clip-rule="evenodd" d="M77.825 29.8C77.825 28.8346 78.2122 27.9088 78.9014 27.2261C79.5906 26.5435 80.5253 26.16 81.5 26.16C82.4747 26.16 83.4094 26.5435 84.0986 27.2261C84.7878 27.9088 85.175 28.8346 85.175 29.8V34.4717H77.825V29.8ZM73.625 34.4717V29.8C73.625 27.7313 74.4547 25.7474 75.9315 24.2846C77.4084 22.8218 79.4114 22 81.5 22C83.5886 22 85.5916 22.8218 87.0685 24.2846C88.5453 25.7474 89.375 27.7313 89.375 29.8V34.4717H92V48H71V34.4717H73.625Z" fill="white"/>
<defs>
<linearGradient id="paint0_linear_5_4" x1="-2.94179e-06" y1="142" x2="17.6301" y2="73.645" gradientUnits="userSpaceOnUse">
<stop stop-color="#E9866E"/>
<stop offset="0.515" stop-color="#959189"/>
<stop offset="1" stop-color="#4A9CA5"/>
</linearGradient>
<linearGradient id="paint1_linear_5_4" x1="44.3125" y1="81.4583" x2="128.563" y2="20.6178" gradientUnits="userSpaceOnUse">
<stop stop-color="#E9866E"/>
<stop offset="0.515" stop-color="#959189"/>
<stop offset="1" stop-color="#4A9CA5"/>
</linearGradient>
</defs>
</svg>
