<svg width="38" height="38" viewBox="0 0 38 38" fill="none" xmlns="http://www.w3.org/2000/svg">
<g clip-path="url(#clip0_127_215)">
<path d="M26.8373 15.0086L10.1944 20.4184C8.88136 20.8452 8.1629 22.2557 8.58972 23.5687L11.2946 31.8902C11.7214 33.2033 13.1319 33.9217 14.445 33.4949L31.0878 28.0851C32.4009 27.6583 33.1194 26.2478 32.6926 24.9347L29.9877 16.6133C29.5608 15.3002 28.1504 14.5818 26.8373 15.0086Z" stroke="white" stroke-width="2" stroke-linecap="round" stroke-linejoin="round"/>
<path d="M12.5719 19.6455L11.0263 14.8904C10.5139 13.314 10.6487 11.5986 11.401 10.1216C12.1534 8.64457 13.4617 7.52692 15.0381 7.0145C16.6145 6.50209 18.3299 6.63689 19.807 7.38925C21.284 8.14161 22.4016 9.4499 22.914 11.0263L24.4597 15.7814" stroke="white" stroke-width="2" stroke-linecap="round" stroke-linejoin="round"/>
</g>
<defs>
<clipPath id="clip0_127_215">
<rect width="30" height="30" fill="white" transform="translate(0 9.2739) rotate(-18.0068)"/>
</clipPath>
</defs>
</svg>
