<svg width="346" height="58" viewBox="0 0 346 58" fill="none" xmlns="http://www.w3.org/2000/svg">
<path d="M211.042 30H158.656H122.277" stroke="url(#paint0_linear_34_110)"/>
<rect x="3.14551" y="4.4541" width="339.709" height="49.0918" rx="24.5459" stroke="#353536" stroke-width="0.5"/>
<rect x="0.25" y="2.25" width="345.5" height="53.5" rx="25.75" stroke="#353536" stroke-width="0.5"/>
<rect x="5.7908" y="6.40814" width="334.418" height="45.1837" rx="22.5918" fill="#1D1D1F"/>
<g clip-path="url(#clip0_34_110)">
<rect x="7.24606" y="7" width="332.069" height="43.18" rx="21.59" fill="url(#paint1_linear_34_110)"/>
<g filter="url(#filter0_f_34_110)">
<ellipse cx="173.246" cy="67" rx="63" ry="25" fill="white"/>
</g>
<path d="M163.347 31.116V32H157.042V22.549H158.472V31.116H163.347ZM170.692 28.594C170.692 30.726 169.21 32.13 167.104 32.13C164.998 32.13 163.516 30.739 163.516 28.594C163.516 26.488 164.998 25.045 167.104 25.045C169.197 25.045 170.692 26.488 170.692 28.594ZM164.855 28.594C164.855 30.141 165.57 31.402 167.104 31.402C168.625 31.402 169.353 30.128 169.353 28.594C169.353 27.086 168.625 25.773 167.104 25.773C165.609 25.773 164.855 27.086 164.855 28.594ZM175.198 34.912C173.183 34.925 171.883 33.976 171.883 32.39V32.299H173.183C173.17 33.521 173.976 34.184 175.224 34.184C176.602 34.171 177.369 33.339 177.369 31.766V30.557C176.953 31.298 176.056 31.844 174.86 31.844C172.819 31.844 171.571 30.401 171.571 28.438C171.571 26.566 172.819 25.045 174.834 25.045C175.952 25.045 176.914 25.565 177.369 26.345L177.564 25.175H178.669V31.623C178.669 33.846 177.265 34.899 175.198 34.912ZM175.12 31.025C176.628 31.025 177.369 29.855 177.369 28.438C177.369 27.073 176.589 25.851 175.12 25.851C173.651 25.851 172.91 27.086 172.91 28.438C172.91 29.842 173.664 31.025 175.12 31.025ZM182.307 22.77C182.307 23.264 181.917 23.641 181.436 23.641C180.955 23.641 180.578 23.264 180.578 22.77C180.578 22.289 180.955 21.925 181.436 21.925C181.917 21.925 182.307 22.289 182.307 22.77ZM180.799 32V25.175H182.099V32H180.799ZM185.45 28.23V32H184.15V25.175H185.242L185.45 26.371C185.853 25.63 186.698 25.045 187.816 25.045C189.714 25.045 190.832 26.228 190.832 28.126V32H189.532V28.217C189.532 26.878 188.856 25.929 187.53 25.929C186.243 25.929 185.45 26.982 185.45 28.23Z" fill="black"/>
</g>
<g filter="url(#filter1_f_34_110)">
<path d="M263.576 2H156.667H82.4241" stroke="url(#paint2_linear_34_110)"/>
</g>
<g filter="url(#filter2_f_34_110)">
<path d="M266.293 56H159.918H86.0471" stroke="url(#paint3_linear_34_110)"/>
</g>
<defs>
<filter id="filter0_f_34_110" x="77.2461" y="9" width="192" height="116" filterUnits="userSpaceOnUse" color-interpolation-filters="sRGB">
<feFlood flood-opacity="0" result="BackgroundImageFix"/>
<feBlend mode="normal" in="SourceGraphic" in2="BackgroundImageFix" result="shape"/>
<feGaussianBlur stdDeviation="16.5" result="effect1_foregroundBlur_34_110"/>
</filter>
<filter id="filter1_f_34_110" x="81.4241" y="0.5" width="183.152" height="3" filterUnits="userSpaceOnUse" color-interpolation-filters="sRGB">
<feFlood flood-opacity="0" result="BackgroundImageFix"/>
<feBlend mode="normal" in="SourceGraphic" in2="BackgroundImageFix" result="shape"/>
<feGaussianBlur stdDeviation="0.5" result="effect1_foregroundBlur_34_110"/>
</filter>
<filter id="filter2_f_34_110" x="85.0471" y="54.5" width="182.246" height="3" filterUnits="userSpaceOnUse" color-interpolation-filters="sRGB">
<feFlood flood-opacity="0" result="BackgroundImageFix"/>
<feBlend mode="normal" in="SourceGraphic" in2="BackgroundImageFix" result="shape"/>
<feGaussianBlur stdDeviation="0.5" result="effect1_foregroundBlur_34_110"/>
</filter>
<linearGradient id="paint0_linear_34_110" x1="190.67" y1="28.5" x2="152.721" y2="51.2379" gradientUnits="userSpaceOnUse">
<stop stop-color="white" stop-opacity="0"/>
<stop offset="0.551517" stop-color="white"/>
<stop offset="1" stop-color="white" stop-opacity="0"/>
</linearGradient>
<linearGradient id="paint1_linear_34_110" x1="7.24606" y1="50.18" x2="23.6693" y2="-45.3694" gradientUnits="userSpaceOnUse">
<stop stop-color="#E9866E"/>
<stop offset="0.515" stop-color="#959189"/>
<stop offset="1" stop-color="#4A9CA5"/>
</linearGradient>
<linearGradient id="paint2_linear_34_110" x1="222" y1="0.5" x2="179.821" y2="52.0778" gradientUnits="userSpaceOnUse">
<stop stop-color="white" stop-opacity="0"/>
<stop offset="0.551517" stop-color="white"/>
<stop offset="1" stop-color="white" stop-opacity="0"/>
</linearGradient>
<linearGradient id="paint3_linear_34_110" x1="224.925" y1="54.5" x2="182.704" y2="105.87" gradientUnits="userSpaceOnUse">
<stop stop-color="white" stop-opacity="0"/>
<stop offset="0.551517" stop-color="white"/>
<stop offset="1" stop-color="white" stop-opacity="0"/>
</linearGradient>
<clipPath id="clip0_34_110">
<rect x="7.24606" y="7" width="332.069" height="43.18" rx="21.59" fill="white"/>
</clipPath>
</defs>
</svg>
