<svg width="214" height="21" viewBox="0 0 214 21" fill="none" xmlns="http://www.w3.org/2000/svg">
<path d="M0.32 16V1.6H3.56V13H8.96V16H0.32ZM9.98969 10.56C9.98969 7.26 12.3297 4.88 15.6897 4.88C19.0697 4.88 21.3897 7.26 21.3897 10.56C21.3897 13.84 19.0697 16.26 15.6897 16.26C12.3497 16.26 9.98969 13.84 9.98969 10.56ZM15.6897 13.4C17.1097 13.4 18.1497 12.36 18.1497 10.74C18.1497 9.18 17.0897 8.06 15.6897 8.06C14.2697 8.06 13.2497 9.18 13.2497 10.74C13.2497 12.36 14.2897 13.4 15.6897 13.4ZM30.8088 15.06V14.24H30.7288C30.1088 15.18 28.9888 15.8 27.5488 15.8C24.6888 15.8 22.5288 13.86 22.5288 10.54C22.5288 6.96 24.8088 4.88 27.5488 4.88C28.9688 4.88 30.1088 5.48 30.7288 6.62H30.8088V5.14H33.8488V14.74C33.8488 18.14 31.8888 20.16 28.3088 20.16C27.0688 20.16 26.2088 20.06 25.4888 19.86L25.7288 17.32C26.2488 17.46 26.8888 17.52 27.7288 17.52C29.8888 17.52 30.8088 16.72 30.8088 15.06ZM28.2088 8.06C26.8288 8.06 25.7888 9.16 25.7888 10.7C25.7888 12.28 26.8288 13.32 28.2088 13.32C29.6288 13.32 30.6688 12.34 30.6688 10.7C30.6688 9.12 29.6288 8.06 28.2088 8.06ZM37.7156 4.1C36.6356 4.1 35.8156 3.38 35.8156 2.26C35.8156 1.14 36.6156 0.419999 37.7156 0.419999C38.8356 0.419999 39.6156 1.14 39.6156 2.26C39.6156 3.38 38.7956 4.1 37.7156 4.1ZM36.1756 16V5.14H39.2756V16H36.1756ZM41.6053 16V5.14H44.6453V6.56H44.7253C45.4053 5.54 46.4053 4.88 47.9653 4.88C50.6053 4.88 51.9653 6.68 51.9653 9.32V16H48.8853V10.62C48.8853 9.16 48.2653 8.14 46.8053 8.14C45.3653 8.14 44.7053 9.14 44.7053 10.66V16H41.6053ZM57.5598 4.92V1.6H68.2798V4.92H64.5398V16H61.2998V4.92H57.5598ZM67.9389 10.56C67.9389 7.26 70.2789 4.88 73.6389 4.88C77.0189 4.88 79.3389 7.26 79.3389 10.56C79.3389 13.84 77.0189 16.26 73.6389 16.26C70.2989 16.26 67.9389 13.84 67.9389 10.56ZM73.6389 13.4C75.0589 13.4 76.0989 12.36 76.0989 10.74C76.0989 9.18 75.0389 8.06 73.6389 8.06C72.2189 8.06 71.1989 9.18 71.1989 10.74C71.1989 12.36 72.2389 13.4 73.6389 13.4ZM92.7939 16H89.5539V11.22L84.3739 1.6H88.1339L91.2539 8.1L94.3339 1.6H97.8739L92.7939 11.2V16ZM96.6889 10.56C96.6889 7.26 99.0289 4.88 102.389 4.88C105.769 4.88 108.089 7.26 108.089 10.56C108.089 13.84 105.769 16.26 102.389 16.26C99.0489 16.26 96.6889 13.84 96.6889 10.56ZM102.389 13.4C103.809 13.4 104.849 12.36 104.849 10.74C104.849 9.18 103.789 8.06 102.389 8.06C100.969 8.06 99.9489 9.18 99.9489 10.74C99.9489 12.36 100.989 13.4 102.389 13.4ZM119.928 5.14V16H116.888V14.66H116.808C116.168 15.62 115.248 16.26 113.768 16.26C111.108 16.26 109.728 14.46 109.728 11.82V5.14H112.828V10.94C112.828 12.4 113.388 13.4 114.808 13.4C116.188 13.4 116.828 12.36 116.828 10.88V5.14H119.928ZM122.25 16V5.14H125.29V6.58H125.37C125.93 5.42 127.25 4.88 129.01 4.88L128.81 8.42C126.25 8.32 125.35 9.34 125.35 11.86V16H122.25ZM144.786 16L143.806 13.28H138.266L137.286 16H133.966L139.206 1.6H143.086L148.346 16H144.786ZM142.826 10.42L141.026 5.36L139.206 10.42H142.826ZM157.24 12.86L157.46 15.64C156.74 16 155.72 16.26 154.68 16.26C151.12 16.26 148.74 14.18 148.74 10.56C148.74 7.18 150.92 4.88 154.52 4.88C155.62 4.88 156.68 5.12 157.44 5.46L157.2 8.56C156.56 8.24 155.8 8.06 154.92 8.06C153.08 8.06 152 9.16 152 10.76C152 12.4 153.12 13.4 154.9 13.4C155.68 13.4 156.54 13.22 157.24 12.86ZM167.123 12.86L167.343 15.64C166.623 16 165.603 16.26 164.563 16.26C161.002 16.26 158.623 14.18 158.623 10.56C158.623 7.18 160.803 4.88 164.403 4.88C165.503 4.88 166.563 5.12 167.323 5.46L167.083 8.56C166.443 8.24 165.683 8.06 164.803 8.06C162.963 8.06 161.883 9.16 161.883 10.76C161.883 12.4 163.003 13.4 164.783 13.4C165.563 13.4 166.423 13.22 167.123 12.86ZM168.505 10.56C168.505 7.26 170.845 4.88 174.205 4.88C177.585 4.88 179.905 7.26 179.905 10.56C179.905 13.84 177.585 16.26 174.205 16.26C170.865 16.26 168.505 13.84 168.505 10.56ZM174.205 13.4C175.625 13.4 176.665 12.36 176.665 10.74C176.665 9.18 175.605 8.06 174.205 8.06C172.785 8.06 171.765 9.18 171.765 10.74C171.765 12.36 172.805 13.4 174.205 13.4ZM191.744 5.14V16H188.704V14.66H188.624C187.984 15.62 187.064 16.26 185.584 16.26C182.924 16.26 181.544 14.46 181.544 11.82V5.14H184.644V10.94C184.644 12.4 185.204 13.4 186.624 13.4C188.004 13.4 188.644 12.36 188.644 10.88V5.14H191.744ZM194.066 16V5.14H197.106V6.56H197.186C197.866 5.54 198.866 4.88 200.426 4.88C203.066 4.88 204.426 6.68 204.426 9.32V16H201.346V10.62C201.346 9.16 200.726 8.14 199.266 8.14C197.826 8.14 197.166 9.14 197.166 10.66V16H194.066ZM207.286 11.94V8.1H205.606V5.14H207.526L207.866 2.4H210.386V5.14H213.226V8.1H210.386V11.76C210.386 12.96 210.926 13.4 211.846 13.4C212.406 13.4 212.826 13.32 213.226 13.22L213.446 15.98C212.886 16.16 212.046 16.26 211.286 16.26C208.226 16.26 207.286 14.52 207.286 11.94Z" fill="url(#paint0_linear_34_106)"/>
<defs>
<linearGradient id="paint0_linear_34_106" x1="-1" y1="24" x2="12.8082" y2="-46.1855" gradientUnits="userSpaceOnUse">
<stop stop-color="#E9866E"/>
<stop offset="0.515" stop-color="#959189"/>
<stop offset="1" stop-color="#4A9CA5"/>
</linearGradient>
</defs>
</svg>
