<svg width="159" height="56" viewBox="0 0 159 56" fill="none" xmlns="http://www.w3.org/2000/svg">
<path d="M5.78298 13.984H4.77498V19H0.886979V1.72H5.73498C10.175 1.72 13.223 3.592 13.223 7.792C13.223 12.016 10.175 13.984 5.78298 13.984ZM6.04698 5.728H4.77498V10.576H5.97498C8.01498 10.576 9.23898 9.808 9.23898 8.104C9.23898 6.448 8.03898 5.728 6.04698 5.728ZM22.2085 10.72C22.2085 9.952 21.4405 9.472 19.8325 9.472C18.2725 9.472 16.8085 9.928 15.6565 10.456L15.3925 6.736C16.5205 6.136 18.2245 5.656 20.2165 5.656C24.2965 5.656 26.0485 7.552 26.0485 11.056V19H22.2565V17.416C21.2965 18.568 20.1925 19.312 18.2725 19.312C16.1125 19.312 14.5525 18.184 14.5525 16C14.5525 13.216 16.7845 12.4 19.5685 11.944C20.6245 11.752 21.2005 11.608 21.7045 11.416C22.1125 11.248 22.2085 11.056 22.2085 10.72ZM22.2565 13.336C21.8725 13.528 21.2485 13.768 20.4565 13.936C19.2085 14.224 18.4405 14.536 18.4405 15.616C18.4405 16.48 19.1605 16.888 20.0725 16.888C21.1285 16.888 21.8965 16.24 22.2565 15.448V13.336ZM28.5387 19V5.968H32.1867V7.696H32.2827C32.9547 6.304 34.5387 5.656 36.6507 5.656L36.4107 9.904C33.3387 9.784 32.2587 11.008 32.2587 14.032V19H28.5387ZM49.1602 18.736C48.0082 19.144 46.7122 19.312 45.2962 19.312C40.5922 19.312 37.5922 16.912 37.5922 12.424C37.5922 8.536 40.1362 5.656 44.0482 5.656C48.0322 5.656 50.0242 8.776 50.0242 12.304C50.0242 12.832 50.0002 13.408 49.9042 13.84H41.7442C42.2242 15.496 43.7122 16.24 45.9682 16.24C47.0722 16.24 47.9842 16.096 48.8482 15.784L49.1602 18.736ZM44.0962 9.112C42.8962 9.112 41.8162 9.808 41.5522 11.56H46.5202C46.4482 10.192 45.4882 9.112 44.0962 9.112ZM52.07 19V5.968H55.718V7.672H55.814C56.63 6.448 57.83 5.656 59.702 5.656C62.87 5.656 64.502 7.816 64.502 10.984V19H60.806V12.544C60.806 10.792 60.062 9.568 58.31 9.568C56.582 9.568 55.79 10.768 55.79 12.592V19H52.07ZM67.934 14.128V9.52H65.918V5.968H68.222L68.63 2.68H71.654V5.968H75.062V9.52H71.654V13.912C71.654 15.352 72.302 15.88 73.406 15.88C74.078 15.88 74.582 15.784 75.062 15.664L75.326 18.976C74.654 19.192 73.646 19.312 72.734 19.312C69.062 19.312 67.934 17.224 67.934 14.128ZM94.2535 19L93.0775 15.736H86.4295L85.2535 19H81.2695L87.5575 1.72H92.2135L98.5255 19H94.2535ZM91.9015 12.304L89.7415 6.232L87.5575 12.304H91.9015ZM112.942 0.759999V19H109.27V17.416H109.198C108.43 18.568 106.966 19.312 105.19 19.312C101.71 19.312 99.0219 16.792 99.0219 12.448C99.0219 8.152 101.854 5.656 105.214 5.656C106.918 5.656 108.406 6.376 109.126 7.744H109.222V0.759999H112.942ZM106.006 9.472C104.278 9.472 102.934 10.768 102.934 12.688C102.934 14.68 104.254 15.88 106.006 15.88C107.758 15.88 109.126 14.68 109.126 12.664C109.126 10.648 107.758 9.472 106.006 9.472ZM128.926 0.759999V19H125.254V17.416H125.182C124.414 18.568 122.95 19.312 121.174 19.312C117.694 19.312 115.006 16.792 115.006 12.448C115.006 8.152 117.838 5.656 121.198 5.656C122.902 5.656 124.39 6.376 125.11 7.744H125.206V0.759999H128.926ZM121.99 9.472C120.262 9.472 118.918 10.768 118.918 12.688C118.918 14.68 120.238 15.88 121.99 15.88C123.742 15.88 125.11 14.68 125.11 12.664C125.11 10.648 123.742 9.472 121.99 9.472ZM142.559 18.736C141.407 19.144 140.111 19.312 138.695 19.312C133.991 19.312 130.991 16.912 130.991 12.424C130.991 8.536 133.535 5.656 137.447 5.656C141.431 5.656 143.423 8.776 143.423 12.304C143.423 12.832 143.399 13.408 143.303 13.84H135.143C135.623 15.496 137.111 16.24 139.367 16.24C140.471 16.24 141.383 16.096 142.247 15.784L142.559 18.736ZM137.495 9.112C136.295 9.112 135.215 9.808 134.951 11.56H139.919C139.847 10.192 138.887 9.112 137.495 9.112ZM158.668 0.759999V19H154.996V17.416H154.924C154.156 18.568 152.692 19.312 150.916 19.312C147.436 19.312 144.748 16.792 144.748 12.448C144.748 8.152 147.58 5.656 150.94 5.656C152.644 5.656 154.132 6.376 154.852 7.744H154.948V0.759999H158.668ZM151.732 9.472C150.004 9.472 148.66 10.768 148.66 12.688C148.66 14.68 149.98 15.88 151.732 15.88C153.484 15.88 154.852 14.68 154.852 12.664C154.852 10.648 153.484 9.472 151.732 9.472ZM10.6944 50.352L10.8864 46.728C12.0144 47.208 13.7184 47.616 15.5664 47.616C17.5104 47.616 18.4704 47.016 18.4704 45.984C18.4704 45 17.6304 44.568 15.7104 44.136C12.3984 43.416 10.5024 42.096 10.5024 38.88C10.5024 35.76 12.3984 33.408 16.7904 33.408C18.9264 33.408 20.1264 33.696 21.4704 34.248L21.2544 38.328C19.8864 37.896 18.5664 37.608 17.0064 37.608C15.3264 37.608 14.4864 38.16 14.4864 39.096C14.4864 39.888 15.0864 40.32 17.0784 40.776C20.4624 41.52 22.4544 42.72 22.4544 45.888C22.4544 48.96 20.4384 51.312 15.8064 51.312C13.3584 51.312 12.1344 50.904 10.6944 50.352ZM36.5337 37.968V51H32.8857V49.392H32.7897C32.0217 50.544 30.9177 51.312 29.1417 51.312C25.9497 51.312 24.2937 49.152 24.2937 45.984V37.968H28.0137V44.928C28.0137 46.68 28.6857 47.88 30.3897 47.88C32.0457 47.88 32.8137 46.632 32.8137 44.856V37.968H36.5337ZM48.8 47.232L49.064 50.568C48.2 51 46.976 51.312 45.728 51.312C41.456 51.312 38.6 48.816 38.6 44.472C38.6 40.416 41.216 37.656 45.536 37.656C46.856 37.656 48.128 37.944 49.04 38.352L48.752 42.072C47.984 41.688 47.072 41.472 46.016 41.472C43.808 41.472 42.512 42.792 42.512 44.712C42.512 46.68 43.856 47.88 45.992 47.88C46.928 47.88 47.96 47.664 48.8 47.232ZM60.6594 47.232L60.9234 50.568C60.0594 51 58.8354 51.312 57.5874 51.312C53.3154 51.312 50.4594 48.816 50.4594 44.472C50.4594 40.416 53.0754 37.656 57.3954 37.656C58.7154 37.656 59.9874 37.944 60.8994 38.352L60.6114 42.072C59.8434 41.688 58.9314 41.472 57.8754 41.472C55.6674 41.472 54.3714 42.792 54.3714 44.712C54.3714 46.68 55.7154 47.88 57.8514 47.88C58.7874 47.88 59.8194 47.664 60.6594 47.232ZM73.8867 50.736C72.7347 51.144 71.4387 51.312 70.0227 51.312C65.3187 51.312 62.3187 48.912 62.3187 44.424C62.3187 40.536 64.8627 37.656 68.7747 37.656C72.7587 37.656 74.7507 40.776 74.7507 44.304C74.7507 44.832 74.7267 45.408 74.6307 45.84H66.4707C66.9507 47.496 68.4387 48.24 70.6947 48.24C71.7987 48.24 72.7107 48.096 73.5747 47.784L73.8867 50.736ZM68.8227 41.112C67.6227 41.112 66.5427 41.808 66.2787 43.56H71.2467C71.1747 42.192 70.2147 41.112 68.8227 41.112ZM76.2205 50.496L76.4845 47.544C77.3725 47.904 78.9805 48.24 80.6125 48.24C81.9085 48.24 82.7485 48.024 82.7485 47.304C82.7485 46.728 82.3405 46.512 80.1565 46.032C77.6365 45.48 76.1725 44.544 76.1725 42C76.1725 39.552 78.0685 37.656 81.7405 37.656C83.3485 37.656 84.7645 38.016 85.5325 38.352L85.2685 42.096C84.3085 41.76 83.0125 41.472 81.6685 41.472C80.3965 41.472 79.8205 41.712 79.8205 42.312C79.8205 42.888 80.1805 43.08 82.2685 43.44C84.7405 43.896 86.2765 44.904 86.2765 47.112C86.2765 49.824 84.4045 51.312 80.7325 51.312C78.8125 51.312 77.2525 50.928 76.2205 50.496ZM87.4471 50.496L87.7111 47.544C88.5991 47.904 90.2071 48.24 91.8391 48.24C93.1351 48.24 93.9751 48.024 93.9751 47.304C93.9751 46.728 93.5671 46.512 91.3831 46.032C88.8631 45.48 87.3991 44.544 87.3991 42C87.3991 39.552 89.2951 37.656 92.9671 37.656C94.5751 37.656 95.9911 38.016 96.7591 38.352L96.4951 42.096C95.5351 41.76 94.2391 41.472 92.8951 41.472C91.6231 41.472 91.0471 41.712 91.0471 42.312C91.0471 42.888 91.4071 43.08 93.4951 43.44C95.9671 43.896 97.5031 44.904 97.5031 47.112C97.5031 49.824 95.6311 51.312 91.9591 51.312C90.0391 51.312 88.4791 50.928 87.4471 50.496ZM98.1937 41.52V37.968H100.09V37.08C100.09 34.344 101.77 32.448 104.938 32.448C105.994 32.448 106.858 32.544 107.53 32.736L107.242 35.76C106.762 35.64 106.258 35.592 105.634 35.592C104.242 35.592 103.81 36.216 103.81 37.2V37.968H106.978V41.52H103.81V51H100.09V41.52H98.1937ZM120.838 37.968V51H117.19V49.392H117.094C116.326 50.544 115.222 51.312 113.446 51.312C110.254 51.312 108.598 49.152 108.598 45.984V37.968H112.318V44.928C112.318 46.68 112.99 47.88 114.694 47.88C116.35 47.88 117.118 46.632 117.118 44.856V37.968H120.838ZM123.625 51V32.76H127.345V51H123.625ZM130.14 51V32.76H133.86V51H130.14ZM139.272 55.872C138.168 55.872 137.376 55.752 136.728 55.584L136.992 52.536C137.448 52.656 137.808 52.752 138.456 52.752C139.608 52.752 140.16 52.44 140.448 51.624L140.616 51.168L135.408 37.968H139.872L142.656 47.664L145.344 37.968H149.52L144.48 51.384C143.568 53.784 142.344 55.872 139.272 55.872Z" fill="url(#paint0_linear_1_595)"/>
<defs>
<linearGradient id="paint0_linear_1_595" x1="-10.3181" y1="58" x2="45.8099" y2="-61.4248" gradientUnits="userSpaceOnUse">
<stop stop-color="#E9866E"/>
<stop offset="0.515" stop-color="#959189"/>
<stop offset="1" stop-color="#4A9CA5"/>
</linearGradient>
</defs>
</svg>
