<svg width="397" height="381" viewBox="0 0 397 381" fill="none" xmlns="http://www.w3.org/2000/svg">
<g clip-path="url(#clip0_1_138)">
<rect width="397" height="381" rx="23" fill="#1D1D1F"/>
<g filter="url(#filter0_f_1_138)">
<ellipse cx="200" cy="-15.5" rx="28" ry="20.5" fill="#D9D9D9"/>
</g>
<g filter="url(#filter1_f_1_138)">
<ellipse cx="327.5" cy="162" rx="36.5" ry="30" fill="url(#paint0_linear_1_138)"/>
</g>
<g filter="url(#filter2_f_1_138)">
<ellipse cx="373.5" cy="142" rx="36.5" ry="30" fill="#E9866E"/>
</g>
<g filter="url(#filter3_f_1_138)">
<ellipse cx="52.5" cy="166" rx="144.5" ry="28" fill="#767676" fill-opacity="0.76"/>
</g>
<path d="M327 44H313C311.895 44 311 44.8954 311 46V53C311 54.1046 311.895 55 313 55H327C328.105 55 329 54.1046 329 53V46C329 44.8954 328.105 44 327 44Z" stroke="url(#paint1_linear_1_138)" stroke-width="2" stroke-linecap="round" stroke-linejoin="round"/>
<path d="M315 44V40C315 38.6739 315.527 37.4021 316.464 36.4645C317.402 35.5268 318.674 35 320 35C321.326 35 322.598 35.5268 323.536 36.4645C324.473 37.4021 325 38.6739 325 40" stroke="url(#paint2_linear_1_138)" stroke-width="2" stroke-linecap="round" stroke-linejoin="round"/>
<path d="M204 43H190C188.895 43 188 43.8954 188 45V52C188 53.1046 188.895 54 190 54H204C205.105 54 206 53.1046 206 52V45C206 43.8954 205.105 43 204 43Z" stroke="url(#paint3_linear_1_138)" stroke-width="2" stroke-linecap="round" stroke-linejoin="round"/>
<path d="M192 43V39C192 37.6739 192.527 36.4021 193.464 35.4645C194.402 34.5268 195.674 34 197 34C198.326 34 199.598 34.5268 200.536 35.4645C201.473 36.4021 201.909 40.4921 201.909 41.8182" stroke="url(#paint4_linear_1_138)" stroke-width="2" stroke-linecap="round" stroke-linejoin="round"/>
<path d="M64 52C64.8284 52 65.5 51.3284 65.5 50.5C65.5 49.6716 64.8284 49 64 49C63.1716 49 62.5 49.6716 62.5 50.5C62.5 51.3284 63.1716 52 64 52Z" fill="url(#paint5_linear_1_138)"/>
<path fill-rule="evenodd" clip-rule="evenodd" d="M57 52C57 53.5067 58.0762 55 59.7143 55H68.2857C69.9238 55 71 53.5067 71 52V36C71 34.4933 69.9238 33 68.2857 33H59.7143C58.0762 33 57 34.4933 57 36V52ZM59.7143 53C59.4589 53 59 52.7025 59 52V36C59 35.2975 59.4589 35 59.7143 35H68.2857C68.5411 35 69 35.2975 69 36V52C69 52.7025 68.5411 53 68.2857 53H59.7143Z" fill="url(#paint6_linear_1_138)"/>
<path d="M37.6209 71.252V69.64H44.4069V71.252H41.8069V79H40.2339V71.252H37.6209ZM43.9047 75.555C43.9047 73.449 45.3347 71.967 47.4277 71.967C49.5207 71.967 50.9637 73.449 50.9637 75.555C50.9637 77.622 49.5207 79.156 47.4277 79.156C45.3477 79.156 43.9047 77.622 43.9047 75.555ZM47.4277 77.752C48.5977 77.752 49.3777 76.907 49.3777 75.633C49.3777 74.411 48.5197 73.553 47.4277 73.553C46.2837 73.553 45.4777 74.411 45.4777 75.633C45.4777 76.894 46.2707 77.752 47.4277 77.752ZM52.31 76.712V73.592H51.153V72.123H52.401L52.583 70.342H53.818V72.123H55.729V73.592H53.818V76.621C53.818 77.453 54.234 77.752 54.858 77.752C55.209 77.752 55.482 77.7 55.729 77.622L55.846 78.974C55.534 79.091 55.053 79.156 54.598 79.156C52.921 79.156 52.31 78.207 52.31 76.712ZM60.5078 74.476C60.5078 73.93 60.0658 73.553 59.0388 73.553C58.2068 73.553 57.4268 73.787 56.8678 74.06L56.7508 72.539C57.3488 72.214 58.2068 71.967 59.1948 71.967C61.2618 71.967 62.0938 72.968 62.0938 74.619V79H60.5468V78.025C60.0528 78.675 59.4288 79.156 58.3368 79.156C57.1668 79.156 56.2958 78.532 56.2958 77.375C56.2958 75.971 57.3228 75.503 58.9608 75.23C59.5848 75.126 59.9618 75.035 60.2608 74.892C60.4688 74.801 60.5078 74.684 60.5078 74.476ZM60.5468 75.724C60.2868 75.88 59.8058 76.036 59.2338 76.14C58.3498 76.309 57.8818 76.53 57.8818 77.219C57.8818 77.817 58.3758 78.103 58.9868 78.103C59.7668 78.103 60.3128 77.609 60.5468 77.05V75.724ZM63.5103 79V69.12H65.0183V79H63.5103ZM69.2642 79V69.64H70.8372V73.917L74.2172 69.64H76.2062L72.3192 74.294L76.5572 79H74.5422L70.8372 74.918V79H69.2642ZM82.269 78.805C81.658 79.052 80.956 79.156 80.228 79.156C77.81 79.156 76.328 77.817 76.328 75.529C76.328 73.488 77.615 71.967 79.63 71.967C81.749 71.967 82.724 73.683 82.724 75.373C82.724 75.62 82.711 75.893 82.685 76.075H77.992C78.174 77.206 79.058 77.882 80.462 77.882C81.099 77.882 81.645 77.778 82.139 77.583L82.269 78.805ZM79.643 73.423C78.785 73.423 78.07 73.956 77.927 75.087H81.307C81.229 74.164 80.618 73.423 79.643 73.423ZM84.6457 81.626C84.1517 81.626 83.7747 81.561 83.4887 81.47L83.6057 80.209C83.8267 80.274 84.0347 80.326 84.3337 80.326C84.9967 80.326 85.2697 80.092 85.4907 79.494L85.6597 79.065L82.8387 72.123H84.6717L86.4917 77.609L88.2207 72.123H89.9367L87.1027 79.416C86.6347 80.651 86.1277 81.626 84.6457 81.626ZM90.1545 78.727L90.2715 77.505C90.7785 77.713 91.5585 77.882 92.3905 77.882C93.2355 77.882 93.8205 77.674 93.8205 77.102C93.8205 76.647 93.5085 76.439 92.2865 76.14C90.9345 75.828 90.1805 75.347 90.1805 74.099C90.1805 72.864 91.1685 71.967 92.9495 71.967C93.7945 71.967 94.4705 72.162 94.9125 72.344L94.7955 73.865C94.3015 73.696 93.6645 73.553 92.9235 73.553C92.1175 73.553 91.6755 73.735 91.6755 74.216C91.6755 74.645 91.9745 74.827 93.0925 75.048C94.4965 75.334 95.2765 75.841 95.2765 77.037C95.2765 78.363 94.3145 79.156 92.4425 79.156C91.4805 79.156 90.7395 78.974 90.1545 78.727Z" fill="#F4FFEE"/>
<path d="M52.7636 114.04L53.4436 105.98H61.7236V108.2H54.8636L54.5236 111.86C55.3436 110.98 56.5436 110.5 57.9236 110.5C60.8036 110.5 62.7636 112.32 62.7636 115.18C62.7636 118.24 60.6436 120.2 57.5236 120.2C54.8436 120.2 52.5636 118.86 52.5636 116.48V116.2H55.2436C55.2436 117.7 56.0436 118.74 57.5836 118.74C59.4236 118.74 60.0836 117.14 60.0836 115.36C60.0836 113.56 59.1436 112.12 57.2836 112.12C55.9236 112.12 54.9636 113 54.5636 114.04H52.7636ZM64.18 114.04L64.86 105.98H73.14V108.2H66.28L65.94 111.86C66.76 110.98 67.96 110.5 69.34 110.5C72.22 110.5 74.18 112.32 74.18 115.18C74.18 118.24 72.06 120.2 68.94 120.2C66.26 120.2 63.98 118.86 63.98 116.48V116.2H66.66C66.66 117.7 67.46 118.74 69 118.74C70.84 118.74 71.5 117.14 71.5 115.36C71.5 113.56 70.56 112.12 68.7 112.12C67.34 112.12 66.38 113 65.98 114.04H64.18Z" fill="#F4FFEE"/>
<path d="M184.906 71.252V69.64H191.692V71.252H189.092V79H187.519V71.252H184.906ZM191.189 75.555C191.189 73.449 192.619 71.967 194.712 71.967C196.805 71.967 198.248 73.449 198.248 75.555C198.248 77.622 196.805 79.156 194.712 79.156C192.632 79.156 191.189 77.622 191.189 75.555ZM194.712 77.752C195.882 77.752 196.662 76.907 196.662 75.633C196.662 74.411 195.804 73.553 194.712 73.553C193.568 73.553 192.762 74.411 192.762 75.633C192.762 76.894 193.555 77.752 194.712 77.752ZM199.595 76.712V73.592H198.438V72.123H199.686L199.868 70.342H201.103V72.123H203.014V73.592H201.103V76.621C201.103 77.453 201.519 77.752 202.143 77.752C202.494 77.752 202.767 77.7 203.014 77.622L203.131 78.974C202.819 79.091 202.338 79.156 201.883 79.156C200.206 79.156 199.595 78.207 199.595 76.712ZM207.792 74.476C207.792 73.93 207.35 73.553 206.323 73.553C205.491 73.553 204.711 73.787 204.152 74.06L204.035 72.539C204.633 72.214 205.491 71.967 206.479 71.967C208.546 71.967 209.378 72.968 209.378 74.619V79H207.831V78.025C207.337 78.675 206.713 79.156 205.621 79.156C204.451 79.156 203.58 78.532 203.58 77.375C203.58 75.971 204.607 75.503 206.245 75.23C206.869 75.126 207.246 75.035 207.545 74.892C207.753 74.801 207.792 74.684 207.792 74.476ZM207.831 75.724C207.571 75.88 207.09 76.036 206.518 76.14C205.634 76.309 205.166 76.53 205.166 77.219C205.166 77.817 205.66 78.103 206.271 78.103C207.051 78.103 207.597 77.609 207.831 77.05V75.724ZM210.795 79V69.12H212.303V79H210.795ZM176.159 92V82.64H178.668C180.982 82.64 181.97 83.498 181.97 84.967C181.97 85.89 181.58 86.644 180.67 86.969C181.827 87.307 182.412 88.126 182.412 89.296C182.412 90.765 181.554 92 178.876 92H176.159ZM178.655 84.265H177.693V86.722H178.616C179.955 86.722 180.358 86.215 180.358 85.422C180.358 84.681 179.903 84.265 178.655 84.265ZM178.811 87.918H177.693V90.687H178.889C180.319 90.687 180.8 90.128 180.8 89.309C180.8 88.386 180.085 87.918 178.811 87.918ZM187.258 87.476C187.258 86.93 186.816 86.553 185.789 86.553C184.957 86.553 184.177 86.787 183.618 87.06L183.501 85.539C184.099 85.214 184.957 84.967 185.945 84.967C188.012 84.967 188.844 85.968 188.844 87.619V92H187.297V91.025C186.803 91.675 186.179 92.156 185.087 92.156C183.917 92.156 183.046 91.532 183.046 90.375C183.046 88.971 184.073 88.503 185.711 88.23C186.335 88.126 186.712 88.035 187.011 87.892C187.219 87.801 187.258 87.684 187.258 87.476ZM187.297 88.724C187.037 88.88 186.556 89.036 185.984 89.14C185.1 89.309 184.632 89.53 184.632 90.219C184.632 90.817 185.126 91.103 185.737 91.103C186.517 91.103 187.063 90.609 187.297 90.05V88.724ZM190.261 92V82.12H191.769V92H190.261ZM197.033 87.476C197.033 86.93 196.591 86.553 195.564 86.553C194.732 86.553 193.952 86.787 193.393 87.06L193.276 85.539C193.874 85.214 194.732 84.967 195.72 84.967C197.787 84.967 198.619 85.968 198.619 87.619V92H197.072V91.025C196.578 91.675 195.954 92.156 194.862 92.156C193.692 92.156 192.821 91.532 192.821 90.375C192.821 88.971 193.848 88.503 195.486 88.23C196.11 88.126 196.487 88.035 196.786 87.892C196.994 87.801 197.033 87.684 197.033 87.476ZM197.072 88.724C196.812 88.88 196.331 89.036 195.759 89.14C194.875 89.309 194.407 89.53 194.407 90.219C194.407 90.817 194.901 91.103 195.512 91.103C196.292 91.103 196.838 90.609 197.072 90.05V88.724ZM199.833 92V85.123H201.315V86.163H201.354C201.757 85.448 202.459 84.967 203.512 84.967C205.306 84.967 206.112 86.176 206.112 87.84V92H204.604V88.464C204.604 87.372 204.136 86.579 202.992 86.579C201.887 86.579 201.341 87.346 201.341 88.529V92H199.833ZM212.472 90.388L212.589 91.74C212.108 91.987 211.458 92.156 210.769 92.156C208.559 92.156 207.077 90.791 207.077 88.529C207.077 86.449 208.416 84.967 210.678 84.967C211.432 84.967 212.069 85.136 212.55 85.357L212.42 86.891C212.004 86.67 211.458 86.553 210.847 86.553C209.495 86.553 208.65 87.411 208.65 88.62C208.65 89.92 209.534 90.752 210.873 90.752C211.432 90.752 211.991 90.622 212.472 90.388ZM219.004 91.805C218.393 92.052 217.691 92.156 216.963 92.156C214.545 92.156 213.063 90.817 213.063 88.529C213.063 86.488 214.35 84.967 216.365 84.967C218.484 84.967 219.459 86.683 219.459 88.373C219.459 88.62 219.446 88.893 219.42 89.075H214.727C214.909 90.206 215.793 90.882 217.197 90.882C217.834 90.882 218.38 90.778 218.874 90.583L219.004 91.805ZM216.378 86.423C215.52 86.423 214.805 86.956 214.662 88.087H218.042C217.964 87.164 217.353 86.423 216.378 86.423Z" fill="#F4FFEE"/>
<path d="M185.764 114.04L186.444 105.98H194.724V108.2H187.864L187.524 111.86C188.344 110.98 189.544 110.5 190.924 110.5C193.804 110.5 195.764 112.32 195.764 115.18C195.764 118.24 193.644 120.2 190.524 120.2C187.844 120.2 185.564 118.86 185.564 116.48V116.2H188.244C188.244 117.7 189.044 118.74 190.584 118.74C192.424 118.74 193.084 117.14 193.084 115.36C193.084 113.56 192.144 112.12 190.284 112.12C188.924 112.12 187.964 113 187.564 114.04H185.764ZM197.18 114.04L197.86 105.98H206.14V108.2H199.28L198.94 111.86C199.76 110.98 200.96 110.5 202.34 110.5C205.22 110.5 207.18 112.32 207.18 115.18C207.18 118.24 205.06 120.2 201.94 120.2C199.26 120.2 196.98 118.86 196.98 116.48V116.2H199.66C199.66 117.7 200.46 118.74 202 118.74C203.84 118.74 204.5 117.14 204.5 115.36C204.5 113.56 203.56 112.12 201.7 112.12C200.34 112.12 199.38 113 198.98 114.04H197.18Z" fill="#F4FFEE"/>
<path d="M308.652 71.252V69.64H315.438V71.252H312.838V79H311.265V71.252H308.652ZM314.936 75.555C314.936 73.449 316.366 71.967 318.459 71.967C320.552 71.967 321.995 73.449 321.995 75.555C321.995 77.622 320.552 79.156 318.459 79.156C316.379 79.156 314.936 77.622 314.936 75.555ZM318.459 77.752C319.629 77.752 320.409 76.907 320.409 75.633C320.409 74.411 319.551 73.553 318.459 73.553C317.315 73.553 316.509 74.411 316.509 75.633C316.509 76.894 317.302 77.752 318.459 77.752ZM323.341 76.712V73.592H322.184V72.123H323.432L323.614 70.342H324.849V72.123H326.76V73.592H324.849V76.621C324.849 77.453 325.265 77.752 325.889 77.752C326.24 77.752 326.513 77.7 326.76 77.622L326.877 78.974C326.565 79.091 326.084 79.156 325.629 79.156C323.952 79.156 323.341 78.207 323.341 76.712ZM331.539 74.476C331.539 73.93 331.097 73.553 330.07 73.553C329.238 73.553 328.458 73.787 327.899 74.06L327.782 72.539C328.38 72.214 329.238 71.967 330.226 71.967C332.293 71.967 333.125 72.968 333.125 74.619V79H331.578V78.025C331.084 78.675 330.46 79.156 329.368 79.156C328.198 79.156 327.327 78.532 327.327 77.375C327.327 75.971 328.354 75.503 329.992 75.23C330.616 75.126 330.993 75.035 331.292 74.892C331.5 74.801 331.539 74.684 331.539 74.476ZM331.578 75.724C331.318 75.88 330.837 76.036 330.265 76.14C329.381 76.309 328.913 76.53 328.913 77.219C328.913 77.817 329.407 78.103 330.018 78.103C330.798 78.103 331.344 77.609 331.578 77.05V75.724ZM334.541 79V69.12H336.049V79H334.541ZM289.2 84.252V82.64H295.986V84.252H293.386V92H291.813V84.252H289.2ZM296.307 92V85.123H297.789V86.176H297.828C298.192 85.383 299.011 84.967 300.168 84.967L300.077 86.709C298.426 86.67 297.815 87.424 297.815 88.984V92H296.307ZM304.692 87.476C304.692 86.93 304.25 86.553 303.223 86.553C302.391 86.553 301.611 86.787 301.052 87.06L300.935 85.539C301.533 85.214 302.391 84.967 303.379 84.967C305.446 84.967 306.278 85.968 306.278 87.619V92H304.731V91.025C304.237 91.675 303.613 92.156 302.521 92.156C301.351 92.156 300.48 91.532 300.48 90.375C300.48 88.971 301.507 88.503 303.145 88.23C303.769 88.126 304.146 88.035 304.445 87.892C304.653 87.801 304.692 87.684 304.692 87.476ZM304.731 88.724C304.471 88.88 303.99 89.036 303.418 89.14C302.534 89.309 302.066 89.53 302.066 90.219C302.066 90.817 302.56 91.103 303.171 91.103C303.951 91.103 304.497 90.609 304.731 90.05V88.724ZM307.491 92V85.123H308.973V86.163H309.012C309.415 85.448 310.117 84.967 311.17 84.967C312.964 84.967 313.77 86.176 313.77 87.84V92H312.262V88.464C312.262 87.372 311.794 86.579 310.65 86.579C309.545 86.579 308.999 87.346 308.999 88.529V92H307.491ZM314.801 91.727L314.918 90.505C315.425 90.713 316.205 90.882 317.037 90.882C317.882 90.882 318.467 90.674 318.467 90.102C318.467 89.647 318.155 89.439 316.933 89.14C315.581 88.828 314.827 88.347 314.827 87.099C314.827 85.864 315.815 84.967 317.596 84.967C318.441 84.967 319.117 85.162 319.559 85.344L319.442 86.865C318.948 86.696 318.311 86.553 317.57 86.553C316.764 86.553 316.322 86.735 316.322 87.216C316.322 87.645 316.621 87.827 317.739 88.048C319.143 88.334 319.923 88.841 319.923 90.037C319.923 91.363 318.961 92.156 317.089 92.156C316.127 92.156 315.386 91.974 314.801 91.727ZM320.093 86.592V85.123H321.185V84.278C321.185 82.848 322.03 81.964 323.499 81.964C324.006 81.964 324.422 82.003 324.734 82.107L324.617 83.355C324.37 83.29 324.11 83.264 323.785 83.264C322.966 83.264 322.693 83.667 322.693 84.291V85.123H324.513V86.592H322.693V92H321.185V86.592H320.093ZM330.681 91.805C330.07 92.052 329.368 92.156 328.64 92.156C326.222 92.156 324.74 90.817 324.74 88.529C324.74 86.488 326.027 84.967 328.042 84.967C330.161 84.967 331.136 86.683 331.136 88.373C331.136 88.62 331.123 88.893 331.097 89.075H326.404C326.586 90.206 327.47 90.882 328.874 90.882C329.511 90.882 330.057 90.778 330.551 90.583L330.681 91.805ZM328.055 86.423C327.197 86.423 326.482 86.956 326.339 88.087H329.719C329.641 87.164 329.03 86.423 328.055 86.423ZM332.145 92V85.123H333.627V86.176H333.666C334.03 85.383 334.849 84.967 336.006 84.967L335.915 86.709C334.264 86.67 333.653 87.424 333.653 88.984V92H332.145ZM336.874 92V85.123H338.356V86.176H338.395C338.759 85.383 339.578 84.967 340.735 84.967L340.644 86.709C338.993 86.67 338.382 87.424 338.382 88.984V92H336.874ZM346.937 91.805C346.326 92.052 345.624 92.156 344.896 92.156C342.478 92.156 340.996 90.817 340.996 88.529C340.996 86.488 342.283 84.967 344.298 84.967C346.417 84.967 347.392 86.683 347.392 88.373C347.392 88.62 347.379 88.893 347.353 89.075H342.66C342.842 90.206 343.726 90.882 345.13 90.882C345.767 90.882 346.313 90.778 346.807 90.583L346.937 91.805ZM344.311 86.423C343.453 86.423 342.738 86.956 342.595 88.087H345.975C345.897 87.164 345.286 86.423 344.311 86.423ZM355.096 82.12V92H353.601V90.895H353.562C353.107 91.675 352.275 92.156 351.222 92.156C349.324 92.156 347.946 90.752 347.946 88.542C347.946 86.371 349.389 84.967 351.235 84.967C352.275 84.967 353.12 85.422 353.536 86.254H353.588V82.12H355.096ZM351.508 86.553C350.39 86.553 349.519 87.398 349.519 88.633C349.519 89.92 350.377 90.752 351.508 90.752C352.665 90.752 353.549 89.907 353.549 88.62C353.549 87.372 352.665 86.553 351.508 86.553Z" fill="#F4FFEE"/>
<path d="M310.764 114.04L311.444 105.98H319.724V108.2H312.864L312.524 111.86C313.344 110.98 314.544 110.5 315.924 110.5C318.804 110.5 320.764 112.32 320.764 115.18C320.764 118.24 318.644 120.2 315.524 120.2C312.844 120.2 310.564 118.86 310.564 116.48V116.2H313.244C313.244 117.7 314.044 118.74 315.584 118.74C317.424 118.74 318.084 117.14 318.084 115.36C318.084 113.56 317.144 112.12 315.284 112.12C313.924 112.12 312.964 113 312.564 114.04H310.764ZM322.18 114.04L322.86 105.98H331.14V108.2H324.28L323.94 111.86C324.76 110.98 325.96 110.5 327.34 110.5C330.22 110.5 332.18 112.32 332.18 115.18C332.18 118.24 330.06 120.2 326.94 120.2C324.26 120.2 321.98 118.86 321.98 116.48V116.2H324.66C324.66 117.7 325.46 118.74 327 118.74C328.84 118.74 329.5 117.14 329.5 115.36C329.5 113.56 328.56 112.12 326.7 112.12C325.34 112.12 324.38 113 323.98 114.04H322.18Z" fill="#F4FFEE"/>
<path d="M127 29V110" stroke="#616161" stroke-width="0.5"/>
<path d="M263 29V110" stroke="#616161" stroke-width="0.5"/>
<g clip-path="url(#clip1_1_138)">
<mask id="path-21-inside-1_1_138" fill="white">
<path d="M34 190H174V176.2C174 165.753 174 160.529 172.097 156.484C170.115 152.273 166.727 148.885 162.516 146.903C158.471 145 153.247 145 142.8 145H65.2C54.753 145 49.5295 145 45.4844 146.903C41.2733 148.885 37.8851 152.273 35.9035 156.484C34 160.529 34 165.753 34 176.2V190Z"/>
</mask>
<path d="M34 190H174V176.2C174 165.753 174 160.529 172.097 156.484C170.115 152.273 166.727 148.885 162.516 146.903C158.471 145 153.247 145 142.8 145H65.2C54.753 145 49.5295 145 45.4844 146.903C41.2733 148.885 37.8851 152.273 35.9035 156.484C34 160.529 34 165.753 34 176.2V190Z" fill="#E9866E"/>
<g filter="url(#filter4_f_1_138)">
<ellipse cx="52" cy="18.5" rx="52" ry="18.5" transform="matrix(1 0 0 -1 51 216)" fill="#F5F5F5" fill-opacity="0.76"/>
</g>
<path d="M54.232 174L53 170.832H48.008L46.792 174H45.304L49.704 162.48H51.416L55.816 174H54.232ZM52.536 169.52L50.504 164.224L48.472 169.52H52.536ZM63.232 172.416L63.344 173.68C62.752 173.984 61.968 174.176 61.12 174.176C58.48 174.176 56.704 172.48 56.704 169.808C56.704 167.328 58.304 165.536 61.008 165.536C61.968 165.536 62.704 165.744 63.296 166.032L63.168 167.472C62.64 167.2 61.936 167.04 61.136 167.04C59.328 167.04 58.176 168.24 58.176 169.872C58.176 171.696 59.392 172.864 61.2 172.864C61.936 172.864 62.64 172.704 63.232 172.416ZM65.8069 171.488V167.12H64.3509V165.712H65.8869L66.0629 163.504H67.2149V165.712H69.6309V167.12H67.2149V171.408C67.2149 172.496 67.7909 172.864 68.5909 172.864C69.0069 172.864 69.3269 172.8 69.6469 172.704L69.7589 173.968C69.4229 174.112 68.8789 174.176 68.3669 174.176C66.5749 174.176 65.8069 173.2 65.8069 171.488ZM72.282 164.32C71.69 164.32 71.29 163.936 71.29 163.344C71.29 162.752 71.69 162.368 72.282 162.368C72.874 162.368 73.274 162.752 73.274 163.344C73.274 163.936 72.858 164.32 72.282 164.32ZM71.578 174V165.712H72.986V174H71.578ZM79.4965 174H77.8645L74.5365 165.712H76.2005L78.7285 172.64L81.1445 165.712H82.7125L79.4965 174ZM88.9851 168.4C88.9851 167.6 88.4091 167.04 87.0171 167.04C85.9931 167.04 85.0651 167.328 84.4091 167.648L84.2811 166.208C85.0171 165.808 86.0251 165.536 87.1611 165.536C89.5611 165.536 90.4731 166.72 90.4731 168.544V174H89.0491V172.704C88.4571 173.52 87.6571 174.176 86.2651 174.176C84.8251 174.176 83.7531 173.408 83.7531 172C83.7531 170.368 84.8411 169.776 86.9851 169.424C87.7691 169.296 88.3131 169.152 88.6971 168.96C88.9531 168.848 88.9851 168.688 88.9851 168.4ZM89.0491 169.792C88.6651 170.016 87.9611 170.224 87.1291 170.368C85.8491 170.592 85.2091 170.928 85.2091 171.872C85.2091 172.72 85.9131 173.136 86.7771 173.136C87.9131 173.136 88.7291 172.384 89.0491 171.584V169.792ZM93.4788 171.488V167.12H92.0228V165.712H93.5588L93.7348 163.504H94.8868V165.712H97.3028V167.12H94.8868V171.408C94.8868 172.496 95.4628 172.864 96.2628 172.864C96.6788 172.864 96.9988 172.8 97.3188 172.704L97.4308 173.968C97.0948 174.112 96.5508 174.176 96.0388 174.176C94.2468 174.176 93.4788 173.2 93.4788 171.488ZM99.9539 164.32C99.3619 164.32 98.9619 163.936 98.9619 163.344C98.9619 162.752 99.3619 162.368 99.9539 162.368C100.546 162.368 100.946 162.752 100.946 163.344C100.946 163.936 100.53 164.32 99.9539 164.32ZM99.2499 174V165.712H100.658V174H99.2499ZM102.688 169.856C102.688 167.296 104.384 165.536 106.864 165.536C109.36 165.536 111.056 167.296 111.056 169.84C111.056 172.32 109.36 174.176 106.864 174.176C104.4 174.176 102.688 172.32 102.688 169.856ZM106.864 172.864C108.528 172.864 109.6 171.664 109.6 169.904C109.6 168.208 108.384 167.04 106.864 167.04C105.264 167.04 104.16 168.208 104.16 169.904C104.16 171.664 105.232 172.864 106.864 172.864ZM113.109 174V165.712H114.501V167.104H114.549C115.013 166.16 115.909 165.536 117.221 165.536C119.509 165.536 120.421 167.04 120.421 169.056V174H119.029V169.616C119.029 168.144 118.405 167.056 116.821 167.056C115.285 167.056 114.517 168.096 114.517 169.728V174H113.109ZM126.379 173.552L126.475 172.144C127.211 172.48 128.363 172.784 129.595 172.784C131.323 172.784 132.251 172.08 132.251 170.864C132.251 169.584 131.339 169.072 129.803 168.704C127.435 168.144 126.379 167.296 126.379 165.44C126.379 163.664 127.579 162.304 130.123 162.304C131.515 162.304 132.235 162.512 133.179 162.88L133.083 164.416C132.107 164.096 131.291 163.904 130.155 163.904C128.603 163.904 127.867 164.624 127.867 165.52C127.867 166.4 128.395 166.896 130.219 167.36C132.443 167.904 133.755 168.672 133.755 170.768C133.755 172.688 132.587 174.176 129.659 174.176C128.155 174.176 127.291 173.904 126.379 173.552ZM136.135 171.488V167.12H134.679V165.712H136.215L136.391 163.504H137.543V165.712H139.959V167.12H137.543V171.408C137.543 172.496 138.119 172.864 138.919 172.864C139.335 172.864 139.655 172.8 139.975 172.704L140.087 173.968C139.751 174.112 139.207 174.176 138.695 174.176C136.903 174.176 136.135 173.2 136.135 171.488ZM146.61 168.4C146.61 167.6 146.034 167.04 144.642 167.04C143.618 167.04 142.69 167.328 142.034 167.648L141.906 166.208C142.642 165.808 143.65 165.536 144.786 165.536C147.186 165.536 148.098 166.72 148.098 168.544V174H146.674V172.704C146.082 173.52 145.282 174.176 143.89 174.176C142.45 174.176 141.378 173.408 141.378 172C141.378 170.368 142.466 169.776 144.61 169.424C145.394 169.296 145.938 169.152 146.322 168.96C146.578 168.848 146.61 168.688 146.61 168.4ZM146.674 169.792C146.29 170.016 145.586 170.224 144.754 170.368C143.474 170.592 142.834 170.928 142.834 171.872C142.834 172.72 143.538 173.136 144.402 173.136C145.538 173.136 146.354 172.384 146.674 171.584V169.792ZM151.104 171.488V167.12H149.648V165.712H151.184L151.36 163.504H152.512V165.712H154.928V167.12H152.512V171.408C152.512 172.496 153.088 172.864 153.888 172.864C154.304 172.864 154.624 172.8 154.944 172.704L155.056 173.968C154.72 174.112 154.176 174.176 153.664 174.176C151.872 174.176 151.104 173.2 151.104 171.488ZM156.347 173.68L156.459 172.512C157.115 172.768 157.979 172.96 158.955 172.96C160.139 172.96 160.971 172.624 160.971 171.776C160.971 171.072 160.507 170.736 158.955 170.352C157.307 169.952 156.427 169.376 156.427 167.968C156.427 166.528 157.595 165.536 159.595 165.536C160.619 165.536 161.371 165.76 161.915 165.984L161.803 167.424C161.227 167.216 160.507 167.04 159.595 167.04C158.491 167.04 157.819 167.312 157.819 168.032C157.819 168.688 158.283 168.976 159.659 169.264C161.435 169.648 162.331 170.256 162.331 171.712C162.331 173.232 161.211 174.176 159.019 174.176C157.899 174.176 157.067 173.968 156.347 173.68Z" fill="white"/>
</g>
<path d="M34 190H174H34ZM174 165C174 153.402 164.598 144 153 144H55C43.402 144 34 153.402 34 165C34 154.507 42.9543 146 54 146H154C165.046 146 174 154.507 174 165ZM34 145V190V145ZM174 190V145V190Z" fill="url(#paint7_linear_1_138)" mask="url(#path-21-inside-1_1_138)"/>
<g clip-path="url(#clip2_1_138)">
<mask id="path-25-inside-2_1_138" fill="white">
<path d="M224 190H364V176.2C364 165.753 364 160.529 362.097 156.484C360.115 152.273 356.727 148.885 352.516 146.903C348.471 145 343.247 145 332.8 145H255.2C244.753 145 239.529 145 235.484 146.903C231.273 148.885 227.885 152.273 225.903 156.484C224 160.529 224 165.753 224 176.2V190Z"/>
</mask>
<path d="M224 190H364V176.2C364 165.753 364 160.529 362.097 156.484C360.115 152.273 356.727 148.885 352.516 146.903C348.471 145 343.247 145 332.8 145H255.2C244.753 145 239.529 145 235.484 146.903C231.273 148.885 227.885 152.273 225.903 156.484C224 160.529 224 165.753 224 176.2V190Z" fill="#E9866E"/>
<g filter="url(#filter5_f_1_138)">
<ellipse cx="52" cy="18.5" rx="52" ry="18.5" transform="matrix(1 0 0 -1 241 216)" fill="#F5F5F5" fill-opacity="0.76"/>
</g>
<path d="M238.84 169.824H237.976V174H236.52V162.48H238.984C241.72 162.48 243.496 163.6 243.496 166.096C243.496 168.704 241.544 169.824 238.84 169.824ZM239.064 164H237.976V168.512H238.904C240.856 168.512 242.008 167.792 242.008 166.192C242.008 164.688 240.904 164 239.064 164ZM250.251 168.4C250.251 167.6 249.675 167.04 248.283 167.04C247.259 167.04 246.331 167.328 245.675 167.648L245.547 166.208C246.283 165.808 247.291 165.536 248.427 165.536C250.827 165.536 251.739 166.72 251.739 168.544V174H250.315V172.704C249.723 173.52 248.923 174.176 247.531 174.176C246.091 174.176 245.019 173.408 245.019 172C245.019 170.368 246.107 169.776 248.251 169.424C249.035 169.296 249.579 169.152 249.963 168.96C250.219 168.848 250.251 168.688 250.251 168.4ZM250.315 169.792C249.931 170.016 249.227 170.224 248.395 170.368C247.115 170.592 246.475 170.928 246.475 171.872C246.475 172.72 247.179 173.136 248.043 173.136C249.179 173.136 249.995 172.384 250.315 171.584V169.792ZM253.969 174V165.712H255.345V167.104H255.393C255.841 166.096 256.817 165.536 258.241 165.536L258.177 167.168C256.145 167.136 255.377 168.16 255.377 169.984V174H253.969ZM266.212 173.728C265.476 174.048 264.628 174.176 263.748 174.176C260.916 174.176 259.188 172.512 259.188 169.808C259.188 167.376 260.708 165.536 263.108 165.536C265.652 165.536 266.788 167.648 266.788 169.552C266.788 169.808 266.772 170.112 266.74 170.288H260.708C260.884 171.888 262.036 172.96 263.94 172.96C264.74 172.96 265.46 172.832 266.084 172.56L266.212 173.728ZM263.092 166.928C261.86 166.928 260.852 167.728 260.676 169.312H265.444C265.332 168 264.484 166.928 263.092 166.928ZM268.75 174V165.712H270.142V167.104H270.19C270.654 166.16 271.55 165.536 272.862 165.536C275.15 165.536 276.062 167.04 276.062 169.056V174H274.67V169.616C274.67 168.144 274.046 167.056 272.462 167.056C270.926 167.056 270.158 168.096 270.158 169.728V174H268.75ZM278.885 171.488V167.12H277.429V165.712H278.965L279.141 163.504H280.293V165.712H282.709V167.12H280.293V171.408C280.293 172.496 280.869 172.864 281.669 172.864C282.085 172.864 282.405 172.8 282.725 172.704L282.837 173.968C282.501 174.112 281.957 174.176 281.445 174.176C279.653 174.176 278.885 173.2 278.885 171.488ZM288.708 174V162.48H295.411V164H290.164V167.44H294.98V168.8H290.164V172.64H295.411V174H288.708ZM297.656 174V165.712H299.048V167.104H299.096C299.56 166.16 300.456 165.536 301.768 165.536C304.056 165.536 304.968 167.04 304.968 169.056V174H303.576V169.616C303.576 168.144 302.952 167.056 301.368 167.056C299.832 167.056 299.064 168.096 299.064 169.728V174H297.656ZM313.803 173.264V172.272H313.755C313.163 173.36 312.171 174.032 310.811 174.032C308.523 174.032 306.923 172.336 306.923 169.84C306.923 167.296 308.587 165.536 310.827 165.536C312.203 165.536 313.211 166.144 313.755 167.248H313.803V165.712H315.195V173.168C315.195 175.84 313.819 177.248 311.355 177.248C310.507 177.248 309.819 177.168 309.259 176.96L309.387 175.776C309.899 175.952 310.443 176 311.115 176C312.763 176 313.803 175.264 313.803 173.264ZM311.035 167.04C309.531 167.04 308.395 168.224 308.395 169.888C308.395 171.632 309.515 172.832 311.035 172.832C312.603 172.832 313.771 171.632 313.771 169.888C313.771 168.224 312.603 167.04 311.035 167.04ZM322.548 168.4C322.548 167.6 321.972 167.04 320.58 167.04C319.556 167.04 318.628 167.328 317.972 167.648L317.844 166.208C318.58 165.808 319.588 165.536 320.724 165.536C323.124 165.536 324.036 166.72 324.036 168.544V174H322.612V172.704C322.02 173.52 321.22 174.176 319.828 174.176C318.388 174.176 317.316 173.408 317.316 172C317.316 170.368 318.404 169.776 320.548 169.424C321.332 169.296 321.876 169.152 322.26 168.96C322.516 168.848 322.548 168.688 322.548 168.4ZM322.612 169.792C322.228 170.016 321.524 170.224 320.692 170.368C319.412 170.592 318.772 170.928 318.772 171.872C318.772 172.72 319.476 173.136 320.34 173.136C321.476 173.136 322.292 172.384 322.612 171.584V169.792ZM332.865 173.264V172.272H332.817C332.225 173.36 331.233 174.032 329.873 174.032C327.585 174.032 325.985 172.336 325.985 169.84C325.985 167.296 327.649 165.536 329.889 165.536C331.265 165.536 332.273 166.144 332.817 167.248H332.865V165.712H334.257V173.168C334.257 175.84 332.881 177.248 330.417 177.248C329.569 177.248 328.881 177.168 328.321 176.96L328.449 175.776C328.961 175.952 329.505 176 330.177 176C331.825 176 332.865 175.264 332.865 173.264ZM330.097 167.04C328.593 167.04 327.457 168.224 327.457 169.888C327.457 171.632 328.577 172.832 330.097 172.832C331.665 172.832 332.833 171.632 332.833 169.888C332.833 168.224 331.665 167.04 330.097 167.04ZM343.306 173.728C342.57 174.048 341.722 174.176 340.842 174.176C338.01 174.176 336.282 172.512 336.282 169.808C336.282 167.376 337.802 165.536 340.202 165.536C342.746 165.536 343.882 167.648 343.882 169.552C343.882 169.808 343.866 170.112 343.834 170.288H337.802C337.978 171.888 339.13 172.96 341.034 172.96C341.834 172.96 342.554 172.832 343.178 172.56L343.306 173.728ZM340.186 166.928C338.954 166.928 337.946 167.728 337.77 169.312H342.538C342.426 168 341.578 166.928 340.186 166.928Z" fill="white"/>
</g>
<path d="M224 190H364H224ZM364 165C364 153.402 354.598 144 343 144H245C233.402 144 224 153.402 224 165C224 154.507 232.954 146 244 146H344C355.046 146 364 154.507 364 165ZM224 145V190V145ZM364 190V145V190Z" fill="url(#paint8_linear_1_138)" mask="url(#path-25-inside-2_1_138)"/>
<g clip-path="url(#clip3_1_138)">
<rect x="15" y="187" width="178" height="173" rx="23" fill="#1D1D1F"/>
<g filter="url(#filter6_f_1_138)">
<ellipse cx="215" cy="171.5" rx="28" ry="20.5" fill="#D9D9D9"/>
</g>
<path d="M89.652 303.252V301.64H96.438V303.252H93.838V311H92.265V303.252H89.652ZM95.9358 307.555C95.9358 305.449 97.3658 303.967 99.4588 303.967C101.552 303.967 102.995 305.449 102.995 307.555C102.995 309.622 101.552 311.156 99.4588 311.156C97.3788 311.156 95.9358 309.622 95.9358 307.555ZM99.4588 309.752C100.629 309.752 101.409 308.907 101.409 307.633C101.409 306.411 100.551 305.553 99.4588 305.553C98.3148 305.553 97.5088 306.411 97.5088 307.633C97.5088 308.894 98.3018 309.752 99.4588 309.752ZM104.341 308.712V305.592H103.184V304.123H104.432L104.614 302.342H105.849V304.123H107.76V305.592H105.849V308.621C105.849 309.453 106.265 309.752 106.889 309.752C107.24 309.752 107.513 309.7 107.76 309.622L107.877 310.974C107.565 311.091 107.084 311.156 106.629 311.156C104.952 311.156 104.341 310.207 104.341 308.712ZM112.539 306.476C112.539 305.93 112.097 305.553 111.07 305.553C110.238 305.553 109.458 305.787 108.899 306.06L108.782 304.539C109.38 304.214 110.238 303.967 111.226 303.967C113.293 303.967 114.125 304.968 114.125 306.619V311H112.578V310.025C112.084 310.675 111.46 311.156 110.368 311.156C109.198 311.156 108.327 310.532 108.327 309.375C108.327 307.971 109.354 307.503 110.992 307.23C111.616 307.126 111.993 307.035 112.292 306.892C112.5 306.801 112.539 306.684 112.539 306.476ZM112.578 307.724C112.318 307.88 111.837 308.036 111.265 308.14C110.381 308.309 109.913 308.53 109.913 309.219C109.913 309.817 110.407 310.103 111.018 310.103C111.798 310.103 112.344 309.609 112.578 309.05V307.724ZM115.541 311V301.12H117.049V311H115.541ZM78.0919 324L77.2469 321.764H73.3859L72.5409 324H70.9289L74.4389 314.64H76.3109L79.8209 324H78.0919ZM76.7659 320.36L75.3099 316.486L73.8669 320.36H76.7659ZM85.3381 322.388L85.4551 323.74C84.9741 323.987 84.3241 324.156 83.6351 324.156C81.4251 324.156 79.9431 322.791 79.9431 320.529C79.9431 318.449 81.2821 316.967 83.5441 316.967C84.2981 316.967 84.9351 317.136 85.4161 317.357L85.2861 318.891C84.8701 318.67 84.3241 318.553 83.7131 318.553C82.3611 318.553 81.5161 319.411 81.5161 320.62C81.5161 321.92 82.4001 322.752 83.7391 322.752C84.2981 322.752 84.8571 322.622 85.3381 322.388ZM86.9138 321.712V318.592H85.7568V317.123H87.0048L87.1868 315.342H88.4218V317.123H90.3328V318.592H88.4218V321.621C88.4218 322.453 88.8378 322.752 89.4618 322.752C89.8128 322.752 90.0858 322.7 90.3328 322.622L90.4498 323.974C90.1378 324.091 89.6568 324.156 89.2018 324.156C87.5248 324.156 86.9138 323.207 86.9138 321.712ZM92.0826 316.187C91.5106 316.187 91.0946 315.81 91.0946 315.225C91.0946 314.64 91.4976 314.263 92.0826 314.263C92.6546 314.263 93.0706 314.64 93.0706 315.225C93.0706 315.81 92.6416 316.187 92.0826 316.187ZM91.3286 324V317.123H92.8366V324H91.3286ZM97.9582 324H96.2032L93.5252 317.123H95.2932L97.1262 322.544L98.8812 317.123H100.558L97.9582 324ZM105.052 319.476C105.052 318.93 104.61 318.553 103.583 318.553C102.751 318.553 101.971 318.787 101.412 319.06L101.295 317.539C101.893 317.214 102.751 316.967 103.739 316.967C105.806 316.967 106.638 317.968 106.638 319.619V324H105.091V323.025C104.597 323.675 103.973 324.156 102.881 324.156C101.711 324.156 100.84 323.532 100.84 322.375C100.84 320.971 101.867 320.503 103.505 320.23C104.129 320.126 104.506 320.035 104.805 319.892C105.013 319.801 105.052 319.684 105.052 319.476ZM105.091 320.724C104.831 320.88 104.35 321.036 103.778 321.14C102.894 321.309 102.426 321.53 102.426 322.219C102.426 322.817 102.92 323.103 103.531 323.103C104.311 323.103 104.857 322.609 105.091 322.05V320.724ZM108.457 321.712V318.592H107.3V317.123H108.548L108.73 315.342H109.965V317.123H111.876V318.592H109.965V321.621C109.965 322.453 110.381 322.752 111.005 322.752C111.356 322.752 111.629 322.7 111.876 322.622L111.993 323.974C111.681 324.091 111.2 324.156 110.745 324.156C109.068 324.156 108.457 323.207 108.457 321.712ZM113.626 316.187C113.054 316.187 112.638 315.81 112.638 315.225C112.638 314.64 113.041 314.263 113.626 314.263C114.198 314.263 114.614 314.64 114.614 315.225C114.614 315.81 114.185 316.187 113.626 316.187ZM112.872 324V317.123H114.38V324H112.872ZM115.407 320.555C115.407 318.449 116.837 316.967 118.93 316.967C121.023 316.967 122.466 318.449 122.466 320.555C122.466 322.622 121.023 324.156 118.93 324.156C116.85 324.156 115.407 322.622 115.407 320.555ZM118.93 322.752C120.1 322.752 120.88 321.907 120.88 320.633C120.88 319.411 120.022 318.553 118.93 318.553C117.786 318.553 116.98 319.411 116.98 320.633C116.98 321.894 117.773 322.752 118.93 322.752ZM123.498 324V317.123H124.98V318.163H125.019C125.422 317.448 126.124 316.967 127.177 316.967C128.971 316.967 129.777 318.176 129.777 319.84V324H128.269V320.464C128.269 319.372 127.801 318.579 126.657 318.579C125.552 318.579 125.006 319.346 125.006 320.529V324H123.498ZM130.808 323.727L130.925 322.505C131.432 322.713 132.212 322.882 133.044 322.882C133.889 322.882 134.474 322.674 134.474 322.102C134.474 321.647 134.162 321.439 132.94 321.14C131.588 320.828 130.834 320.347 130.834 319.099C130.834 317.864 131.822 316.967 133.603 316.967C134.448 316.967 135.124 317.162 135.566 317.344L135.449 318.865C134.955 318.696 134.318 318.553 133.577 318.553C132.771 318.553 132.329 318.735 132.329 319.216C132.329 319.645 132.628 319.827 133.746 320.048C135.15 320.334 135.93 320.841 135.93 322.037C135.93 323.363 134.968 324.156 133.096 324.156C132.134 324.156 131.393 323.974 130.808 323.727Z" fill="#F4FFEE"/>
<path d="M86.2018 279.464L87.2898 266.568H100.538V270.12H89.5618L89.0178 275.976C90.3298 274.568 92.2498 273.8 94.4578 273.8C99.0658 273.8 102.202 276.712 102.202 281.288C102.202 286.184 98.8098 289.32 93.8178 289.32C89.5298 289.32 85.8818 287.176 85.8818 283.368V282.92H90.1698C90.1698 285.32 91.4498 286.984 93.9138 286.984C96.8578 286.984 97.9138 284.424 97.9138 281.576C97.9138 278.696 96.4098 276.392 93.4338 276.392C91.2578 276.392 89.7218 277.8 89.0818 279.464H86.2018ZM104.708 279.464L105.796 266.568H119.044V270.12H108.068L107.524 275.976C108.836 274.568 110.756 273.8 112.964 273.8C117.572 273.8 120.708 276.712 120.708 281.288C120.708 286.184 117.316 289.32 112.324 289.32C108.036 289.32 104.388 287.176 104.388 283.368V282.92H108.676C108.676 285.32 109.956 286.984 112.42 286.984C115.364 286.984 116.42 284.424 116.42 281.576C116.42 278.696 114.916 276.392 111.94 276.392C109.764 276.392 108.228 277.8 107.588 279.464H104.708Z" fill="white"/>
<g clip-path="url(#clip4_1_138)">
<rect x="54" y="209" width="100" height="31" rx="15.5" fill="#1D1D1F"/>
<g filter="url(#filter7_f_1_138)">
<ellipse cx="120" cy="210.5" rx="28" ry="20.5" fill="#D9D9D9"/>
</g>
<path d="M73.52 230V218.48H76.432C80.592 218.48 82.784 220.896 82.784 224.272C82.784 227.808 80.16 230 76.496 230H73.52ZM76.448 220H74.976V228.64H76.464C79.584 228.64 81.296 226.864 81.296 224.304C81.296 221.76 79.408 220 76.448 220ZM89.5945 224.4C89.5945 223.6 89.0185 223.04 87.6265 223.04C86.6025 223.04 85.6745 223.328 85.0185 223.648L84.8905 222.208C85.6265 221.808 86.6345 221.536 87.7705 221.536C90.1705 221.536 91.0825 222.72 91.0825 224.544V230H89.6585V228.704C89.0665 229.52 88.2665 230.176 86.8745 230.176C85.4345 230.176 84.3625 229.408 84.3625 228C84.3625 226.368 85.4505 225.776 87.5945 225.424C88.3785 225.296 88.9225 225.152 89.3065 224.96C89.5625 224.848 89.5945 224.688 89.5945 224.4ZM89.6585 225.792C89.2745 226.016 88.5705 226.224 87.7385 226.368C86.4585 226.592 85.8185 226.928 85.8185 227.872C85.8185 228.72 86.5225 229.136 87.3865 229.136C88.5225 229.136 89.3385 228.384 89.6585 227.584V225.792ZM94.3601 220.32C93.7681 220.32 93.3681 219.936 93.3681 219.344C93.3681 218.752 93.7681 218.368 94.3601 218.368C94.9521 218.368 95.3521 218.752 95.3521 219.344C95.3521 219.936 94.9361 220.32 94.3601 220.32ZM93.6561 230V221.712H95.0641V230H93.6561ZM97.7186 230V217.84H99.1266V230H97.7186ZM102.645 233.216C102.149 233.216 101.717 233.152 101.413 233.04L101.541 231.84C101.781 231.92 102.053 231.968 102.389 231.968C103.221 231.968 103.541 231.632 103.893 230.752L104.149 230.08L100.677 221.712H102.405L104.933 228.672L107.317 221.712H108.917L105.349 230.72C104.789 232.176 104.309 233.216 102.645 233.216Z" fill="#A3A3A3"/>
<path d="M127 221L133 227.5L138.5 221" stroke="#EDEDED"/>
</g>
<rect x="54.25" y="209.25" width="99.5" height="30.5" rx="15.25" stroke="#353536" stroke-width="0.5"/>
</g>
<rect x="15.25" y="187.25" width="177.5" height="172.5" rx="22.75" stroke="#353536" stroke-width="0.5"/>
<g clip-path="url(#clip5_1_138)">
<rect x="205" y="187" width="178" height="173" rx="23" fill="#1D1D1F"/>
<g filter="url(#filter8_f_1_138)">
<ellipse cx="405" cy="171.5" rx="28" ry="20.5" fill="#D9D9D9"/>
</g>
<path d="M260.124 299.252V297.64H266.91V299.252H264.31V307H262.737V299.252H260.124ZM266.408 303.555C266.408 301.449 267.838 299.967 269.931 299.967C272.024 299.967 273.467 301.449 273.467 303.555C273.467 305.622 272.024 307.156 269.931 307.156C267.851 307.156 266.408 305.622 266.408 303.555ZM269.931 305.752C271.101 305.752 271.881 304.907 271.881 303.633C271.881 302.411 271.023 301.553 269.931 301.553C268.787 301.553 267.981 302.411 267.981 303.633C267.981 304.894 268.774 305.752 269.931 305.752ZM274.813 304.712V301.592H273.656V300.123H274.904L275.086 298.342H276.321V300.123H278.232V301.592H276.321V304.621C276.321 305.453 276.737 305.752 277.361 305.752C277.712 305.752 277.985 305.7 278.232 305.622L278.349 306.974C278.037 307.091 277.556 307.156 277.101 307.156C275.424 307.156 274.813 306.207 274.813 304.712ZM283.011 302.476C283.011 301.93 282.569 301.553 281.542 301.553C280.71 301.553 279.93 301.787 279.371 302.06L279.254 300.539C279.852 300.214 280.71 299.967 281.698 299.967C283.765 299.967 284.597 300.968 284.597 302.619V307H283.05V306.025C282.556 306.675 281.932 307.156 280.84 307.156C279.67 307.156 278.799 306.532 278.799 305.375C278.799 303.971 279.826 303.503 281.464 303.23C282.088 303.126 282.465 303.035 282.764 302.892C282.972 302.801 283.011 302.684 283.011 302.476ZM283.05 303.724C282.79 303.88 282.309 304.036 281.737 304.14C280.853 304.309 280.385 304.53 280.385 305.219C280.385 305.817 280.879 306.103 281.49 306.103C282.27 306.103 282.816 305.609 283.05 305.05V303.724ZM286.013 307V297.12H287.521V307H286.013ZM298.046 307L297.201 304.764H293.34L292.495 307H290.883L294.393 297.64H296.265L299.775 307H298.046ZM296.72 303.36L295.264 299.486L293.821 303.36H296.72ZM305.292 305.388L305.409 306.74C304.928 306.987 304.278 307.156 303.589 307.156C301.379 307.156 299.897 305.791 299.897 303.529C299.897 301.449 301.236 299.967 303.498 299.967C304.252 299.967 304.889 300.136 305.37 300.357L305.24 301.891C304.824 301.67 304.278 301.553 303.667 301.553C302.315 301.553 301.47 302.411 301.47 303.62C301.47 304.92 302.354 305.752 303.693 305.752C304.252 305.752 304.811 305.622 305.292 305.388ZM306.868 304.712V301.592H305.711V300.123H306.959L307.141 298.342H308.376V300.123H310.287V301.592H308.376V304.621C308.376 305.453 308.792 305.752 309.416 305.752C309.767 305.752 310.04 305.7 310.287 305.622L310.404 306.974C310.092 307.091 309.611 307.156 309.156 307.156C307.479 307.156 306.868 306.207 306.868 304.712ZM312.037 299.187C311.465 299.187 311.049 298.81 311.049 298.225C311.049 297.64 311.452 297.263 312.037 297.263C312.609 297.263 313.025 297.64 313.025 298.225C313.025 298.81 312.596 299.187 312.037 299.187ZM311.283 307V300.123H312.791V307H311.283ZM317.912 307H316.157L313.479 300.123H315.247L317.08 305.544L318.835 300.123H320.512L317.912 307ZM326.595 306.805C325.984 307.052 325.282 307.156 324.554 307.156C322.136 307.156 320.654 305.817 320.654 303.529C320.654 301.488 321.941 299.967 323.956 299.967C326.075 299.967 327.05 301.683 327.05 303.373C327.05 303.62 327.037 303.893 327.011 304.075H322.318C322.5 305.206 323.384 305.882 324.788 305.882C325.425 305.882 325.971 305.778 326.465 305.583L326.595 306.805ZM323.969 301.423C323.111 301.423 322.396 301.956 322.253 303.087H325.633C325.555 302.164 324.944 301.423 323.969 301.423ZM274.89 316.893H274.253V320H272.68V310.64H274.942C277.243 310.64 278.777 311.589 278.777 313.721C278.777 315.918 277.165 316.893 274.89 316.893ZM275.059 312.265H274.253V315.489H274.955C276.346 315.489 277.165 314.982 277.165 313.838C277.165 312.759 276.372 312.265 275.059 312.265ZM283.601 315.476C283.601 314.93 283.159 314.553 282.132 314.553C281.3 314.553 280.52 314.787 279.961 315.06L279.844 313.539C280.442 313.214 281.3 312.967 282.288 312.967C284.355 312.967 285.187 313.968 285.187 315.619V320H283.64V319.025C283.146 319.675 282.522 320.156 281.43 320.156C280.26 320.156 279.389 319.532 279.389 318.375C279.389 316.971 280.416 316.503 282.054 316.23C282.678 316.126 283.055 316.035 283.354 315.892C283.562 315.801 283.601 315.684 283.601 315.476ZM283.64 316.724C283.38 316.88 282.899 317.036 282.327 317.14C281.443 317.309 280.975 317.53 280.975 318.219C280.975 318.817 281.469 319.103 282.08 319.103C282.86 319.103 283.406 318.609 283.64 318.05V316.724ZM286.4 320V313.123H287.882V314.176H287.921C288.285 313.383 289.104 312.967 290.261 312.967L290.17 314.709C288.519 314.67 287.908 315.424 287.908 316.984V320H286.4ZM296.463 319.805C295.852 320.052 295.15 320.156 294.422 320.156C292.004 320.156 290.522 318.817 290.522 316.529C290.522 314.488 291.809 312.967 293.824 312.967C295.943 312.967 296.918 314.683 296.918 316.373C296.918 316.62 296.905 316.893 296.879 317.075H292.186C292.368 318.206 293.252 318.882 294.656 318.882C295.293 318.882 295.839 318.778 296.333 318.583L296.463 319.805ZM293.837 314.423C292.979 314.423 292.264 314.956 292.121 316.087H295.501C295.423 315.164 294.812 314.423 293.837 314.423ZM297.927 320V313.123H299.409V314.163H299.448C299.851 313.448 300.553 312.967 301.606 312.967C303.4 312.967 304.206 314.176 304.206 315.84V320H302.698V316.464C302.698 315.372 302.23 314.579 301.086 314.579C299.981 314.579 299.435 315.346 299.435 316.529V320H297.927ZM305.916 317.712V314.592H304.759V313.123H306.007L306.189 311.342H307.424V313.123H309.335V314.592H307.424V317.621C307.424 318.453 307.84 318.752 308.464 318.752C308.815 318.752 309.088 318.7 309.335 318.622L309.452 319.974C309.14 320.091 308.659 320.156 308.204 320.156C306.527 320.156 305.916 319.207 305.916 317.712ZM309.941 319.727L310.058 318.505C310.565 318.713 311.345 318.882 312.177 318.882C313.022 318.882 313.607 318.674 313.607 318.102C313.607 317.647 313.295 317.439 312.073 317.14C310.721 316.828 309.967 316.347 309.967 315.099C309.967 313.864 310.955 312.967 312.736 312.967C313.581 312.967 314.257 313.162 314.699 313.344L314.582 314.865C314.088 314.696 313.451 314.553 312.71 314.553C311.904 314.553 311.462 314.735 311.462 315.216C311.462 315.645 311.761 315.827 312.879 316.048C314.283 316.334 315.063 316.841 315.063 318.037C315.063 319.363 314.101 320.156 312.229 320.156C311.267 320.156 310.526 319.974 309.941 319.727Z" fill="#F4FFEE"/>
<path d="M276.202 275.464L277.29 262.568H290.538V266.12H279.562L279.018 271.976C280.33 270.568 282.25 269.8 284.458 269.8C289.066 269.8 292.202 272.712 292.202 277.288C292.202 282.184 288.81 285.32 283.818 285.32C279.53 285.32 275.882 283.176 275.882 279.368V278.92H280.17C280.17 281.32 281.45 282.984 283.914 282.984C286.858 282.984 287.914 280.424 287.914 277.576C287.914 274.696 286.41 272.392 283.434 272.392C281.258 272.392 279.722 273.8 279.082 275.464H276.202ZM294.708 275.464L295.796 262.568H309.044V266.12H298.068L297.524 271.976C298.836 270.568 300.756 269.8 302.964 269.8C307.572 269.8 310.708 272.712 310.708 277.288C310.708 282.184 307.316 285.32 302.324 285.32C298.036 285.32 294.388 283.176 294.388 279.368V278.92H298.676C298.676 281.32 299.956 282.984 302.42 282.984C305.364 282.984 306.42 280.424 306.42 277.576C306.42 274.696 304.916 272.392 301.94 272.392C299.764 272.392 298.228 273.8 297.588 275.464H294.708Z" fill="white"/>
<rect x="256.25" y="214.39" width="75.5" height="21.5" rx="10.75" fill="white" fill-opacity="0.1" stroke="#585858" stroke-width="0.5"/>
<path d="M277.696 229H276.298L279.439 220.273H280.96L284.101 229H282.703L280.236 221.858H280.168L277.696 229ZM277.93 225.582H282.464V226.69H277.93V225.582ZM287.911 229.132C287.277 229.132 286.732 228.989 286.274 228.702C285.82 228.412 285.47 228.013 285.226 227.504C284.982 226.996 284.859 226.413 284.859 225.757C284.859 225.092 284.984 224.506 285.234 223.997C285.484 223.486 285.837 223.087 286.291 222.8C286.746 222.513 287.281 222.369 287.898 222.369C288.395 222.369 288.838 222.462 289.227 222.646C289.616 222.828 289.93 223.084 290.169 223.413C290.411 223.743 290.554 224.128 290.599 224.568H289.359C289.291 224.261 289.135 223.997 288.891 223.776C288.649 223.554 288.325 223.443 287.919 223.443C287.564 223.443 287.253 223.537 286.986 223.724C286.722 223.909 286.516 224.173 286.368 224.517C286.22 224.858 286.146 225.261 286.146 225.727C286.146 226.205 286.219 226.616 286.364 226.963C286.509 227.31 286.713 227.578 286.977 227.768C287.244 227.959 287.558 228.054 287.919 228.054C288.161 228.054 288.379 228.01 288.575 227.922C288.774 227.831 288.94 227.702 289.074 227.534C289.21 227.366 289.305 227.165 289.359 226.929H290.599C290.554 227.352 290.416 227.73 290.186 228.062C289.956 228.395 289.648 228.656 289.261 228.847C288.878 229.037 288.428 229.132 287.911 229.132ZM295.017 222.455V223.477H291.442V222.455H295.017ZM292.401 220.886H293.675V227.078C293.675 227.325 293.712 227.511 293.786 227.636C293.86 227.759 293.955 227.842 294.071 227.888C294.191 227.93 294.32 227.952 294.459 227.952C294.561 227.952 294.651 227.945 294.728 227.93C294.804 227.916 294.864 227.905 294.907 227.896L295.137 228.949C295.063 228.977 294.958 229.006 294.821 229.034C294.685 229.065 294.515 229.082 294.31 229.085C293.975 229.091 293.662 229.031 293.373 228.906C293.083 228.781 292.848 228.588 292.669 228.327C292.49 228.065 292.401 227.737 292.401 227.342V220.886ZM296.427 229V222.455H297.701V229H296.427ZM297.07 221.445C296.849 221.445 296.658 221.371 296.499 221.223C296.343 221.072 296.265 220.893 296.265 220.686C296.265 220.476 296.343 220.297 296.499 220.149C296.658 219.999 296.849 219.923 297.07 219.923C297.292 219.923 297.481 219.999 297.637 220.149C297.796 220.297 297.876 220.476 297.876 220.686C297.876 220.893 297.796 221.072 297.637 221.223C297.481 221.371 297.292 221.445 297.07 221.445ZM305.015 222.455L302.641 229H301.277L298.9 222.455H300.267L301.925 227.491H301.993L303.647 222.455H305.015ZM308.81 229.132C308.165 229.132 307.61 228.994 307.144 228.719C306.681 228.44 306.323 228.05 306.07 227.547C305.82 227.041 305.695 226.449 305.695 225.77C305.695 225.099 305.82 224.509 306.07 223.997C306.323 223.486 306.675 223.087 307.127 222.8C307.582 222.513 308.113 222.369 308.721 222.369C309.09 222.369 309.448 222.43 309.795 222.553C310.141 222.675 310.452 222.866 310.728 223.128C311.004 223.389 311.221 223.729 311.38 224.146C311.539 224.561 311.619 225.065 311.619 225.659V226.111H306.415V225.156H310.37C310.37 224.821 310.302 224.524 310.165 224.266C310.029 224.004 309.837 223.798 309.59 223.648C309.346 223.497 309.059 223.422 308.729 223.422C308.371 223.422 308.059 223.51 307.792 223.686C307.528 223.859 307.323 224.087 307.178 224.368C307.036 224.646 306.965 224.949 306.965 225.276V226.021C306.965 226.459 307.042 226.831 307.195 227.138C307.352 227.445 307.569 227.679 307.847 227.841C308.126 228 308.451 228.08 308.823 228.08C309.065 228.08 309.285 228.045 309.484 227.977C309.683 227.906 309.854 227.801 309.999 227.662C310.144 227.523 310.255 227.351 310.332 227.146L311.538 227.364C311.441 227.719 311.268 228.03 311.018 228.297C310.771 228.561 310.46 228.767 310.085 228.915C309.712 229.06 309.288 229.132 308.81 229.132Z" fill="#59FF00"/>
</g>
<rect x="205.25" y="187.25" width="177.5" height="172.5" rx="22.75" stroke="#353536" stroke-width="0.5"/>
</g>
<rect x="0.25" y="0.25" width="396.5" height="380.5" rx="22.75" stroke="#353536" stroke-width="0.5"/>
<defs>
<filter id="filter0_f_1_138" x="80" y="-128" width="240" height="225" filterUnits="userSpaceOnUse" color-interpolation-filters="sRGB">
<feFlood flood-opacity="0" result="BackgroundImageFix"/>
<feBlend mode="normal" in="SourceGraphic" in2="BackgroundImageFix" result="shape"/>
<feGaussianBlur stdDeviation="46" result="effect1_foregroundBlur_1_138"/>
</filter>
<filter id="filter1_f_1_138" x="217" y="58" width="221" height="208" filterUnits="userSpaceOnUse" color-interpolation-filters="sRGB">
<feFlood flood-opacity="0" result="BackgroundImageFix"/>
<feBlend mode="normal" in="SourceGraphic" in2="BackgroundImageFix" result="shape"/>
<feGaussianBlur stdDeviation="37" result="effect1_foregroundBlur_1_138"/>
</filter>
<filter id="filter2_f_1_138" x="263" y="38" width="221" height="208" filterUnits="userSpaceOnUse" color-interpolation-filters="sRGB">
<feFlood flood-opacity="0" result="BackgroundImageFix"/>
<feBlend mode="normal" in="SourceGraphic" in2="BackgroundImageFix" result="shape"/>
<feGaussianBlur stdDeviation="37" result="effect1_foregroundBlur_1_138"/>
</filter>
<filter id="filter3_f_1_138" x="-183" y="47" width="471" height="238" filterUnits="userSpaceOnUse" color-interpolation-filters="sRGB">
<feFlood flood-opacity="0" result="BackgroundImageFix"/>
<feBlend mode="normal" in="SourceGraphic" in2="BackgroundImageFix" result="shape"/>
<feGaussianBlur stdDeviation="45.5" result="effect1_foregroundBlur_1_138"/>
</filter>
<filter id="filter4_f_1_138" x="-40" y="88" width="286" height="219" filterUnits="userSpaceOnUse" color-interpolation-filters="sRGB">
<feFlood flood-opacity="0" result="BackgroundImageFix"/>
<feBlend mode="normal" in="SourceGraphic" in2="BackgroundImageFix" result="shape"/>
<feGaussianBlur stdDeviation="45.5" result="effect1_foregroundBlur_1_138"/>
</filter>
<filter id="filter5_f_1_138" x="150" y="88" width="286" height="219" filterUnits="userSpaceOnUse" color-interpolation-filters="sRGB">
<feFlood flood-opacity="0" result="BackgroundImageFix"/>
<feBlend mode="normal" in="SourceGraphic" in2="BackgroundImageFix" result="shape"/>
<feGaussianBlur stdDeviation="45.5" result="effect1_foregroundBlur_1_138"/>
</filter>
<filter id="filter6_f_1_138" x="95" y="59" width="240" height="225" filterUnits="userSpaceOnUse" color-interpolation-filters="sRGB">
<feFlood flood-opacity="0" result="BackgroundImageFix"/>
<feBlend mode="normal" in="SourceGraphic" in2="BackgroundImageFix" result="shape"/>
<feGaussianBlur stdDeviation="46" result="effect1_foregroundBlur_1_138"/>
</filter>
<filter id="filter7_f_1_138" x="0" y="98" width="240" height="225" filterUnits="userSpaceOnUse" color-interpolation-filters="sRGB">
<feFlood flood-opacity="0" result="BackgroundImageFix"/>
<feBlend mode="normal" in="SourceGraphic" in2="BackgroundImageFix" result="shape"/>
<feGaussianBlur stdDeviation="46" result="effect1_foregroundBlur_1_138"/>
</filter>
<filter id="filter8_f_1_138" x="285" y="59" width="240" height="225" filterUnits="userSpaceOnUse" color-interpolation-filters="sRGB">
<feFlood flood-opacity="0" result="BackgroundImageFix"/>
<feBlend mode="normal" in="SourceGraphic" in2="BackgroundImageFix" result="shape"/>
<feGaussianBlur stdDeviation="46" result="effect1_foregroundBlur_1_138"/>
</filter>
<linearGradient id="paint0_linear_1_138" x1="291" y1="192" x2="359.112" y2="129.308" gradientUnits="userSpaceOnUse">
<stop stop-color="#E9866E"/>
<stop offset="0.515" stop-color="#959189"/>
<stop offset="1" stop-color="#4A9CA5"/>
</linearGradient>
<linearGradient id="paint1_linear_1_138" x1="311" y1="55" x2="323.25" y2="39.8352" gradientUnits="userSpaceOnUse">
<stop stop-color="#E9866E"/>
<stop offset="0.515" stop-color="#959189"/>
<stop offset="1" stop-color="#4A9CA5"/>
</linearGradient>
<linearGradient id="paint2_linear_1_138" x1="315" y1="44" x2="325.099" y2="35.5108" gradientUnits="userSpaceOnUse">
<stop stop-color="#E9866E"/>
<stop offset="0.515" stop-color="#959189"/>
<stop offset="1" stop-color="#4A9CA5"/>
</linearGradient>
<linearGradient id="paint3_linear_1_138" x1="188" y1="54" x2="200.25" y2="38.8352" gradientUnits="userSpaceOnUse">
<stop stop-color="#E9866E"/>
<stop offset="0.515" stop-color="#959189"/>
<stop offset="1" stop-color="#4A9CA5"/>
</linearGradient>
<linearGradient id="paint4_linear_1_138" x1="192" y1="43" x2="202.083" y2="34.6015" gradientUnits="userSpaceOnUse">
<stop stop-color="#E9866E"/>
<stop offset="0.515" stop-color="#959189"/>
<stop offset="1" stop-color="#4A9CA5"/>
</linearGradient>
<linearGradient id="paint5_linear_1_138" x1="62.5" y1="52" x2="65.7884" y2="49.5122" gradientUnits="userSpaceOnUse">
<stop stop-color="#E9866E"/>
<stop offset="0.515" stop-color="#959189"/>
<stop offset="1" stop-color="#4A9CA5"/>
</linearGradient>
<linearGradient id="paint6_linear_1_138" x1="57" y1="55" x2="76.589" y2="45.5694" gradientUnits="userSpaceOnUse">
<stop stop-color="#E9866E"/>
<stop offset="0.515" stop-color="#959189"/>
<stop offset="1" stop-color="#4A9CA5"/>
</linearGradient>
<linearGradient id="paint7_linear_1_138" x1="68.5958" y1="167.5" x2="74.6004" y2="146.44" gradientUnits="userSpaceOnUse">
<stop offset="0.790039" stop-color="#CECECE"/>
<stop offset="1" stop-color="#0D0D0E"/>
</linearGradient>
<linearGradient id="paint8_linear_1_138" x1="258.596" y1="167.5" x2="264.6" y2="146.44" gradientUnits="userSpaceOnUse">
<stop offset="0.790039" stop-color="#CECECE"/>
<stop offset="1" stop-color="#0D0D0E"/>
</linearGradient>
<clipPath id="clip0_1_138">
<rect width="397" height="381" rx="23" fill="white"/>
</clipPath>
<clipPath id="clip1_1_138">
<path d="M34 190H174V176.2C174 165.753 174 160.529 172.097 156.484C170.115 152.273 166.727 148.885 162.516 146.903C158.471 145 153.247 145 142.8 145H65.2C54.753 145 49.5295 145 45.4844 146.903C41.2733 148.885 37.8851 152.273 35.9035 156.484C34 160.529 34 165.753 34 176.2V190Z" fill="white"/>
</clipPath>
<clipPath id="clip2_1_138">
<path d="M224 190H364V176.2C364 165.753 364 160.529 362.097 156.484C360.115 152.273 356.727 148.885 352.516 146.903C348.471 145 343.247 145 332.8 145H255.2C244.753 145 239.529 145 235.484 146.903C231.273 148.885 227.885 152.273 225.903 156.484C224 160.529 224 165.753 224 176.2V190Z" fill="white"/>
</clipPath>
<clipPath id="clip3_1_138">
<rect x="15" y="187" width="178" height="173" rx="23" fill="white"/>
</clipPath>
<clipPath id="clip4_1_138">
<rect x="54" y="209" width="100" height="31" rx="15.5" fill="white"/>
</clipPath>
<clipPath id="clip5_1_138">
<rect x="205" y="187" width="178" height="173" rx="23" fill="white"/>
</clipPath>
</defs>
</svg>
