<svg width="140" height="45" viewBox="0 0 140 45" fill="none" xmlns="http://www.w3.org/2000/svg">
<g clip-path="url(#clip0_1_192)">
<mask id="path-1-inside-1_1_192" fill="white">
<path d="M0 45H140V31.2C140 20.753 140 15.5295 138.097 11.4844C136.115 7.27328 132.727 3.88507 128.516 1.90346C124.471 0 119.247 0 108.8 0H31.2C20.753 0 15.5295 0 11.4844 1.90346C7.27328 3.88507 3.88507 7.27328 1.90346 11.4844C0 15.5295 0 20.753 0 31.2V45Z"/>
</mask>
<path d="M0 45H140V31.2C140 20.753 140 15.5295 138.097 11.4844C136.115 7.27328 132.727 3.88507 128.516 1.90346C124.471 0 119.247 0 108.8 0H31.2C20.753 0 15.5295 0 11.4844 1.90346C7.27328 3.88507 3.88507 7.27328 1.90346 11.4844C0 15.5295 0 20.753 0 31.2V45Z" fill="#E9866E"/>
<g filter="url(#filter0_f_1_192)">
<ellipse cx="52" cy="18.5" rx="52" ry="18.5" transform="matrix(1 0 0 -1 17 71)" fill="#F5F5F5" fill-opacity="0.76"/>
</g>
<path d="M42.52 29V17.48H45.064C47.608 17.48 49.352 18.648 49.352 20.84C49.352 21.864 49.032 22.76 48.296 23.4C47.512 24.04 46.6 24.2 45.544 24.312L50.104 29H48.216L43.976 24.44V29H42.52ZM45.192 19H43.976V23.208H45.144C46.872 23.208 47.864 22.44 47.864 20.984C47.864 19.768 46.84 19 45.192 19ZM58.1186 28.728C57.3826 29.048 56.5346 29.176 55.6546 29.176C52.8226 29.176 51.0946 27.512 51.0946 24.808C51.0946 22.376 52.6146 20.536 55.0146 20.536C57.5586 20.536 58.6946 22.648 58.6946 24.552C58.6946 24.808 58.6786 25.112 58.6466 25.288H52.6146C52.7906 26.888 53.9426 27.96 55.8466 27.96C56.6466 27.96 57.3666 27.832 57.9906 27.56L58.1186 28.728ZM54.9986 21.928C53.7666 21.928 52.7586 22.728 52.5826 24.312H57.3506C57.2386 23 56.3906 21.928 54.9986 21.928ZM60.6561 32.04V20.712H62.0481V22.264H62.0961C62.6721 21.192 63.7441 20.536 65.1361 20.536C67.5361 20.536 69.1041 22.28 69.1041 24.888C69.1041 27.416 67.3281 29.176 65.1041 29.176C63.7761 29.176 62.6561 28.536 62.1121 27.464H62.0641V32.04H60.6561ZM64.8961 27.864C66.4481 27.864 67.6481 26.68 67.6481 24.984C67.6481 23.272 66.4481 22.04 64.8961 22.04C63.2961 22.04 62.0801 23.256 62.0801 24.984C62.0801 26.648 63.2961 27.864 64.8961 27.864ZM70.5321 24.856C70.5321 22.296 72.2281 20.536 74.7081 20.536C77.2041 20.536 78.9001 22.296 78.9001 24.84C78.9001 27.32 77.2041 29.176 74.7081 29.176C72.2441 29.176 70.5321 27.32 70.5321 24.856ZM74.7081 27.864C76.3721 27.864 77.4441 26.664 77.4441 24.904C77.4441 23.208 76.2281 22.04 74.7081 22.04C73.1081 22.04 72.0041 23.208 72.0041 24.904C72.0041 26.664 73.0761 27.864 74.7081 27.864ZM80.953 29V20.712H82.329V22.104H82.377C82.825 21.096 83.801 20.536 85.225 20.536L85.161 22.168C83.129 22.136 82.361 23.16 82.361 24.984V29H80.953ZM87.4788 26.488V22.12H86.0228V20.712H87.5588L87.7348 18.504H88.8868V20.712H91.3028V22.12H88.8868V26.408C88.8868 27.496 89.4628 27.864 90.2628 27.864C90.6788 27.864 90.9988 27.8 91.3188 27.704L91.4308 28.968C91.0948 29.112 90.5508 29.176 90.0388 29.176C88.2468 29.176 87.4788 28.2 87.4788 26.488ZM92.7219 28.68L92.8339 27.512C93.4899 27.768 94.3539 27.96 95.3299 27.96C96.5139 27.96 97.3459 27.624 97.3459 26.776C97.3459 26.072 96.8819 25.736 95.3299 25.352C93.6819 24.952 92.8019 24.376 92.8019 22.968C92.8019 21.528 93.9699 20.536 95.9699 20.536C96.9939 20.536 97.7459 20.76 98.2899 20.984L98.1779 22.424C97.6019 22.216 96.8819 22.04 95.9699 22.04C94.8659 22.04 94.1939 22.312 94.1939 23.032C94.1939 23.688 94.6579 23.976 96.0339 24.264C97.8099 24.648 98.7059 25.256 98.7059 26.712C98.7059 28.232 97.5859 29.176 95.3939 29.176C94.2739 29.176 93.4419 28.968 92.7219 28.68Z" fill="white"/>
</g>
<path d="M0 45H140H0ZM140 20C140 8.40202 130.598 -1 119 -1H21C9.40202 -1 0 8.40202 0 20C0 9.50659 8.9543 1 20 1H120C131.046 1 140 9.50659 140 20ZM0 0V45V0ZM140 45V0V45Z" fill="url(#paint0_linear_1_192)" mask="url(#path-1-inside-1_1_192)"/>
<defs>
<filter id="filter0_f_1_192" x="-74" y="-57" width="286" height="219" filterUnits="userSpaceOnUse" color-interpolation-filters="sRGB">
<feFlood flood-opacity="0" result="BackgroundImageFix"/>
<feBlend mode="normal" in="SourceGraphic" in2="BackgroundImageFix" result="shape"/>
<feGaussianBlur stdDeviation="45.5" result="effect1_foregroundBlur_1_192"/>
</filter>
<linearGradient id="paint0_linear_1_192" x1="34.5958" y1="22.5" x2="40.6004" y2="1.43967" gradientUnits="userSpaceOnUse">
<stop offset="0.790039" stop-color="#CECECE"/>
<stop offset="1" stop-color="#0D0D0E"/>
</linearGradient>
<clipPath id="clip0_1_192">
<path d="M0 45H140V31.2C140 20.753 140 15.5295 138.097 11.4844C136.115 7.27328 132.727 3.88507 128.516 1.90346C124.471 0 119.247 0 108.8 0H31.2C20.753 0 15.5295 0 11.4844 1.90346C7.27328 3.88507 3.88507 7.27328 1.90346 11.4844C0 15.5295 0 20.753 0 31.2V45Z" fill="white"/>
</clipPath>
</defs>
</svg>
