<svg width="82" height="81" viewBox="0 0 82 81" fill="none" xmlns="http://www.w3.org/2000/svg">
<g filter="url(#filter0_ddd_1_604)">
<rect x="10" width="62" height="61" rx="30.5" fill="url(#paint0_linear_1_604)" style="mix-blend-mode:overlay" shape-rendering="crispEdges"/>
<rect x="10.5" y="0.5" width="61" height="60" rx="30" stroke="url(#paint1_linear_1_604)" style="mix-blend-mode:overlay" shape-rendering="crispEdges"/>
<path fill-rule="evenodd" clip-rule="evenodd" d="M55.7832 21.4596C56.7389 22.3452 56.7389 23.781 55.7832 24.6665L40.6871 38.6547C38.4571 40.7211 34.8411 40.7211 32.6112 38.6547L26.2168 32.7296C25.2611 31.844 25.2611 30.4081 26.2168 29.5225C27.1726 28.6369 28.7222 28.6369 29.6779 29.5225L36.0723 35.4476C36.3908 35.7427 36.9074 35.7427 37.2259 35.4476L52.3222 21.4596C53.278 20.574 54.8274 20.574 55.7832 21.4596Z" fill="#59FF00"/>
</g>
<defs>
<filter id="filter0_ddd_1_604" x="-10" y="-20" width="102" height="101" filterUnits="userSpaceOnUse" color-interpolation-filters="sRGB">
<feFlood flood-opacity="0" result="BackgroundImageFix"/>
<feColorMatrix in="SourceAlpha" type="matrix" values="0 0 0 0 0 0 0 0 0 0 0 0 0 0 0 0 0 0 127 0" result="hardAlpha"/>
<feOffset dy="10"/>
<feGaussianBlur stdDeviation="5"/>
<feComposite in2="hardAlpha" operator="out"/>
<feColorMatrix type="matrix" values="0 0 0 0 0 0 0 0 0 0 0 0 0 0 0 0 0 0 0.1 0"/>
<feBlend mode="normal" in2="BackgroundImageFix" result="effect1_dropShadow_1_604"/>
<feColorMatrix in="SourceAlpha" type="matrix" values="0 0 0 0 0 0 0 0 0 0 0 0 0 0 0 0 0 0 127 0" result="hardAlpha"/>
<feOffset dy="4"/>
<feGaussianBlur stdDeviation="2"/>
<feComposite in2="hardAlpha" operator="out"/>
<feColorMatrix type="matrix" values="0 0 0 0 0 0 0 0 0 0 0 0 0 0 0 0 0 0 0.05 0"/>
<feBlend mode="normal" in2="effect1_dropShadow_1_604" result="effect2_dropShadow_1_604"/>
<feColorMatrix in="SourceAlpha" type="matrix" values="0 0 0 0 0 0 0 0 0 0 0 0 0 0 0 0 0 0 127 0" result="hardAlpha"/>
<feOffset dy="1"/>
<feComposite in2="hardAlpha" operator="out"/>
<feColorMatrix type="matrix" values="0 0 0 0 0 0 0 0 0 0 0 0 0 0 0 0 0 0 0.05 0"/>
<feBlend mode="normal" in2="effect2_dropShadow_1_604" result="effect3_dropShadow_1_604"/>
<feBlend mode="normal" in="SourceGraphic" in2="effect3_dropShadow_1_604" result="shape"/>
</filter>
<linearGradient id="paint0_linear_1_604" x1="41" y1="0" x2="41" y2="61" gradientUnits="userSpaceOnUse">
<stop stop-color="white" stop-opacity="0.5"/>
<stop offset="1" stop-color="white"/>
</linearGradient>
<linearGradient id="paint1_linear_1_604" x1="41" y1="0" x2="41" y2="61" gradientUnits="userSpaceOnUse">
<stop stop-color="white" stop-opacity="0.5"/>
<stop offset="1" stop-color="white"/>
</linearGradient>
</defs>
</svg>
